<?xml version="1.0" encoding="UTF-8"?>
<svg viewBox="0 0 97.799873 698.33527" xmlns="http://www.w3.org/2000/svg">
 <g transform="translate(-297.11 -172.85)" stroke="#000">
  <path d="m324.56 217.28c1.3182 0.38513 3.2156-0.18587 3.2156-0.18587l-0.29761 6.4022c-0.81498-0.15045-1.523 0.35411-2.267 0.63797l-0.651-6.8543z" fill="#ccc" fill-rule="evenodd" stroke-width=".11761"/>
  <path d="m321.29 214.47c-8.2697 0.01333-7.951 14.097-1.7214 14.812 8.8876-0.71714 7.8678-13.786 1.7214-14.812z" fill="#e6e6e6" fill-rule="evenodd" stroke-width=".11761"/>
  <path d="m321.99 247.32c1.9517-0.52333 3.9543-1.2488 5.5803-0.47998l0.01545-5.258-5.5957 5.738z" fill="#ccc" fill-rule="evenodd" stroke-width=".11761"/>
  <path d="m300.83 853.45c1.1171-3.4 4.5891-1.5231 7.615-4.8693 5.066-7.9425 7.1672-17.339 8.9765-28.547 3.4056-21.026 5.838-42.801 7.2372-64.716 0.94026-142.39 0.19983-288.92-1.0106-432.13-0.04587-0.24648 0.70694-0.243 0.7115-0.51713 0.03583-2.1573 1.4428-5.0761 1.2262-7.2646-0.06006-0.60686-2.7575-0.46923-2.8085-1.09-1.1011-13.408-0.12147-29.924 1.3942-43.477 0.41966-0.2016 0.54986-1.1065 0.6501-1.9465 0.29918-2.5069 0.29899-5.0716 0.61675-7.3211 1.0515-20.99 2.2696-42.964 3.5476-65.293 0.7205-5.7042 1.6603-11.321 3.4884-16.584 5.3078-9.917 18.066-8.1379 22.064 0.01577 2.4343 5.7304 2.3233 11.353 3.1395 16.479 2.0117 27.627 1.8056 38.083 3.0248 65.315-1.532 1.788-0.89835 5.1294-0.51559 8.3318 0.04577 0.38295 1.4759 0.51626 1.5204 0.91289 1.3496 12.031 2.3978 30.567 0.32278 43.366-0.06161 0.37999-2.5042 0.29409-2.5435 0.66928-0.2646 2.5228 0.06865 5.9673 0.2138 8.1298 0.02036 0.30325 1.6966-0.15281 1.6314 0.12751-0.15963 144.6 1.9106 288.15 2.8756 432.15 2.7184 20.931 4.4836 42.192 8.7873 62.974 1.8352 9.8441 3.567 19.707 8.9449 28.922 3.1139 1.0985 5.6189 1.9967 7.0367 3.5115 1.0793 1.5012 1.1322 2.8472 0.15592 4.0376-9.9475 12.465-76.019 12.361-86.918 1.6153-0.45316-0.95312-1.9015-2.2435-1.3844-2.8055z" fill="#333" fill-rule="evenodd" stroke-width=".11761"/>
  <path d="m334.07 177-0.184 34.072c5.8443 3.7928 12.06 4.38 18.877-0.22673l0.43483-33.777c-4.3282-5.0922-14.315-5.0889-19.127-0.06818z" fill="#ccc" fill-rule="evenodd" stroke-width=".11761"/>
  <path d="m326.55 237.34s-1.9216-2.459-4.6474-2.93c-7.9493-1.3738-7.336 15.999-0.96324 13.758 5.0907-1.7908 5.2984-4.4751 5.556-6.495 0.21468-1.6832 0.01273-4.3326 0.05468-4.3327z" fill="#e6e6e6" fill-rule="evenodd" stroke-width=".11761"/>
  <path d="m342.78225,216.03554c-5.3414.05896-10.59868.28531-15.79881.60839-.1802,2.52467-.21486,5.00487-.19807,7.45003 1.44754.16488 3.05762.11793 4.58016.13303-2.3021,4.93683-1.95002,9.41831-1.03917,13.90096-1.46174-.02737-2.92534-.04364-4.46323.04327-.34755,3.19648-.42375,6.18551-.43798,9.15856 11.56366.25212 23.20641.11089 34.88322-.1964 .03269-2.82918.11985-5.64334-.03372-8.50932-1.15392-.14686-3.02514-.14393-4.58025-.10359 .67866-4.15502 2.14686-7.79839-.89885-13.86551 1.59649.02432 3.19929-.03956 4.75711-.13251-.05455-2.70211-.13079-5.41293-.41682-8.03702-5.58681-.39981-11.01218-.50885-16.35359-.44989zm-1.88181.88916c1.82308-.25559 3.38527-.1456 4.93294-.01528 .34857-.00108.61583.26688.6148.61642l-.01012,3.44503c-.00102.34955-.26986.61916-.61843.62024-1.66487.22476-3.32488.3975-4.93295.01529-.34858.00108-.61583-.26688-.6148-.61643l.01012-3.44502c.00103-.34956.26986-.61917.61844-.62025zm2.30382,5.38118c5.22241-.01618 9.44214,4.28344 9.42661,9.56966s-4.26052,9.58261-9.48293,9.59879-9.44223-4.25399-9.42669-9.54021 4.2606-9.61206 9.48301-9.62824zm-2.61331,20.00082c1.782-.22792 3.56319-.17966 5.34403-.01656 .34858-.00108.61574.29633.61471.64587l-.00917,3.12113c-.00103.34955-.26994.64862-.61852.6497-1.74618.09422-3.48973.19504-5.34402.01655-.34859.00108-.61574-.29632-.61472-.64587l.00917-3.12113c.00103-.34956.26995-.64861.61852-.64969z" fill="#ccc" fill-rule="evenodd" stroke-width=".11761"/>
  <path d="m324.71822,262.11287c12.09834-.28318 24.44533-.4045 36.43082-.35082 .22432.032.07339.5649-.00245.83282-.28919.20303-.58643.37343-.91439.41924 .23946.15057.44456.31844.91212.3541 .13195.39083.10158.61891-.00227.77332-.25464.22682-.54228.40946-.91457.47873 .17359.28954.54474.49931.91107.71102 .0658.46972.08759.91747-.00384,1.30872-.25238.23864-.58545.23269-.91387.24077 .27002.18381.30667.4449.7931.48364 .1016.37095.04995.62687-.0026.88211l-.79557.35938c.3993.04345.78493.09476.9123.29461 .22428.61733.21117,1.15599.20474,1.69684-12.09316.23255-24.7889.32398-37.03826.08288-.04378-.54638.06119-1.01853.17216-1.48769 .19608-.32309.5318-.36491.8319-.47847-.27656-.09324-.55348-.06345-.82928-.41384-.02806-.30315-.04727-.59741.00241-.82261 .127-.3029.48939-.4291.83218-.57001-.30916-.08157-.72499-.00308-.82935-.39201l.04457-.89244c.07796-.32012.37805-.41753.78974-.40305-.2764-.14676-.46949-.09407-.74517-.48938l.00262-.89231c.23547-.35709.46169-.25695.74751-.30579-.05533-.23346-.17898-.31667-.59807-.58698-.19342-.06667-.26898-.68054.00245-.83278z" fill="#ccc" fill-rule="evenodd" stroke-width=".11761"/>
  <path d="m323.54857,323.09083c12.0969.20822 26.02362.20609 38.00965.07815 .22451-.03339.05733-1.11213-.01693-1.3796-.288-.20124-.68892-.43256-1.01662-.47634 .24035-.15206.5508-.15327 1.01859-.19183 .13424-.39165-.02025-.74535-.12319-.89912-.17305-.23192-.52278-.44907-.91177-.47308 .17529-.29061.71441-.14567 1.082-.35966 .06856-.47013.13425-.6868.04511-1.07749-.25099-.23708-.58409-.22906-.91247-.23511 .2711-.18549.30928-.44681.79595-.48857 .10378-.37158.13754-.62744.08649-.88236 .03992-.23345-.40159-.28455-.79347-.35446 .39955-.04592.7016-.09937.83014-.30001 .22791-.61873.21797-1.15731.21472-1.69814-12.09201-.15763-26.74506-.16434-38.99607.15266-.04699.54667.05521,1.01817.16342,1.48666 .19419.32188.52967.36162.82911.47333-.27711.09495-.55386.06688-.83173.41898-.02984.30333-.05078.59771-.00242.82261 .12522.30212.48687.42607.82884.56487-.30964.08348-.72502.00757-.83167.39715l.03933.89217c.07608.31965.3756.41521.78738.39817-.27727.14848-.47005.09699-.74805.49401l-.00262.89231c.23336.35564.46018.2541.74572.30116-.05671.23381-.20144.19166-.62213.46457-.19382.06787.06215.8284.33269.97897z" fill="#ccc" fill-rule="evenodd" stroke-width=".11761"/>
  <path d="m307.43 849.67c-1.0292-0.03582-8.6699 0.23504-10.257 7.6032 0.04398 9.7103 23.009 12.998 35.405 13.603 10.703 0.5946 21.629 0.04197 31.002-1.1897 9.8804-1.6445 21.41-2.0124 30.232-10.525 0.88059-1.0929 1.3074-2.3361 0.85031-3.8725-2.2088-7.2165-11.154-8.0748-12.712-8.2202 2.6834 2.0349 8.7819 3.1384 7.7247 6.8896-1.0442 2.1254-3.5536 3.0503-5.7591 4.2242-6.4235 2.4136-13.836 3.4069-20.987 4.7761-12.403 1.2692-24.441 1.4263-36.914 0.28262-7.3189-0.30038-27.724-4.1227-24.131-10.357 1.3606-1.8833 3.8271-2.2717 5.5464-3.214z" fill="#e6e6e6" fill-rule="evenodd" stroke-width=".11761"/>
  <path d="m324.4 755.02c4.8013 6.3356 39.727 2.7643 40.044-0.59994 0.49222 0.53028 1.4845 9.2578 1.1553 10.585-4.8217 4.5367-35.834 5.932-41.706 0.96202-0.67033-0.67211 0.08031-9.9216 0.50673-10.947z" fill="#e6e6e6" fill-rule="evenodd" stroke-width=".11761"/>
  <g transform="matrix(.93961 -.0029108 -.0027687 .94223 -30.011 58.544)">
   <path transform="matrix(1.2482 0 0 1.2482 -102.99 -90.06)" d="m412.13 365.56a3.1549 3.0381 0 1 1 -6.3098 0 3.1549 3.0381 0 1 1 6.3098 0z" fill="#ccc" stroke-linecap="square" stroke-linejoin="round" stroke-width=".125"/>
   <path transform="matrix(1.1638 0 0 1.1638 -63.868 -60.089)" d="m394.99 366.52a3.6223 3.6418 0 1 1 -7.2446 0 3.6223 3.6418 0 1 1 7.2446 0z" fill="#ccc" stroke-linecap="square" stroke-linejoin="round" stroke-width=".125"/>
   <path d="m393.04 364.24c5.1409 0.59083 10.086 0.42993 13.905-0.04869l0.11684 4.1384c-1.3936-0.51933-11.856-0.499-14.031 0.32045-0.18585 0.07004 0.00885-4.4102 0.00885-4.4102z" fill="#ccc" fill-rule="evenodd" stroke-width=".125"/>
   <path transform="translate(-1.0102)" d="m407.6 343.99a7.3236 7.3236 0 1 1 -14.647 0 7.3236 7.3236 0 1 1 14.647 0z" fill="#ccc" stroke-linecap="square" stroke-linejoin="round" stroke-width=".125"/>
   <path transform="matrix(.91831 0 0 .91831 28.315 63.105)" d="m407.6 343.99a7.3236 7.3236 0 1 1 -14.647 0 7.3236 7.3236 0 1 1 14.647 0z" fill="#ccc" stroke-linecap="square" stroke-linejoin="round" stroke-width=".125"/>
   <path d="m396.6 350.71c-0.07571 1.0872 1.0413 1.221 0.9915 1.6529-0.54899 0.74639-0.64893 2.1664-0.93642 3.305l1.1568 3.0846 0.55084 13.55c-1.2853 4.7739-3.4211 9.7178-3.8558 14.322-0.03404 3.8412 1.9284 9.414 4.4067 9.4743 7.4562-0.31958 8.0726-7.4834 7.6015-13.33-0.34856-2.9519-2.3379-6.2765-4.5168-8.1523l-0.66099-14.872 0.93641-2.0932 0.60591-2.4237-0.77116-2.7542c-0.24819-0.78001-0.8903-0.86041-0.9915-2.0932-1.2271-16.737-4.0113-11.089-4.5168 0.3301z" fill="#ccc" fill-rule="evenodd" stroke-width=".125"/>
   <path d="m375.63 518.21c1.1052 0.45926 2.0437-0.53495 3.116-0.7011 3.4646-0.49008 3.5059 3.3358 3.3497 5.9204l-0.8569 3.116-5.2192-1.558-0.3895-6.7772z" fill="#999" fill-rule="evenodd" stroke-width=".125"/>
   <path d="m378.42 562.56c4.0037 4.2405 8.9807 4.9352 13.991 5.5083l5.8388 0.77117c1.3615 0.63737 1.0907 1.4231 0.88133 2.2033-6.6719 0.92614-16.449 1.2-23.355-3.5253l-3.0571-2.0932c-1.6105-0.09345-1.2787-1.6764-0.49575-1.68l6.1969-1.1843z" fill="#e6e6e6" fill-rule="evenodd" stroke-width=".125"/>
   <path d="m376.1 526.89 2.0643-0.0779 0.89584 50.245 0.6232 9.27-1.1685-6.4656-2.298-11.334-0.11685-41.637z" fill="#999" fill-rule="evenodd" stroke-width=".125"/>
   <path d="m377.1 436.64 0.3305 26.44s1.6525-0.661 1.5423-1.2118 0.99149-19.94 0.99149-19.94l-2.8643-5.288z" fill="#999" fill-rule="evenodd" stroke-width=".125"/>
   <path d="m375.12 430.47c0.95477 0.03346 1.9096 0.56514 2.8643-0.77116 2.2832 0.34349 2.8335 1.4296 3.0847 2.644 0.65182 2.6697-0.35923 4.6742-2.644 6.1693-0.92197-0.50236-1.8734-0.91641-3.0847-0.55083l-0.22033-7.4913z" fill="#b3b3b3" fill-rule="evenodd" stroke-width=".125"/>
   <path d="m356.86 497.87c0.08167-2.4493 2.6279-4.0703 3.0381-3.8171l1.6554 0.25318c5.0576 0.59422 7.7589 9.8846 3.4081 10.809-4.3404 0.08846-7.8175-2.6621-8.1015-7.2446z" fill="#e6e6e6" fill-rule="evenodd" stroke-width=".125"/>
   <path d="m363.17 466.4c-0.83397 1.2647-1.1821 2.3675-2.5707 3.8171l-1.3243 1.4801 0.0779 5.6088c1.5027 1.9262 1.4324 4.3842 1.0516 6.6604-2.0361 0.95309-2.1314 2.4737-1.0516 4.0897l0.1558 6.4656c0.15545 0.82532 1.7918 0.7904 2.1812 0.38949-0.17879-3.9518-0.39281-8.4526 1.8696-12.386 4.8328-6.4561 7.76-9.8727 9.1142-8.9584l0.31159-14.333-9.8153 7.1667z" fill="#e6e6e6" fill-rule="evenodd" stroke-width=".125"/>
   <path d="m364.1 466.71c-1.0652 2.161-1.7658 4.6024-4.5182 4.8298l-0.1558 6.0762c2.598 0.08699 6.1126 0.47954 7.0109 0 3.0174-1.7249 0.93479-7.4783 1.4022-11.218l-3.7392 0.31159z" fill="#e6e6e6" fill-rule="evenodd" stroke-width=".125"/>
   <path d="m378.53 312.43a2.4787 6.9956 0 1 1 -4.9575 0 2.4787 6.9956 0 1 1 4.9575 0z" fill="#ccc" stroke-linecap="square" stroke-linejoin="round" stroke-width=".125"/>
   <path d="m372.9 321.13 0.15804 3.5392-0.1558 14.178c-0.12498 1.4048-1.0045 1.6022-1.5969 2.2591l-0.97374 25.863c-0.04726 2.3823-2.4172 3.8031-3.5444 5.5308-1.0903 1.1944-1.5615 8.0275-1.1295 9.27 0.94268 2.7626 2.9308 4.7196 3.5834 6.7772 0.74313 3.3457 0.83305 6.4301 1.0906 9.5816-0.10739 3.4521-1.7395 6.4268-3.2328 9.3869l-1.2853 2.298c-0.78201 1.0652-0.62599 5.3893 0.03895 6.7772 1.6434 2.4716 2.6175 4.9979 2.298 7.9457-0.58871 2.408-2.2382 4.0567-3.116 6.154-0.56363 2.0116-0.37514 3.5219-0.35055 5.1414 0.21051 3.1596 2.4032 3.7181 2.8433 5.7646 0.33065 2.0642 0.65647 4.2993-0.03895 6.193-0.12031 0.58596-1.102 0.30529-1.1295 1.1295-0.16397 1.8887-0.34156 3.7747 0 5.7646 0.24986 1.2503 0.11049 2.3448-0.1558 3.3886-1.1497 3.6556-3.7575 4.78-7.2057 4.0897l-0.03895 5.9982c3.0967 0.39713 8.4525 0.66598 9.0753 0.11685 3.1279-2.6409 3.6768-7.0902 4.635-11.295l1.2464-83.235 4.4403-5.9593-0.7245-48.227-1.6063-0.28805c0.38931-5.3629 0.20445-11.848-0.28864-12.112-0.93492 0.29051-2.505 8.9064-2.8358 13.97z" fill="#e6e6e6" fill-rule="evenodd" stroke-width=".125"/>
   <path d="m379.75 305.31-3.6875 0.125c1.3683 1e-5 2.4688 3.1384 2.4688 7s-1.1005 7-2.4688 7l3.3438 0.53125c4.6998-3.966 4.725-13.189 0.34375-14.656z" fill="#e6e6e6" fill-rule="evenodd" stroke-width=".125"/>
   <path d="m375.67 449.97 3.5253 2.2033 0.11017 2.4237-1.8728 0.3305 0.11016 6.2795 0.77117 15.423 1.7627 2.8643 0.661 6.9405 0.22033 5.8388-2.5338 3.7456-1.2118-2.644-0.22034-17.627-1.322-25.779z" fill="#ccc" fill-rule="evenodd" stroke-width=".125"/>
   <path d="m371.04 372.97 1.6525 215.6 4.7372 0.3305-1.5423-217.47-4.8473 1.5423z" fill="#e6e6e6" fill-rule="evenodd" stroke-width=".125"/>
   <path d="m382.12 408.53c3.0827 0.67237 4.6244 8.1057 0.18863 9.3903-1.0512-1.9518-2.7042-2.9408-4.0563-4.4112 1.3198-1.6422 3.1936-2.9679 3.8677-4.979z" fill="#b3b3b3" fill-rule="evenodd" stroke-width=".125"/>
   <path d="m370.05 405.91c14.695 0.3895 16.415 0 16.415 0 1.9441-0.47848 2.8487-1.4767 3.6355-2.5338l1e-5 9.6946c-1.1376-0.95516-1.8902-2.4631-3.4152-2.8643-5.8742-0.75079-11.133-0.57868-16.635-0.77117-2.1045-0.09741-2.2451-3.4796 0-3.5253z" fill="#ccc" fill-rule="evenodd" stroke-width=".125"/>
   <path transform="matrix(1.2317 0 0 1.2919 -95.582 -36.256)" d="m407.6 343.99a7.3236 7.3236 0 1 1 -14.647 0 7.3236 7.3236 0 1 1 14.647 0z" fill="#ccc" stroke-linecap="square" stroke-linejoin="round" stroke-width=".125"/>
   <path transform="matrix(.95409 0 0 .95942 15.587 77.87)" d="m407.6 343.99a7.3236 7.3236 0 1 1 -14.647 0 7.3236 7.3236 0 1 1 14.647 0z" stroke-linecap="square" stroke-linejoin="round" stroke-width=".125"/>
   <path d="m370.27 377.92c4.8464 0.99693 16.293 1.6897 19.83 0.22033 9.2559-0.85381 5.1748 2.9461 0.11017 3.8558-3.251-1.176-15.052-0.99007-20.004 0.13194-2.6137-0.63707-2.641-3.6962 0.06406-4.2081z" fill="#ccc" fill-rule="evenodd" stroke-width=".125"/>
   <path d="m410.69 416.53c-5.4015 3.6105-4.3598 13.236-0.3125 15.375 0.39929-0.47909 0.92071-0.75841 1.5-0.9375-1.4677-1.4064-2.4375-3.7388-2.4375-6.375 0-3.1196 1.3422-5.7929 3.2812-7.0312-0.65904-0.17218-1.346-0.44937-2.0312-1.0312z" fill="#666" fill-rule="evenodd" stroke-width=".125"/>
   <path d="m371.26 421.48 38.888 1.1729-0.3305 3.8558-38.338-0.55083c-2.8988-0.84397-2.343-4.0963-0.21919-4.4779z" fill="#ccc" fill-rule="evenodd" stroke-width=".125"/>
   <path d="m419.07 431.35-3.6355-0.22033c-0.43848 1.658-0.95491 4.2335 0.55084 6.1693 1.2853-1.254 1.9095-1.2825 3.1948-1.4322l-0.11017-4.5168z" fill="#808080" fill-rule="evenodd" stroke-width=".125"/>
   <path transform="matrix(.77592 0 0 1.0618 104.54 59.372)" d="m407.6 343.99a7.3236 7.3236 0 1 1 -14.647 0 7.3236 7.3236 0 1 1 14.647 0z" fill="#ccc" stroke-linecap="square" stroke-linejoin="round" stroke-width=".125"/>
   <path d="m370.27 439.18c5.7336 0.39513 11.317 0.87555 16.221 0.2337 2.6686-1.0894 3.6548-3.0199 5.4816-4.5302l-0.8735 13.338c-0.69506-1.4237-3.2076-3.6961-4.6694-3.9093-6.0224-1.1053-10.798-0.93417-16.821-1.2764-2.0302-0.72197-2.0435-3.8069 0.661-3.8558z" fill="#ccc" fill-rule="evenodd" stroke-width=".125"/>
   <path transform="matrix(1.2616 0 0 1.2917 -107.35 -2.4026)" d="m407.6 343.99a7.3236 7.3236 0 1 1 -14.647 0 7.3236 7.3236 0 1 1 14.647 0z" fill="#ccc" stroke-linecap="square" stroke-linejoin="round" stroke-width=".125"/>
   <path transform="matrix(.95409 0 0 .95942 15.587 111.68)" d="m407.6 343.99a7.3236 7.3236 0 1 1 -14.647 0 7.3236 7.3236 0 1 1 14.647 0z" stroke-linecap="square" stroke-linejoin="round" stroke-width=".125"/>
   <path d="m408.27 470.96a6.8941 6.6604 0 1 1 -13.788 0 6.8941 6.6604 0 1 1 13.788 0z" stroke-linecap="square" stroke-linejoin="round" stroke-width=".125"/>
   <path d="m371.92 501.97c1.564 0.06485 12.86 0.68384 19.607 0l-0.11016 4.7372c-6.4168-1.0835-14.977 5.5e-4 -19.389-0.22033-2.0846-0.03653-1.8842-4.6094-0.10793-4.5168z" fill="#e6e6e6" fill-rule="evenodd" stroke-width=".125"/>
   <path d="m406.71 504.3a8.1015 8.2963 0 1 1 -16.203 0 8.1015 8.2963 0 1 1 16.203 0z" fill="#ccc" stroke-linecap="square" stroke-linejoin="round" stroke-width=".125"/>
   <path d="m372.11 522.02c1.2979 0.47436 3.4082 0.87508 4.8591 0.7825 2.2292 1.1343 5.4877 0.32038 8.2804 0.31916 2.2974-0.76119 3.7655-2.9047 5.6185-4.4066l-0.77117 13.11c-1.4486-1.5994-2.716-3.3597-4.8748-4.3277-2.4815-0.31832-5.4107-0.71799-8.2116-0.15783-0.79075 0.92746-3.4565 0.94951-4.7472 0.70866-1.6112-0.29534-4.9746-3.9475-0.15308-6.0279z" fill="#ccc" fill-rule="evenodd" stroke-width=".125"/>
   <path transform="matrix(1.506 0 0 1.5396 -204.29 -3.578)" d="m407.6 343.99a7.3236 7.3236 0 1 1 -14.647 0 7.3236 7.3236 0 1 1 14.647 0z" fill="#ccc" stroke-linecap="square" stroke-linejoin="round" stroke-width=".125"/>
   <path transform="matrix(1.1666 0 0 1.1434 -68.36 132.43)" d="m407.6 343.99a7.3236 7.3236 0 1 1 -14.647 0 7.3236 7.3236 0 1 1 14.647 0z" stroke-linecap="square" stroke-linejoin="round" stroke-width=".125"/>
   <path d="m371.37 553.31c4.5406 0.47093 9.0688 1.0405 13.771 0.22033 1.9804-0.55607 3.3055-2.4226 4.9575-3.6355l-0.88133 11.678c-1.2958-1.3193-2.1658-3.0643-4.055-3.7902-4.29-1.1913-8.964-0.46227-13.572-0.06566-3.3404-0.36806-2.8191-4.2615-0.22033-4.4066z" fill="#ccc" fill-rule="evenodd" stroke-width=".125"/>
   <path transform="matrix(1.506 0 0 1.5396 -204.29 26.258)" d="m407.6 343.99a7.3236 7.3236 0 1 1 -14.647 0 7.3236 7.3236 0 1 1 14.647 0z" fill="#ccc" stroke-linecap="square" stroke-linejoin="round" stroke-width=".125"/>
   <path transform="matrix(1.1666 0 0 1.1434 -68.36 162.27)" d="m407.6 343.99a7.3236 7.3236 0 1 1 -14.647 0 7.3236 7.3236 0 1 1 14.647 0z" stroke-linecap="square" stroke-linejoin="round" stroke-width=".125"/>
   <path d="m378.97 588.56c7.157-9.1805 9.7207 11.158 0.83604 4.141 0.1577-1.7272 0.23952-2.4742-0.83604-4.141z" fill="#b3b3b3" fill-rule="evenodd" stroke-width=".125"/>
   <path d="m371.92 580.41c4.0398 0.03597 8.2532 1.6555 12.339 0.77116 1.6327-0.16669 2.2033-1.3954 3.305-2.0932l-0.11017 9.0336c-1.1436-0.96069-1.9103-2.2983-3.4417-2.8712-2.0575-1.0053-8.0226-0.31652-11.761-0.10324-3.3033-0.34552-3.0018-4.6479-0.3305-4.7372z" fill="#ccc" fill-rule="evenodd" stroke-width=".125"/>
   <path transform="matrix(1.7592 0 0 1.761 -305.5 -21.686)" d="m407.6 343.99a7.3236 7.3236 0 1 1 -14.647 0 7.3236 7.3236 0 1 1 14.647 0z" fill="#ccc" stroke-linecap="square" stroke-linejoin="round" stroke-width=".125"/>
   <path transform="matrix(1.3625 0 0 1.3714 -146.6 112.49)" d="m407.6 343.99a7.3236 7.3236 0 1 1 -14.647 0 7.3236 7.3236 0 1 1 14.647 0z" stroke-linecap="square" stroke-linejoin="round" stroke-width=".125"/>
   <path transform="matrix(.94871 0 0 .94871 5.5026 28.754)" d="m407.6 343.99a7.3236 7.3236 0 1 1 -14.647 0 7.3236 7.3236 0 1 1 14.647 0z" fill="#ccc" stroke-linecap="square" stroke-linejoin="round" stroke-width=".125"/>
   <path d="m417.18 391.83c1.0242 0.01772 0.82284 1.1504 1.2587 1.3101 1.1347 0.66116 2.8218-0.1027 2.8218-0.1027l0.14243 6.0859c-0.84987-0.1979-1.8212-0.26966-2.901 0.10903-0.49803 0.65017-0.62407 1.1734-1.2708 1.0694-2.0677-2.7154-0.99583-8.0733-0.05116-8.4717z" fill="#999" fill-rule="evenodd" stroke-width=".125"/>
   <path transform="translate(-.62319)" d="m413.96 335.77a3.3497 3.5055 0 1 1 -6.6993 0 3.3497 3.5055 0 1 1 6.6993 0z" fill="#b3b3b3" stroke-linecap="square" stroke-linejoin="round" stroke-width=".125"/>
   <path d="m410.33 332.79c1.2967 0.21195 1.7734 1.3456 3.3886 0.56476-1.2359 1.76-0.20146 2.0943-0.33129 3.8776-0.79544-0.25277-1.278 0.78011-2.7652 1.2054-3.5876 0.52293-4.2857-5.3139-0.29213-5.6477z" fill="#ccc" fill-rule="evenodd" stroke-width=".125"/>
   <path transform="matrix(.999 0 0 1.1137 -5.2012 -42.839)" d="m419.4 374.23a3.4152 3.3601 0 1 1 -6.8303 0 3.4152 3.3601 0 1 1 6.8303 0z" fill="#b3b3b3" stroke-linecap="square" stroke-linejoin="round" stroke-width=".125"/>
   <path d="m410.26 370.65c2.2179 0.09557 2.4921 1.8988 4.5168 1.6525v3.966c-1.598-0.84951-3.0922 0.75812-4.2965 0.661-3.5913-0.61791-3.5143-5.3073-0.22033-6.2795z" fill="#ccc" fill-rule="evenodd" stroke-width=".125"/>
   <path d="m411.55 337.67c0.25951 10.729 1.2475 23.732 0.55859 34.272 1.3348 0.75025 2.808 0.21601 4.9662-0.26884v-2.4928c4.8422 1.763 4.7437 6.3653 5.1414 10.127 0.14068 3.9494-1.8929 5.2751-2.8044 10.127-1.7185 8.8127 0.41314 13.673 2.1812 15.891 1.0519 1.0762 2.1686 1.8286 3.4276 1.8696 2.1188-0.26154 3.608-3.8423 4.0508-4.9856 1.1913-1.4097 1.7873-14.032 1.7138-14.645-0.05765-3.9264-3.8678-13.856-4.3234-14.84-0.54178-1.5969-6.1661-11.209-6.4267-11.802-1.3514-5.2695-1.5098-15.913-2.1812-15.891-0.81997 0.0075-1.6134 0.00171-2.0254-0.19475 0.17402-0.07092 0.47123 0.02241 0.50635-0.2337-0.07687-1.9984-0.25583-4.0989-0.19475-5.9593-1.4671 0.24668-4.1708-0.98109-4.59-0.97374z" fill="#e6e6e6" fill-rule="evenodd" stroke-width=".125"/>
   <path d="m392.15 354.38c8.7649-0.50758 18.49-0.49351 26.886-0.63205 3.2852 0.08481 3.4529 2.9472 0.14517 3.5373-8.3385 0.64054-19.153 0.76122-27.498 0.21068-10.524-0.45092-10.312-2.1074 0.4674-3.116z" fill="#ccc" fill-rule="evenodd" stroke-width=".125"/>
   <path d="m417.54 336a3.2718 3.5834 0 1 1 -6.5436 0 3.2718 3.5834 0 1 1 6.5436 0z" fill="#ccc" stroke-linecap="square" stroke-linejoin="round" stroke-width=".125"/>
   <path transform="translate(-1.2118 -.11017)" d="m419.4 374.23a3.4152 3.3601 0 1 1 -6.8303 0 3.4152 3.3601 0 1 1 6.8303 0z" fill="#ccc" stroke-linecap="square" stroke-linejoin="round" stroke-width=".125"/>
   <path transform="translate(-.35055 -.03895)" d="m394.99 366.52a3.6223 3.6418 0 1 1 -7.2446 0 3.6223 3.6418 0 1 1 7.2446 0z" fill="#b3b3b3" stroke-linecap="square" stroke-linejoin="round" stroke-width=".125"/>
   <path transform="translate(-.1558,.66214)" d="m412.13 365.56a3.1549 3.0381 0 1 1 -6.3098 0 3.1549 3.0381 0 1 1 6.3098 0z" fill="#b3b3b3" stroke-linecap="square" stroke-linejoin="round" stroke-width=".125"/>
   <path d="m372.21 322.18h7.946c2.227 2.8002 2.173 6.3102 0.11191 8.4005l-8.0579-0.35494v-8.0455z" fill="#e6e6e6" fill-rule="evenodd" stroke-width=".13057"/>
   <path transform="matrix(.8186 0 0 1.0687 67.231 -22.14)" d="m374.85 326.03a2.1033 3.7392 0 1 1 -4.2066 0 2.1033 3.7392 0 1 1 4.2066 0z" fill="#ccc" stroke-linecap="square" stroke-linejoin="round" stroke-width=".125"/>
   <path d="m374.68 368.23c4.3938 1.9172 5.5002-1.948 6.8303-1.983 3.0432 0.27833 3.4772 8.5934 0.77117 8.9235-3.9257-0.15011-3.6496-4.1775-7.271-1.8728l-0.3305-5.0676z" fill="#ccc" fill-rule="evenodd" stroke-width=".125"/>
   <path transform="matrix(1.0637 0 0 1.03 -24.554 -11.228)" d="m376.99 371.15a3.4152 3.5804 0 1 1 -6.8303 0 3.4152 3.5804 0 1 1 6.8303 0z" fill="#ccc" stroke-linecap="square" stroke-linejoin="round" stroke-width=".125"/>
   <path d="m382.39 413.67a3.2499 3.9109 0 1 1 -6.4998 0 3.2499 3.9109 0 1 1 6.4998 0z" fill="#ccc" stroke-linecap="square" stroke-linejoin="round" stroke-width=".125"/>
   <path d="m377.21 413.62a3.6355 3.8558 0 1 1 -7.271 0 3.6355 3.8558 0 1 1 7.271 0z" fill="#e6e6e6" stroke-linecap="square" stroke-linejoin="round" stroke-width=".125"/>
   <path d="m375.68 587.3c1.3833 1.0041 3.9788 0.43527 5.0833 0.04563 3.5901 0.78907 2.7231 5.1517 1.0045 5.9112-1.322-0.51649-3.2346-0.24888-4.5566 0.66883l-1.5313-6.6256z" fill="#999" fill-rule="evenodd" stroke-width=".125"/>
   <path d="m378.64 590.93a3.966 4.0211 0 1 1 -7.932 0 3.966 4.0211 0 1 1 7.932 0z" fill="#b3b3b3" stroke-linecap="square" stroke-linejoin="round" stroke-width=".125"/>
   <path d="m378.03 571.77c0.92725-0.75697 1.8532-0.84579 2.9766-0.91921 2.5652 0.28227 1.4344 5.5184 0.19279 5.646-0.57385-0.04567-1.078-0.32384-1.4322-1.1017-0.25565-0.29307-0.87359-0.29629-1.4872-0.30296l-0.25-3.3222z" fill="#b3b3b3" fill-rule="evenodd" stroke-width=".125"/>
   <path d="m369.15 573.56c-0.05145-1.8317 2.1248-2.0884 3.382-2.4459 1.6929 0.96754 3.0864 0.9321 4.8814 0.37181 2.4531 0.5459 1.3496 4.4728-0.02313 4.8008-3.1267 0.14986-7.5043 0.2675-8.2403-2.7267z" fill="#ccc" fill-rule="evenodd" stroke-width=".125"/>
   <path d="m355.39 467.72c0.82722 0.93876 1.5756 1.3426 2.5746 1.75 1.3309 0.25188 1.8827-1.3836 2.2457-2.4472 0.09982-1.5989 0.01835-3.2205-0.46739-4.8927-2.8601-5.7891-8.638 1.1033-4.3529 5.5899z" fill="#e6e6e6" fill-rule="evenodd" stroke-width=".125"/>
   <path d="m416.76 451.96v4.7372l3.1948-0.55083-0.3305-3.7456-2.8643-0.44067z" fill="#b3b3b3" fill-rule="evenodd" stroke-width=".125"/>
   <path d="m419.95 459.56c-1.6228 0.40706-3.2498 1.2676-4.3811 0.25928-0.31486 1.7764-0.41362 3.5324 0.08458 6.0202 0.14269 0.64485 0.44157 1.071 1.1017 0.9915 0.66346-1.6108 1.5714-2.7327 2.7542-3.305l0.44066-3.966z" fill="#808080" fill-rule="evenodd" stroke-width=".125"/>
   <path d="m418.3 435.76 5.1227 0.11017 0.05508 23.796-4.2965 0.11017-0.88133-24.016z" fill="#ccc" fill-rule="evenodd" stroke-width=".125"/>
   <path d="m419.18 459.12 4.1863 0.11017c2.8528 4.2795 1.0108 6.4753-1.6525 6.3896-3.8104-0.13677-3.9938-2.1566-2.5338-6.4998z" fill="#b3b3b3" fill-rule="evenodd" stroke-width=".125"/>
   <path d="m421.28 430.36c-5.1101-0.31233-3.6635 4.8562-3.002 6.1142 1.7621-0.18866 3.4452-0.10038 5.1365-0.04132 2.4195-1.572 2.4738-5.6306-2.1345-6.0729z" fill="#b3b3b3" fill-rule="evenodd" stroke-width=".125"/>
   <path d="m393.07 459.56c-0.17069-0.68531 0.2616-1.2199 0.661-1.7627 5.4165-2.6066 14.469-4.3196 20.711-9.1438 1.2267-1.2595 2.5536-2.4688 2.644-4.2965l0.77116-7.1608c0.17391-0.6319 2.6665-0.78356 2.8643 0l0.77117 5.8388c0.48192 0.56477 1.7438 0.4973 2.644 0.661 1.4088 0.42626 1.342 1.8838 0.16013 2.7281-0.84087 0.35988-2.124 0.16247-2.8592 1.4582-2.3885 5.2069-6.9843 6.6011-10.851 9.254-3.7938 1.6482-6.251 3.1718-15.754 3.4152-0.70509-0.12481-1.606 0.09308-1.7627-0.99149z" fill="#ccc" fill-rule="evenodd" stroke-width=".125"/>
   <path d="m355.38 470.3c-1.8572 0.33454-3.7131 6.1656 1.0127 8.2573 3.0121 0.26182 3.1851-1.1325 3.8171-2.2591l0.1558-3.895c-1.47-1.8509-2.6351-2.1899-4.9856-2.1033z" fill="#e6e6e6" fill-rule="evenodd" stroke-width=".125"/>
   <path d="m362.39 482.76c4.9119 0.7608 5.7547 3.8645 3.8171 8.5689-2.1672 1.422-3.9337 1.482-5.0635-0.6232-0.80967-1.1945-0.68689-2.3889-0.70109-3.5834 0.08462-1.7767 0.42325-3.4083 1.9475-4.3624z" fill="#e6e6e6" fill-rule="evenodd" stroke-width=".125"/>
   <path d="m375.34 496.24c2.2211-0.69797 4.4222-1.5144 5.1791-2.798l1.8716 2.2472-0.61712 6.5674c-1.4399-0.90254-2.913-2.1144-5.2217-1.2794l-1.2118-4.7372z" fill="#e6e6e6" fill-rule="evenodd" stroke-width=".125"/>
   <path d="m371.78 495.14 5.2419 0.09215c1.1327 0.03724 1.2883 6.5692 0.07132 6.6679l-5.3558-0.16196c-1.4488-0.42021-1.6296-6.1041 0.04251-6.5981z" fill="#e6e6e6" fill-rule="evenodd" stroke-width=".125"/>
   <path d="m385.72 492.46c0.79033 0.0325 0.99965 1.0675 1.8216-0.11685 2.6227-0.22054 2.3976 4.3543-0.16035 3.3483-0.25968-0.56119-0.91814-0.76585-1.4506-0.67754l-0.21059-2.5539z" fill="#e6e6e6" fill-rule="evenodd" stroke-width=".125"/>
   <path d="m371.43326,491.02836c3.51155-.27535 6.47987.8162 9.884.14699 4.01163-2.94989 7.51388.96724 4.51817,4.59606l.07789,3.86125c-.15399.77947.42662.90919.6232,2.64858-2.03149.51602-4.69061.61902-6.73305-.0337 .49921-.35768 1.13535-.62264 1.2022-1.41268l.0779-5.14135c-.53068-1.3558-1.62514-1.39323-2.96018-1.40219-.43522.0969-.65285.73823-1.01269.77899l-5.45687-.15635c-1.50396-.09335-1.29065-3.88593-.22057-3.8856z" fill="#e6e6e6" fill-rule="evenodd" stroke-width=".125"/>
   <path d="m379.76 462.04c0.71996-0.03531 1.4168 0.06829 2.337-1.1685 4.5449-0.45923 3.9502 5.5091 1.7917 6.4656-0.59959-0.98377-1.6076-1.4571-3.0381-1.4022l-1.0906-3.895z" fill="#e6e6e6" fill-rule="evenodd" stroke-width=".125"/>
   <path d="m381.36 469.83c0.57265-0.05608 0.97699 0.39273 1.8306-0.50635 0.8955 1.1046 1.0519 1.8815 1.0127 3.116-0.30173 0.88416-1.2451 0.98752-1.9085 1.3632l-0.9348-3.9729z" fill="#ccc" fill-rule="evenodd" stroke-width=".125"/>
   <path d="m382.11 465.56c-0.28325 3.3753 0.96648 10.526 2.1482 14.487 4.9709 12.811 24.056 5.4011 25.669 4.4066 2.4947-2.8395 4.9363-5.9448 7.7116-7.3811 2.2033-0.68844 5.288-0.64194 7.4913 0.11017 4.4247 1.8729 4.675 4.6734 3.8558 7.7116-1.9021 4.6693-5.4225 5.8706-9.3641 6.1693-2.6807 0.48488-5.3614 0.01792-8.0421-0.661-12.707 2.8183-26.478 4.2218-31.177-7.4913-1.8167-4.3133-1.7925-14.245-2.0381-18.177-0.37607-0.78284-0.79962-1.5419-0.60722-2.609 1.4678-1.4674 2.7703-1.4701 4.2381-0.29694 0.40043 1.2267 0.93441 2.4157 0.11481 3.7322z" fill="#e6e6e6" fill-rule="evenodd" stroke-width=".125"/>
   <path d="m382.92429,467.81979c.37412.10099.1668,1.46888-.15148,1.61118l-5.31552-.16525c-.57665.00967-.68517-1.48584.15148-1.50102l5.31552.05509z" fill="#e6e6e6" fill-rule="evenodd" stroke-width=".125"/>
  </g>
  <g transform="matrix(.93961 -.0029108 -.0027687 .94223 -30.011 58.544)" stroke-width=".125">
   <path transform="translate(1.7917 -1.558)" d="m401.34 732.31a4.5182 4.5571 0 1 1 -9.0363 0 4.5182 4.5571 0 1 1 9.0363 0z" fill="#b3b3b3" stroke-linecap="square" stroke-linejoin="round"/>
   <path transform="translate(1.7917 -9.3479)" d="m401.34 732.31a4.5182 4.5571 0 1 1 -9.0363 0 4.5182 4.5571 0 1 1 9.0363 0z" fill="#ccc" stroke-linecap="square" stroke-linejoin="round"/>
   <path d="m405.93 626.17-0.15579 16.67-2.5707-15.658 2.7265-1.0127z" fill="#b3b3b3" fill-rule="evenodd"/>
   <path d="m368.93 613.87c1.0962 0.74254 7.3635-3.8142 6.5435-4.9856l3.8171 0.77899c-0.98262 1.7238-1.8777 3.4768-1.6359 5.6088l-8.7247-1.4022z" fill="#ececec" fill-rule="evenodd"/>
   <path d="m380.38 610.83c-0.80649 1.6085-18.074-3.3314-17.605-10.828 2.7058-6.5017 21.464-3.2561 27.421 2.8044l-9.8153 8.0236z" fill="#e6e6e6" fill-rule="evenodd"/>
   <path d="m394.51 603.54c3.0895-3.3438 7.1755-1.1957 7.3811 1.983l-7.3811-1.983z" fill="#b3b3b3" fill-rule="evenodd"/>
   <path d="m402.22 606.85c-0.03228-3.7742 1.6642-4.8293 4.7137-4.8473 2.9691 0.18519 0.51351 3.0054 4.4852 3.5253l-1.4872 3.1948-7.7116-1.8728z" fill="#b3b3b3" fill-rule="evenodd"/>
   <path d="m408.72 609.93c0.99149 0 4.2965-0.3305 4.2965-0.3305l0.55084 34.482-5.0676 1.7627c0.62787-14.744 0.14689-23.943 0.22033-35.914z" fill="#e6e6e6" fill-rule="evenodd"/>
   <path transform="translate(-.77116,.77116)" d="m403.43 684.79a4.0762 4.6821 0 1 1 -8.1523 0 4.0762 4.6821 0 1 1 8.1523 0z" fill="#999" stroke-linecap="square" stroke-linejoin="round"/>
   <path transform="matrix(.91027 0 0 .89511 36.128 71.15)" d="m402.58 695.43a5.1414 5.1414 0 1 1 -10.283 0 5.1414 5.1414 0 1 1 10.283 0z" fill="#e6e6e6" stroke-linecap="square" stroke-linejoin="round"/>
   <path d="m409.82 615.55c5.6165 0.19367 9.901 0.97008 19.94-0.77117 1.2576-0.18358 1.5334 1.8529 0.88133 2.0932-8.8743 3.0193-17.639 4.171-26.22 2.2033-0.63416 2.9234-3.7075 3.8142-5.949 5.3982l-19.72-3.966 1.1017-5.6185 7.4913-1.4322 22.474 2.0932z" fill="#ccc" fill-rule="evenodd"/>
   <path d="m369.22 612.97c-3.5787 0.11122-6.6087 1.0692-8.0625 3.5312-2.6882 4.5198 14.397 13.358 22.666 12.014 5.488 1.9281 5.7143 5.109 7.0842 8.0177 0 0 1.3904 18.47 1.3125 18.781s1.7812-2e-5 1.7812 0l0.4674 73.39 5.1576 0.21875-0.53125-95.733c-0.7623-5.5429-2.7035-10.761-9.4375-14.656l0.0625-0.0625c-2.1378-1.7686-12.627-5.7447-20.5-5.5z" fill="#ececec" fill-rule="evenodd"/>
   <path d="m407.18 625.01a3.3886 3.3497 0 1 1 -6.7772 0 3.3886 3.3497 0 1 1 6.7772 0z" fill="#e6e6e6" stroke-linecap="square" stroke-linejoin="round"/>
   <path d="m374.07 619.63c0.02076-3.4276 18.525-4.6554 29.29 5.6866 2.5312 2.5761 3.1679 25.681 2.9602 39.962-2.5224 0.75672-3.6986 0.4788-5.2192 0.2337-0.39825-9.637 0.01857-21.088-1.3243-30.537 0.04705-1.3478-1.0001-2.1485-2.1812-2.8823-8.5568-0.65813-23.538-0.25421-23.526-12.464z" fill="#e6e6e6" fill-rule="evenodd"/>
   <path transform="matrix(.9079 0 0 1.0002 32.379 -.14525)" d="m385.03 647.5a5.949 13.11 0 1 1 -11.898 0 5.949 13.11 0 1 1 11.898 0z" fill="#e6e6e6" stroke-linecap="square" stroke-linejoin="round"/>
   <path d="m381.02 634.36c-1.3646 0.02083-2.7954 0.10793-4.0938 0.0625 2.7224 0.67189 4.8438 6.2454 4.8438 13.031 0 7.2382-2.3842 13.154-5.3656 13.154l5.4906 0.28388c5.4005-2.4103 7.2291-22.001-0.875-26.531z" fill="#b3b3b3" fill-rule="evenodd"/>
   <path d="m381.89 648.16c4.7506 1.355 8.49 1.8567 14.193 1.7462 3.8803 0.12854 7.0974-0.40854 10.577-0.88134 1.862-0.08914 2.5647 2.9441 0.76913 4.0664-4.4033 1.4822-8.1022 1.6383-12.92 1.4608-7.8584-0.30099-13.486-4.1324-20.601-5.1778-0.69845-0.12793-1.3805-0.39299-1.5423-0.88133-0.00178-0.5322 0.28707-0.90521 1.0741-0.99149 2.2933 0.25704 6.0173 0.75178 8.4507 0.6586z" fill="#e6e6e6" fill-rule="evenodd"/>
   <path d="m407.49 667.34a3.7002 3.4665 0 1 1 -7.4004 0 3.7002 3.4665 0 1 1 7.4004 0z" fill="#e6e6e6" stroke-linecap="square" stroke-linejoin="round"/>
   <path transform="matrix(.74926 0 0 .9964 93.823 2.628)" d="m382.06 715.53a6.9956 12.945 0 1 1 -13.991 0 6.9956 12.945 0 1 1 13.991 0z" fill="#e6e6e6" stroke-linecap="square" stroke-linejoin="round"/>
   <path d="m379.86 702.21-4.6118 0.53867c2.7007 0.51828 4.8438 6.0658 4.8438 12.844s-2.1431 12.294-4.8438 12.812l6.375 0.1875c5.3027-3.0084 6.5004-21.881-1.7632-26.382z" fill="#ccc" fill-rule="evenodd"/>
   <path d="m372.2 715.84c5.2856 0.66198 10.449 1.8732 16.125 0.77899 4.4458 0.55622 7.0674 1.3151 5.9204 2.4928 1.5241 1.1549 3.7174 0.52533 5.8424 0.0779 1.59-0.1425 2.1348 0.4118 2.4928 1.0906-0.70691 0.21083-1.4262 0.48351-2.337 1.7138-6.181 2.1243-7.1366-1.1774-11.373-1.6359-8.3539-1.3063-14.131-2.7966-16.67-4.5182z" fill="#ccc" fill-rule="evenodd"/>
   <path d="m401.34 732.31a4.5182 4.5571 0 1 1 -9.0363 0 4.5182 4.5571 0 1 1 9.0363 0z" fill="#ccc" stroke-linecap="square" stroke-linejoin="round"/>
   <path transform="matrix(.98844 0 0 .93836 4.78 42.934)" d="m426.73 682.65a6.5435 13.866 0 1 1 -13.087 0 6.5435 13.866 0 1 1 13.087 0z" fill="#e6e6e6" stroke-linecap="square" stroke-linejoin="round"/>
   <path d="m419.73 670.54c-1.8806 0.15194-5.0722 0.10303-5.6418 0.45581-10.606 8.4991-3.4214 24.432-0.11509 26.009l6.3011-0.43907c-5.2152-0.65837-6.1683-7.7188-6.6136-13.061 0-6.7334 2.8092-12.298 6.0694-12.965z" fill="#b3b3b3" fill-rule="evenodd"/>
   <path d="m392.46 685.61c0.16409-0.88827 1.1426-1.2879 2.337-1.558 3.3749 0.05215 4.7347 0.31679 10.226-0.26597 5.5408-1.0886 12.698-1.1304 19.064-0.98042 0.51933 0 0.67513 0.10387 0.4674 0.3116-3.9469 0.64063-8.1141 2.147-12.061 3.8226-3.2455-0.13063-6.8509 0.2673-10.302 0.75227-0.55122 1.0947-0.57728 1.1594-1.942 1.0339l-4.0508-0.4674c-1.3198-0.7948-3.3412-0.74763-3.7392-2.6486z" fill="#e6e6e6" fill-rule="evenodd"/>
   <path d="m416.98 656.7a3.4702 3.3601 0 1 1 -6.9405 0 3.4702 3.3601 0 1 1 6.9405 0z" fill="#b3b3b3" stroke-linecap="square" stroke-linejoin="round"/>
   <path transform="matrix(.99901 0 0 1.1203 -2.2377 -60.972)" d="m419.33 503.05a3.6613 3.856 0 1 1 -7.3225 0 3.6613 3.856 0 1 1 7.3225 0z" fill="#808080" stroke-linecap="square" stroke-linejoin="round"/>
   <path transform="matrix(.99927 0 0 1.0928 -3.5126 -61.647)" d="m421.51 666.1a3.856 4.1676 0 1 1 -7.712 0 3.856 4.1676 0 1 1 7.712 0z" fill="#999" stroke-linecap="square" stroke-linejoin="round"/>
   <path d="m414.78 608.12a3.6355 2.9194 0 1 1 -7.271 0 3.6355 2.9194 0 1 1 7.271 0z" fill="#ccc" stroke-linecap="square" stroke-linejoin="round"/>
   <path d="m419.88 498.81c3.1847-7.6968 18.248-13.618 20.098-4.8298-0.28007 7.5998-9.3671 7.8605-14.178 11.685l-5.9204-6.8551z" fill="#e6e6e6" fill-rule="evenodd"/>
   <path d="m427.99 554.29c0.76428 0.3221 2.0855 0.36571 4.3167-0.04564 2.2894-0.02208 6.2495 6.5564-0.74281 8.7531-2.3215-0.10192-1.2029-1.8979-4.3624-1.558l0.78845-7.1494z" fill="#e6e6e6" fill-rule="evenodd"/>
   <path d="m435.3 547.65a3.5055 3.9729 0 1 1 -7.0109 0 3.5055 3.9729 0 1 1 7.0109 0z" fill="#ececec" stroke-linecap="square" stroke-linejoin="round"/>
   <path d="m417.97 541.85c0.28886 3.5454 3.3476 3.4659 5.7286 3.1948-0.04113 4.1085-3.7118 4.5873-6.1693 6.2795l0.44067-9.4743z" fill="#808080" fill-rule="evenodd"/>
   <path d="m424.71 507.53c0.55294-1.3184 1.7039-2.4659 5.1414-2.9602 8.3749 3.153 8.4995 10.087 7.0109 17.761-1.9244 5.6093-6.5073 9.2887-7.0109 14.645-0.30594 7.3263 0.55782 15.432-0.93479 21.968-2.6874 5.4036-2.2881 8.9551-3.116 13.243l-0.779 51.414v6.0762c0.01777 1.6295-0.69427 2.8765-2.0254 3.2718-0.88286 0.17225-1.7657 0.00107-2.6486 0l0.93479-77.744 3.116-7.6341 0.31159-40.04z" fill="#ececec" fill-rule="evenodd"/>
   <path d="m413.02 505.51 5.2972-0.4674 1.3243 158.45-4.9077 0.2337-1.7138-158.21z" fill="#ccc" fill-rule="evenodd"/>
   <path d="m421.51 666.1a3.856 4.1676 0 1 1 -7.712 0 3.856 4.1676 0 1 1 7.712 0z" fill="#e6e6e6" stroke-linecap="square" stroke-linejoin="round"/>
   <path d="m400.73 658.27c-1.1247 0.10509-0.76973 4.2182 9e-4 4.3465 3.1325-0.15677 9.1483-0.77609 13.615-0.84104 2.8854 0.90011 7.5541 0.43617 7.712-2.4928-0.29229-4.1704-5.5443-3.0054-8.491-1.6359-4.2789 0.3057-8.5578 0.71206-12.837 0.6232z" fill="#e6e6e6" fill-rule="evenodd"/>
   <path transform="translate(-.3895)" d="m419.33 503.05a3.6613 3.856 0 1 1 -7.3225 0 3.6613 3.856 0 1 1 7.3225 0z" fill="#ccc" stroke-linecap="square" stroke-linejoin="round"/>
   <path d="m418.16 634.67c1.1845-0.26886 2.7834 0.5673 2.8044-2.8044l0.62319-10.439 1.2464-25.707-0.3116-21.968 4.9856-24.46c0.79064-15.307 0.6014-30.287 0.1558-45.182-0.16636-3.1353-0.27748-7.2357-6.8551-7.6341-7.1223 0.71828-6.3119 7.7848-6.3878 12.464 0.37085 7.9077 5.1365 10.793 8.1015 15.736 1.0259 6.18 1.9104 13.606 0.6232 20.41-0.79269 1.1421-3.4764 5.2985-4.8487 4.2446l-0.13689 85.34z" fill="#e6e6e6" fill-rule="evenodd"/>
   <path d="m415.22 646.51a3.6355 3.4152 0 1 1 -7.271 0 3.6355 3.4152 0 1 1 7.271 0z" fill="#ccc" stroke-linecap="square" stroke-linejoin="round"/>
   <path d="m410.48 623.82c3.7541 0.59885 7.6692 0.71475 12.008-0.44066 1.5456-0.69608 2.2823-1.5824 2.6562-2.8643 1.8995-0.74804 4.1946 0.8527 3.8436 1.983-0.99353 2.4555-4.1741 3.9382-8.593 4.8473l-10.796 1.6525 0.88133-5.1778z" fill="#ececec" fill-rule="evenodd"/>
   <path d="m378.09 604.21c2.9528-7.571 23.489 0.06554 32.051 5.4304 1.6246 1.7017 0.75781 5.9918 0.54529 8.9557 0.08056 3.2295 0.70099 0.3796 0.87904 6.9861l0.61213 13.532c-0.03673 0.43758-4.1789 0.91947-4.4067 0.661-0.36613-0.02823-0.10387-13.134-0.1558-19.701-0.16125-2.7863-7.3568-2.0351-12.844-2.8376-6.1187-0.85298-19.461-1.5926-16.681-13.026z" fill="#ececec" fill-rule="evenodd"/>
   <path d="m412.9 614.67c4.5981 0.62686 8.9085-0.18522 13.22-0.9915 0.8024-1.2493 1.3375-2.5368 0.11017-4.0762-5.0363 1.5953-9.6497 1.9218-14.101 1.7627l0.77117 3.305z" fill="#ececec" fill-rule="evenodd"/>
  </g>
 </g>
</svg>
