<?xml version='1.0' encoding='utf-8'?>
<svg xmlns="http://www.w3.org/2000/svg" xmlns:xlink="http://www.w3.org/1999/xlink" width="210mm" height="262.52mm" clip-rule="evenodd" fill-rule="evenodd" image-rendering="optimizeQuality" shape-rendering="geometricPrecision" text-rendering="geometricPrecision" version="1.1" viewBox="0 0 21000 26252">
 <defs>
  <style type="text/css">
    .fil8 {fill:#434242}
    .fil11 {fill:#5B5B5B}
    .fil5 {fill:#727271}
    .fil3 {fill:#E31E24}
    .fil2 {fill:url(#p)}
    .fil1 {fill:url(#q)}
    .fil9 {fill:url(#a)}
    .fil10 {fill:url(#t)}
    .fil4 {fill:url(#u)}
    .fil0 {fill:url(#v)}
    .fil6 {fill:url(#w)}
    .fil7 {fill:url(#x)}
    .fil15 {fill:url(#o)}
    .fil13 {fill:url(#y)}
    .fil16 {fill:url(#n)}
    .fil12 {fill:url(#r)}
    .fil14 {fill:url(#s)}
  </style>
  <linearGradient id="p" x1="16940" x2="13486" y1="15953" y2="15953" gradientUnits="userSpaceOnUse">
   <stop stop-color="#E31E24" offset="0"/>
   <stop stop-color="#CE2124" offset="1"/>
  </linearGradient>
  <linearGradient id="q" x1="3414.1" x2="6868.4" y1="15953" y2="15953" gradientUnits="userSpaceOnUse">
   <stop stop-color="#E31E24" offset="0"/>
   <stop stop-color="#F1908F" offset="1"/>
  </linearGradient>
  <linearGradient id="a" x1="3414.1" x2="3414.1" y1="9656.8" y2="9656.8" gradientUnits="userSpaceOnUse">
   <stop stop-color="#4A4949" offset="0"/>
   <stop stop-color="#ABAAA9" offset=".27059"/>
   <stop stop-color="#171716" offset="1"/>
  </linearGradient>
  <linearGradient id="t" x1="3414.1" x2="16940" y1="11698" y2="11698" gradientUnits="userSpaceOnUse" xlink:href="#a">
  </linearGradient>
  <linearGradient id="u" x1="3414.1" x2="16940" y1="19161" y2="19161" gradientUnits="userSpaceOnUse" xlink:href="#a">
  </linearGradient>
  <linearGradient id="v" x1="3414.1" x2="16940" y1="15330" y2="15330" gradientUnits="userSpaceOnUse">
   <stop stop-color="#C0BAB5" offset="0"/>
   <stop stop-color="#FBF9F8" offset=".27059"/>
   <stop stop-color="#9E9995" offset="1"/>
  </linearGradient>
  <linearGradient id="w" x1="196.81" x2="20893" y1="25507" y2="25507" gradientUnits="userSpaceOnUse">
   <stop stop-color="#676766" offset="0"/>
   <stop stop-color="#969690" offset=".32941"/>
   <stop stop-color="#4A4A47" offset="1"/>
  </linearGradient>
  <linearGradient id="x" x1="3035.8" x2="3792.4" y1="10432" y2="9121.4" gradientUnits="userSpaceOnUse">
   <stop stop-color="#1F1B20" offset="0"/>
   <stop stop-color="#424241" offset=".47843"/>
   <stop stop-color="#636360" offset="1"/>
  </linearGradient>
  <linearGradient id="o" x1="14731" x2="15455" y1="5751.3" y2="7003.9" gradientUnits="userSpaceOnUse">
   <stop stop-color="#8C3604" offset="0"/>
   <stop stop-color="#C77962" offset=".50196"/>
   <stop stop-color="#5C2201" offset="1"/>
  </linearGradient>
  <linearGradient id="y" x1="5054.4" x2="6234.8" y1="5514.7" y2="4334.3" gradientUnits="userSpaceOnUse" xlink:href="#o">
  </linearGradient>
  <radialGradient id="n" cx="15.001%" cy="70.002%" r="50.001%">
   <stop stop-color="#5C2201" offset="0"/>
   <stop stop-color="#C77962" offset=".50196"/>
   <stop stop-color="#8C3604" offset="1"/>
  </radialGradient>
  <radialGradient id="r" cy="65%">
   <stop stop-color="#D7D7D8" offset="0"/>
   <stop stop-color="#F5F8F8" offset="1"/>
  </radialGradient>
  <radialGradient id="s" cx="78%" cy="78%" xlink:href="#n">
  </radialGradient>
 </defs>
   <path class="fil0" d="m16940 18594c0 1419-3028 2569-6763 2569s-6763-1150-6763-2569v-9097h13526v9097z"/>
   <path class="fil1" d="m4225 19507h2643c-769-2292-1323-4692-1846-7108-705 2008-1272 4061-1608 6192 270 305 540 611 811 916z"/>
   <path class="fil2" d="m16129 19507h-2643c902-2369 1437-4738 1846-7108 644 1956 1210 3990 1608 6192-270 305-540 611-811 916z"/>
   <path class="fil3" d="m8331 12730h3692c-438 2310-1039 4675-1846 7108-795-2249-1420-4613-1846-7108z"/>
   <path class="fil4" d="m16940 17159v1435c0 1419-3028 2569-6763 2569s-6763-1150-6763-2569v-1435c0 1419 3028 2569 6763 2569s6763-1150 6763-2569z"/>
   <path class="fil5" d="m20133 19787l-2912-9713 143-270c1172 2956 3388 8356 3520 9783 1114 12025-21453 4985-20873 480 463-3599 2076-7912 3012-10427-45 239 196 248 145 488-664 3143-2331 6420-2323 9625 11 4618 22022 9149 19288 34z"/>
   <path class="fil6" d="m20893 21103c-828 9180-18636 4115-20696-100 333-61 658-153 971-271 2540 3970 19378 7134 19199 409 138 298 315 257 526-38z"/>
   <circle class="fil7" cx="3414" cy="9777" r="554"/>
   <circle class="fil8" cx="16901" cy="9777" r="554"/>
   <path class="fil9" d="m3414 9909z"/>
   <path class="fil10" d="m16940 9909c0 1192-3028 2158-6763 2158s-6763-966-6763-2158v1008c0 1419 3028 2569 6763 2569s6763-1150 6763-2569v-1008z"/>
   <ellipse class="fil11" cx="10177" cy="9909" rx="6763" ry="2158"/>
   <ellipse class="fil12" cx="10177" cy="9909" rx="6542" ry="2042"/>
    <path class="fil13" d="m10336 9809l221-207c-1510-1651-3020-3302-4530-4954l-4818-4648c-98 19-225 60-298 138-62 65-93 184-116 276 1549 1606 3099 3212 4648 4818l4893 4577z"/>
    <path class="fil14" d="m10303 9548c90-90 237-90 327 0 91 91 91 237 0 328-90 90-237 90-327 0-91-91-91-237 0-328z"/>
   <path class="fil15" d="m9161 9645l142 267 5958-3093 5737-3452c7-99 0-232-56-323-48-76-154-137-237-184-1952 1082-3905 2163-5857 3244l-5687 3541z"/>
   <path class="fil16" d="m9421 9680c64 111 26 253-85 317-110 64-252 26-316-85s-26-253 85-317c110-64 252-26 316 85z"/>
</svg>