<?xml version="1.0" encoding="UTF-8"?>
<svg width="274.99" height="195.15" enable-background="new 0 0 274.988 195.152" viewBox="0 0 274.988 195.152" xmlns="http://www.w3.org/2000/svg">
 <path d="m134.12,142.63 .1,1.45 11.84,11.43-1.45-3.12z"/>
 <path d="m232.46,70.553c-.582-.151-.977-.752-1.164-1.824-.207-1.09-.339-2.406 0-4.587 .338-2.199 1.334-5.733 1.973-8.44 .621-2.707 1.523-5.188 1.73-7.633 .207-2.463.451-4.963-.488-6.956-.979-1.992-2.576-3.703-5.228-4.888-2.669-1.165-7.612-2.707-10.621-2.105-3.026.62-5.489,2.782-7.332,5.753s-2.745,7.877-3.628,11.881-1.861,8.854-1.598,11.938c.281,3.064 1.917,5.207 3.271,6.354 1.335,1.146 1.485,1.391 3.365,2.03s3.892.827 3.892.827l.695-4.08c-.771-.094-1.354-.094-2.67-.751-1.334-.658-2.613-1.843-2.613-1.843-.375-.677-.469-1.429-.131-4.211 .338-2.802 1.24-9.023 2.068-12.352 .826-3.309 1.578-5.771 2.801-7.331 1.24-1.542 3.008-1.786 4.586-1.918 1.561-.094 3.516.489 4.775,1.223 1.241.732 2.369,1.052 2.613,3.082 .227,2.05-.639,5.997-1.222,9.081-.583,3.102-1.617,6.579-2.237,9.305-.639,2.708-1.504,5.001-1.504,6.844 0,1.805.526,2.801 1.467,4.004s2.313,2.256 4.136,3.177l3.06-6.58z"/>
 <path d="m229.44,75.911c-1.297-.489-2.294-1.278-3.084-2.388s-1.635-2.087-1.598-4.211c.037-2.144 1.128-5.357 1.842-8.44s1.861-7.068 2.369-9.87c.526-2.782 1.165-5.001.715-6.786-.471-1.786-1.73-3.008-3.404-3.816-1.691-.809-4.85-1.297-6.635-1.034-1.768.244-2.896,1.034-3.967,2.538-1.072,1.522-1.655,3.723-2.389,6.485s-1.56,7.576-1.973,9.926c-.414,2.331-.396,2.896-.489,3.986-.113,1.09-.207,1.541-.132,2.481 .075.958.639,1.917 1.729,2.782 1.091.846 1.071.789 2.331,1.24 1.241.433 2.295.658 2.295.658s-.678,2.876-.396,2.801-1.709-.094-2.951-.507-1.277-.301-2.387-.922c-1.109-.602-2.049-1.579-2.049-1.579-.922-.658-1.561-1.805-1.918-3.516-.357-1.729-.526-3.854-.207-6.674 .32-2.838 1.354-7.162 2.088-10.151 .732-2.97 1.24-5.433 2.255-7.52 1.015-2.105 2.256-3.854 3.778-4.981s2.99-1.805 5.264-1.711c2.313.075 6.205,1.09 8.385,2.237s3.741,2.575 4.588,4.587c.846,1.992.789,4.398.45,7.332-.357,2.951-1.899,7.726-2.519,10.17-.602,2.406-.846,2.745-1.109,4.249-.281,1.504-.508,3.553-.488,4.718 .018,1.147.3,1.617.582,2.181s.658.94 1.128,1.166l-2.07,4.569z" fill="#ffcf3b"/>
 <path d="m184.82,78.429-.884,4.249 6.618,1.41c.488-2.181.827-3.591 1.015-4.305 .15-.715.15-.715 0,0l-6.76-1.354z"/>
 <path d="m185.95,77.922-.77,3.911 4.36.92 1.09-3.891z" fill="#ffcf3b"/>
 <path d="m190.48,50.062c.076-1.053.434-2.087.865-3.103 .432-1.09 1.053-2.181 1.86-3.045 .753-.902 1.392-1.579 2.727-2.105 1.278-.546 1.955-1.053 5.076-1.016 3.102.038 9.888.602 13.328,1.26 3.346.602 5.001,1.015 6.786,2.331 1.748,1.222 2.971,2.744 3.666,5.227 .64,2.519.678,5.339.32,9.682-.471,4.305-2.199,12.482-2.651,15.979-.489,3.385-.413,3.253 0,4.606 .396,1.354 1.147,2.443 2.331,3.421-3.309-.15-5.695-.695-7.162-1.71-1.486-1.072-1.579-2.745-1.73-4.361-.225-1.636.244-3.403.545-5.227 .264-1.861.603-3.422 1.091-5.696 .433-2.35 1.317-5.753 1.561-8.103 .169-2.406.282-4.437-.376-6.166-.695-1.749-1.316-3.347-3.74-4.286-2.558-.978-8.555-1.523-11.168-1.561-2.669-.075-3.422.339-4.512,1.241s-1.805,2.161-2.068,3.985l-6.76-1.353z"/>
 <path d="m191.42,51.17c.413-2.199.958-3.891 1.711-5.226 .733-1.373 1.372-1.993 2.575-2.726 1.128-.752 1.975-1.392 4.286-1.561 2.274-.188 6.58.188 9.287.47 2.651.244 4.662.583 6.617,1.091 1.917.507 3.478,1.015 4.756,1.879 1.185.809 1.899,1.505 2.575,3.027 .602,1.466 1.241,3.421 1.336,5.865 .057,2.443-.377,5.733-.79,8.647-.526,2.82-1.316,5.771-1.786,8.347-.451,2.538-.959,4.851-.789,6.787 .15,1.898.602,3.384 1.56,4.53l-4.681-1.109c-.489-.395-.752-1.146-.996-2.181-.282-1.108-.508-2.124-.32-4.136 .207-2.124.846-5.282 1.41-7.952 .508-2.669 1.223-5.264 1.561-7.708 .244-2.5.582-5.113.075-7.03-.563-1.937-1.579-3.516-3.12-4.531-1.561-1.052-3.761-1.353-6.017-1.71-2.294-.433-5.659-.809-7.633-.696-2.03.057-3.12.226-4.286,1.316-1.203,1.109-2.068,2.801-2.744,5.227l-4.6-.62z" fill="#ffcf3b"/>
 <path d="m184.82 78.429 6.75 1.355 5.66-28.368-6.73-1.354z"/>
 <path d="m185.8,78.711 4.61.847 5.77-28.463-4.53-.864z" fill="#c1c1c1"/>
 <path d="m191.5,50.794 4.72.772 .13-.772-4.72-.789z"/>
 <path d="m185.61,79.125 4.85,1.128 .19-.79-4.85-1.146z"/>
 <path d="m267.67.074c-1.748-.075-3.064-.075-4.022,0-.996.019-1.297.057-1.71.263-.434.15-.641.094-.771.846-.207.771-.489,2.594-.264,3.516 .227.846.771,1.334 1.636,1.542 .413,2.726.864,5.301 1.278,7.802 .414,2.443.789,4.813 1.203,7.03l5.15.075c.357-2.218.752-4.587 1.186-7.03 .395-2.501.826-5.076 1.297-7.802 .863-.207 1.354-.695 1.617-1.541 .244-.921-.15-2.745-.244-3.516-.189-.714-.377-.733-.771-.865-.434-.169-.809-.226-1.711-.244-.99-.038-2.23-.113-3.9-.076z" stroke="#000" stroke-miterlimit="10" stroke-width=".036"/>
 <path d="m267.75.77c-1.447-.038-2.594-.038-3.365,0-.828.038-1.109.019-1.429.244-.319.132-.563.264-.657.827-.246.583-.508,1.899-.357,2.651 .168.714.601,1.166 1.371,1.504 .564,3.064 1.054,5.809 1.467,8.384 .414,2.557.752,4.794 1.016,6.862l3.686-.095c.299-2.03.563-4.286.994-6.843 .34-2.594.848-5.301 1.316-8.403 .695-.375 1.148-.808 1.355-1.504 .207-.695-.02-1.955-.096-2.481-.131-.507-.318-.733-.639-.827-.338-.207-.715-.244-1.43-.263-.8-.056-1.85-.075-3.22-.056z" fill="#c1c1c1" stroke="#000" stroke-miterlimit="10" stroke-width=".036"/>
 <path d="m264.49 20.772h6.882v69.558h-6.882z"/>
 <path d="m265.6 20.772h4.662v69.558h-4.662z" fill="#ffcf3b"/>
 <path d="m270.28,20.772-5.6-.037v.789l5.6.038z"/>
 <path d="m241,98.977c.827-.639 1.691-1.635 2.595-2.989 .902-1.409 2.274-3.045 2.801-5.188 .47-2.256 1.015-5.226.188-7.82-.902-2.575-2.651-4.981-5.396-7.426l-4.831,2.782c2.049,1.786 3.384,3.402 4.079,5.208 .641,1.748.641,3.459 0,5.207-.658,1.691-1.954,3.365-3.891,5.02 1.47,1.729 2.96,3.458 4.45,5.206z" stroke="#000" stroke-miterlimit="10" stroke-width=".036"/>
 <path d="m240.81,97.492c1.484-1.222 2.594-2.65 3.535-4.286 .863-1.71 1.729-3.646 1.86-5.583 .132-1.993-.264-4.324-1.109-6.129-.864-1.88-2.256-3.421-4.099-4.831l-2.782,1.861c1.579,1.165 2.632,2.519 3.159,4.268 .545,1.729.545,3.985 0,5.959-.641,1.898-1.881,3.647-3.723,5.396 1.05,1.108 2.11,2.217 3.16,3.345z" fill="#ffcf3b" stroke="#000" stroke-miterlimit="10" stroke-width=".036"/>
 <path d="m240.43,67.188c1.146-1.241 1.805-2.632 2.051-4.099 .168-1.504-.057-2.801-.753-4.831-.696-2.087-1.805-4.512-3.327-7.426l10.396,5.377c.808,3.102 1.146,5.658.939,7.82-.301,2.105-1.072,3.703-2.236,5.02-1.129,1.315-2.614,2.218-4.456,2.782-.86-1.541-1.72-3.083-2.61-4.643z" stroke="#000" stroke-miterlimit="10" stroke-width=".036"/>
 <path d="m241.37,67.564c.863-.959 1.354-2.05 1.672-3.347 .245-1.297.489-2.519 0-4.474-.488-2.068-1.504-4.531-2.971-7.614l7.99,4.455c.922,2.952 1.278,5.471.922,7.633-.377,2.144-2.162,4.117-2.971,5.188-.865,1.034-1.523,1.298-2.049.94-.86-.92-1.72-1.842-2.59-2.781z" fill="#ffcf3b" stroke="#000" stroke-miterlimit="10" stroke-width=".036"/>
 <path d="m190.61,133.55c.095,1.955.677,3.872 1.673,5.751 .996,1.844 1.241,3.254 4.287,5.396 3.045,2.105 9.775,5.734 13.742,7.256 3.891,1.447 6.185,1.861 9.493,1.674 3.253-.17 7.52-.902 10.039-2.783 2.406-2.029 4.192-5.865 4.644-8.74 .414-2.877-.244-5.528-2.049-8.178l-4.832,3.892c.226,2.783 0,4.869-.752,6.335-.771,1.447-1.015,2.35-3.703,2.406-2.764-.057-9.023-1.129-12.463-2.406-3.498-1.354-6.486-3.572-8.178-5.207-1.73-1.636-2.389-3.103-2.051-4.475-3.27-.31-6.56-.61-9.85-.93z" stroke="#000" stroke-miterlimit="10" stroke-width=".036"/>
 <path d="m191.55,134.3c.319,1.579.996,3.121 2.03,4.832 .996,1.672 1.88,3.459 4.099,5.207 2.181,1.693 6.016,3.629 9.117,5.002 3.064,1.354 6.43,2.424 9.287,2.988 2.801.471 5.339.471 7.613,0 2.256-.432 4.268-1.146 5.959-2.801 1.617-1.824 3.516-5.207 3.893-7.613 .3-2.387-.245-4.644-1.843-6.693l-3.347,2.425c.264,1.825.264,3.385 0,4.833-.338,1.391-.508,2.818-1.672,3.703-1.147.828-2.275,1.578-5.209,1.316-3.045-.357-9.268-1.617-12.651-2.988-3.403-1.41-6.11-3.629-7.614-5.209-1.578-1.579-2.086-3.027-1.673-4.267-2.66-.25-5.33-.5-8-.74z" fill="#ffcf3b" stroke="#000" stroke-miterlimit="10" stroke-width=".036"/>
 <path d="m207.91,167.93c2.123-.715 4.098-2.275 6.128-4.832 1.992-2.576 4.399-6.504 5.771-10.414 1.259-3.986 2.012-8.309 2.05-13.197l7.801.188c.377,3.816.076,7.82-1.128,12.088-1.222,4.248-3.44,9.287-5.94,13.385-2.557,4.1-4.719,7.727-9.1,10.961-4.436,3.195-10.039,5.771-17.107,8.008l1.674-6.881c3.28-3.11 6.57-6.21 9.86-9.32z" stroke="#000" stroke-miterlimit="10" stroke-width=".036"/>
 <path d="m222.97,140.24c.226,2.199 0,4.775-.751,7.801-.809,2.971-2.389,7.295-3.723,10.227-1.41,2.914-2.65,5.357-4.455,7.256-1.842,1.824-3.986,3.064-6.505,3.725l-7.257,7.424-1.485,5.396c2.914-.996 5.546-2.199 8.177-3.535 2.557-1.41 4.832-2.256 7.257-4.643 2.407-2.406 5.114-6.279 7.257-9.664 2.143-3.459 4.08-6.785 5.377-10.791 1.203-4.041 1.823-8.365 1.86-13.195-1.94-.02-3.86-.02-5.77-.02z" fill="#ffcf3b" stroke="#000" stroke-miterlimit="10" stroke-width=".036"/>
 <path d="m146.47,154.87c-.959-.826-2.294-4.023-4.005-9.795-1.804-5.885-5.263-16.129-6.316-24.721-1.052-8.647-.921-18.874.188-26.394 1.052-7.52 2.989-12.407 6.316-18.216 3.365-5.828 8.159-11.6 13.573-16.374 5.338-4.794 12.37-9.156 18.404-12.069 6.035-2.971 10.189-4.794 17.465-5.396 7.181-.658 17.313-.414 25.473,1.673s16.787,5.922 23.047,10.772c6.148,4.906 10.152,11.843 13.762,18.047 3.516,6.109 5.828,10.753 7.445,18.217 1.598,7.388 3.082,17.183 2.219,25.83-.979,8.591-3.686,17.877-7.614,25.472-4.08,7.576-9.438,14.193-15.999,19.703-6.58,5.451-14.174,10.357-22.859,12.84-8.723,2.461-19.176,3.064-28.818,1.654-9.719-1.504-19.176-4.719-28.8-10.586-9.664-5.996-21.394-17.934-28.443-24.721-7.012-6.862-8.479-9.474-13.385-15.809-4.982-6.392-12.069-14.476-16.186-21.939-4.173-7.558-7.67-15.584-8.535-22.634-.865-7.068 2.049-13.968 3.44-19.325 1.335-5.358 3.553-8.949 4.549-12.652 .921-3.798 1.26-7.068 1.016-9.663-.32-2.612-.752-4.53-2.595-5.752-1.898-1.298-4.361-2.651-8.553-1.674-4.324.978-10.265,3.009-16.731,7.614-6.561,4.681-15.096,13.272-21.751,19.89-6.655,6.485-12.031,12.351-17.652,18.968-5.696,6.58-11.374,14.063-15.81,20.267-4.418,6.146-7.482,10.658-10.415,16.354-3.008,5.678-5.828,12.145-7.238,17.296-1.466,5.095-2.256,9.794-1.127,13.009 1.166,3.139 4.079,5.564 8.008,5.752 3.873.057 10.903-3.139 15.227-5.02 4.23-1.916 6.711-4.83 10.415-6.127 3.704-1.335 6.016-1.994 11.712-1.674 5.602.301 13.761.827 21.939,3.536 8.215,2.668 17.84,7.689 26.77,12.443 8.893,4.719 15.848,10.002 26.019,15.623 10.133,5.564 22.296,13.16 34.252,17.559 11.918,4.324 25.36,7.633 36.62,8.195 11.186.49 19.533-.545 30.117-5.207 10.565-4.813 23.988-12.633 32.729-22.879 8.647-10.264 15.81-25.266 18.95-38.049 3.025-12.858 1.467-27.315-.545-38.294-2.051-10.998-6.523-19.27-11.543-27.146-5.076-7.934-9.889-14.513-18.574-19.89-8.816-5.433-21.469-11.054-33.462-12.22-12.069-1.052-27.222,1.749-37.693,5.565-10.415,3.703-17.389,9.136-24.176,16.73-6.824,7.576-12.689,18.818-16.224,28.443-3.572,9.588-5.377,18.311-4.832,28.632 .526,10.302 3.158,20.979 7.971,32.617 4.09,3.84 8.18,7.67 12.27,11.53z"/>
 <path d="m142.09,149.3c-.978-1.881-1.956-4.943-3.158-9.475-1.26-4.55-3.215-10.04-3.91-17.483-.696-7.558-1.335-19.044-.169-27.146 1.09-8.046 3.403-14.852 6.862-20.999 3.441-6.185 8.497-11.411 13.573-15.886 4.982-4.53 10.208-7.764 16.186-10.79 5.884-3.064 11.562-6.072 19.137-7.068 7.633-1.016 17.258-.94 26.036,1.315 8.687,2.294 18.988,6.956 25.832,12.257 6.768,5.283 10.959,12.615 14.682,19.157 3.685,6.467 5.789,12.031 7.256,19.514 1.41,7.481 2.143,16.505 1.109,25.04-1.147,8.479-3.686,17.841-7.614,25.474-4.079,7.574-9.437,14.191-15.998,19.701-6.58,5.451-14.175,10.359-22.86,12.84-8.74,2.443-19.118,2.857-28.818,1.674-9.738-1.316-19.401-3.668-28.988-9.156-9.625-5.564-20.961-16.75-28.35-23.705-7.388-6.974-10.603-11.374-15.81-17.841-5.283-6.56-11.11-13.629-15.378-20.979-4.268-7.426-8.779-15.811-9.982-22.897-1.166-7.106 1.429-13.742 2.782-19.326 1.297-5.583 3.854-10.132 4.832-14.08 .827-4.004.921-7.294.564-9.869-.338-2.67-1.015-4.757-2.613-5.753-1.692-1.016-3.797-1.335-7.332-.245-3.609,1.072-7.99,2.219-13.949,6.693-6.016,4.474-15.152,13.31-21.75,19.908-6.655,6.467-12.032,12.37-17.652,18.949-5.696,6.58-11.374,14.063-15.811,20.266-4.418,6.147-7.482,10.659-10.415,16.355-2.952,5.678-5.94,12.219-7.238,17.296-1.41,4.963-2.068,9.813-.752,12.444 1.316,2.596 4.662,3.723 8.742,3.16 4.098-.715 10.96-4.814 15.434-6.863 4.343-2.049 6.58-4.267 10.772-5.208 4.173-.978 8.14-1.128 14.137-.376 5.959.732 13.423,2.068 21.375,5.019 7.952,2.932 17.088,7.99 25.661,12.633 8.422,4.605 14.833,9.494 24.815,14.965s22.954,13.254 34.572,17.482c11.581,4.1 23.386,6.898 34.196,7.238 10.696.262 19.626-.922 29.759-5.377 10.151-4.512 21.976-11.617 30.474-21.395 8.385-9.926 16.148-24.684 19.514-37.166 3.232-12.577 1.785-26.376 0-37.185-1.881-10.734-6.186-19.081-10.961-26.864-4.85-7.82-8.967-14.193-17.652-19.702-8.76-5.564-22.484-11.824-34.215-13.196-11.787-1.298-25.585,1.691-35.737,5.207-10.151,3.44-17.822,7.858-24.684,15.435-6.956,7.613-12.84,19.72-16.355,29.646-3.515,9.832-5.02,19.118-4.512,29.082 .508,9.945 2.951,19.871 7.482,30.209 2.3,2.4 4.59,4.75 6.88,7.12z" fill="#ffcf3b"/>
 <path d="m127.05,101.48c-.846.657-1.542,1.222-2.162,1.842-.639.526-1.297.563-1.541,1.71-.301,1.109-.226,3.158-.207,5.133-.038,1.974.338,4.793.263,6.654-.056,1.824-.075,3.233-.639,4.23-.677.922-1.955,1.467-3.177,1.278-1.203-.301-2.425-.921-4.173-2.802-1.861-1.954-4.85-5.809-6.711-8.516-1.898-2.764-3.102-5.696-4.474-7.557-1.41-1.843-2.726-2.99-3.948-3.441 .507,1.786.771,3.365.865,4.813 .094,1.409.169,2.668-.357,3.777-.639,1.016-3.778,1.486-3.252,2.576 .526,1.053 4.023,2.369 6.354,3.948 2.2,1.541 4.587,3.14 7.238,5.526 2.688,2.369 6.11,7.276 8.667,8.554 2.481,1.109 4.944-.019 6.298-1.277 1.297-1.204 1.354-3.045 1.485-6.035 .075-3.12-.958-8.836-.996-12.276-.07-3.4.06-6.09.47-8.12z"/>
 <path d="m126.26,103.06c-.338,1.522-.47,3.364-.47,5.451 0,2.105.301,4.719.47,7.05 .132,2.294.433,4.53.32,6.505-.169,1.898-.282,3.647-1.072,4.813-.827,1.071-2.387,2.162-3.741,1.898-1.466-.338-2.801-1.918-4.512-3.44-1.673-1.541-3.515-3.722-5.602-5.602-2.181-1.955-5.208-4.306-7.256-5.81-2.068-1.541-3.704-2.575-4.982-3.252 1.278-.075 2.124-.546 2.745-1.561 .526-1.015.827-2.5.696-4.455 .451,1.128 1.278,2.557 2.557,4.493 1.222,1.842 2.838,4.454 5.076,6.823 2.218,2.426 6.016,6.091 8.196,7.369 2.087,1.146 3.647.733 4.606-.226 .884-1.033 1.053-2.669 1.166-5.715 .132-3.102 0-7.145-.32-12.482 .67-.62 1.39-1.24 2.1-1.86z" fill="#c1c1c1"/>
 <path d="m190.07,88.563-7.256-2.613c-.545,3.929-1.56,8.779-2.971,14.701-1.485,5.902-4.361,14.155-5.583,20.622-1.278,6.41-2.613,13.292-1.673,17.672 .978,4.285 4.718,5.658 7.444,8.178 2.632,2.5 6.411,4.078 8.366,6.691 1.937,2.557 4.305,6.541 2.971,8.553-1.447,1.975-7.294,3.441-11.523,3.16-4.268-.396-9.475-2.105-13.949-5.209-4.568-3.178-10.039-8.291-13.009-13.385-2.97-5.113-4.323-9.606-4.644-17.107-.395-7.614 1.41-19.495 2.595-27.879 1.165-8.404 2.65-16.845 4.455-22.128 1.749-5.264 3.797-7.914 6.147-9.475 2.294-1.692 5.169-.996 7.614-.376 2.387.582 5.32,2.124 6.692,3.91 1.316,1.729 1.749,3.872 1.297,6.505l6.504.921c.545-3.554.451-6.43-.357-8.911-.846-2.463-2.144-4.117-4.474-5.771-2.387-1.748-6.053-3.778-9.475-4.268-3.534-.526-7.782-.658-11.148,1.485-3.383,2.125-6.128,3.967-8.742,11.336-2.707,7.426-5.714,22.672-7.068,32.542-1.354,9.813-1.73,18.085-.921,25.83 .751,7.688 2.462,14.438 5.564,19.889 3.083,5.357 8.103,9.043 13.028,12.275 4.925,3.178 11.186,5.811 16.167,6.881 4.869,1.016 9.475.527 13.009-.752 3.534-1.316 6.297-4.248 7.99-7.068 1.615-2.932 2.631-6.785 1.672-10.037-1.053-3.273-4.605-6.486-7.613-9.287-3.064-2.84-8.667-3.873-10.415-7.445-1.729-3.647-1.053-7.821 0-14.118 1.015-6.449 4.324-17.859 5.941-23.801 1.56-5.877 2.64-9.693 3.37-11.497z" stroke="#000" stroke-miterlimit="10" stroke-width=".036"/>
 <path d="m182.06,80.76c.978-1.09 1.241-2.669.939-4.662-.414-2.067-.751-5.319-2.97-7.426-2.313-2.161-6.712-4.474-10.227-5.207-3.534-.809-7.2-.921-10.414.752-3.253,1.617-6.129,3.892-8.554,9.287-2.463,5.471-4.305,15.472-5.753,23.048-1.485,7.52-2.444,14.758-2.801,21.563-.357,6.749-.037,13.065.752,18.593 .771,5.433 1.654,9.794 3.891,13.949 2.181,4.137 4.775,7.313 9.306,10.771 4.511,3.404 11.918,8.066 17.652,9.494 5.696,1.26 12.181.396 16.186-1.504 3.948-1.936 6.335-6.768 7.237-9.85 .771-3.141-.564-6.168-2.406-8.723-1.88-2.633-6.016-4.813-8.553-6.693-2.632-1.898-5.32-2.18-6.693-4.473-1.354-2.388-1.617-5.453-1.297-9.476 .282-4.117 1.204-7.633 2.97-14.683 1.768-7.087 4.173-16.054 7.426-27.334l-5.208-1.297c-.131,2.274-.808,5.922-2.03,11.147-1.335,5.245-4.08,14.175-5.396,19.89-1.259,5.621-1.955,10.114-2.237,13.761-.376,3.555-1.09,5.359.188,7.802 1.26,2.482 4.832,4.605 7.445,6.881 2.594,2.18 6.053,4.117 7.99,6.316 1.86,2.199 3.121,4.699 3.346,6.691 .15,1.938-.545,3.555-2.237,4.852-1.749,1.221-4.267,2.463-7.989,2.406-3.854-.133-9.531-.508-14.495-3.16-5-2.764-11.242-7.727-14.871-13.008-3.609-5.34-5.583-12.068-6.504-18.592-.846-6.599.301-13.441 1.109-20.453 .733-7.013 1.786-15.115 3.159-21.188 1.335-6.166 2.951-11.43 4.644-15.058 1.598-3.591 3.027-5.188 5.02-6.316 1.973-1.166 4.568-.753 6.692-.564 2.106.15 4.004.451 5.771,1.485 1.73.996 3.346,2.632 4.268,4.475 .827,1.785 1.053,3.891.752,6.316 1.28.039 2.58.095 3.88.17z" fill="#ffcf3b" stroke="#000" stroke-miterlimit="10" stroke-width=".036"/>
 <path d="m204,136.9-7.426-2.237c-2.802,5.996-5.604,10.527-8.554,13.949-2.971,3.365-5.696,5.264-9.118,6.129-3.554.77-8.404,1.26-11.712-1.297-3.346-2.613-6.712-9.457-7.99-14.139-1.297-4.736-1.146-9.304.376-13.929-2.387-.32-4.155-.508-5.583-.564-1.41-.056-2.313-.019-2.782.188-.376.902-.508,2.895-.188,6.128 .244,3.195.696,9.156 1.861,13.027 1.128,3.818 2.369,6.863 5.019,9.852s6.11,6.58 10.584,7.801c4.38,1.072 11.11.451 15.622-.92 4.474-1.354 7.783-3.084 11.148-7.068 3.34-4.05 6.18-9.61 8.74-16.92z" stroke="#000" stroke-miterlimit="10" stroke-width=".036"/>
 <path d="m202.51,137.08-5.396-1.485c-1.73,5.019-3.985,9.023-6.692,12.445-2.745,3.385-5.771,6.41-9.663,7.633-4.004,1.129-9.945,1.748-13.761-.752-3.817-2.613-7.256-9.344-8.723-14.307-1.485-4.944-1.485-9.888 0-15.057-1.185-.32-2.237-.546-3.158-.753-.94-.226-1.749-.433-2.426-.545-.545,1.429-.733,3.628-.563,6.674 .113,3.026.414,7.82 1.485,11.542 .978,3.686 2.255,7.502 4.85,10.584 2.595,3.064 6.26,6.523 10.772,7.633 4.531,1.016 11.599.018 15.98-1.316 4.249-1.334 6.542-3.008 9.494-6.691 2.93-3.72 5.42-8.87 7.8-15.59z" fill="#ffcf3b" stroke="#000" stroke-miterlimit="10" stroke-width=".036"/>
 <path d="m228.76,91.044c.095-.658-.263-1.204-1.146-1.861-.939-.658-2.03-1.335-4.136-1.955-2.181-.658-5.753-1.278-8.479-1.861-2.745-.64-5.357-.846-7.632-1.711-2.332-.884-4.662-1.767-6.054-3.44-1.409-1.748-2.274-3.947-2.162-6.824 .095-2.913.79-8.083 2.669-10.509 1.861-2.481 4.813-3.76 8.348-4.136 3.459-.356 8.252.865 12.275,1.861 4.004.94 8.742,2.144 11.468,3.685 2.688,1.504 4.079,3.309 4.455,5.414l-4.831,1.522c.168-.676-1.016-1.409-3.629-2.406-2.707-1.015-8.686-2.763-12.05-3.439-3.347-.733-5.903-1.091-7.821-.64-1.955.451-2.951,1.918-3.703,3.309-.771,1.373-1.109,3.347-.939,4.832 .112,1.372-.113,2.632 1.654,3.703 1.711,1.09 5.658,1.974 8.723,2.801 3.045.733 6.598,1.392 9.362,1.975 2.688.563 5.15.752 6.805,1.579 1.599.732 2.257,1.729 2.989,3.064 .695,1.353 1.033,3.026 1.09,5.094l-7.24-.057z"/>
 <path d="m235.06,90.781c.112-1.372-.188-2.67-.827-3.816-.658-1.203-1.24-2.406-3.121-3.252-1.975-.902-5.357-1.297-8.402-1.975-3.121-.714-7.201-1.391-9.928-2.104-2.801-.771-5.019-1.147-6.447-2.294-1.43-1.203-2.012-2.839-1.975-4.7-.056-1.936.922-4.925 1.918-6.429 .978-1.523 2.143-2.181 4.005-2.481 1.823-.339 4.041.112 6.88.639 2.783.564 7.482,1.748 9.813,2.463 2.255.64 2.782.846 3.816,1.278 1.034.301 1.654.545 2.294.959 .564.432.921.959 1.146,1.654l3.496-1.016c-.225-1.146-.959-2.181-2.35-3.252-1.391-1.053-3.29-2.162-5.922-3.046-2.688-.958-7.105-1.86-10.058-2.481-3.026-.639-5.471-1.24-7.765-1.222-2.387,0-4.455.357-6.128,1.278-1.654.865-2.951,1.861-3.815,4.005-.959,2.067-1.655,6.071-1.58,8.534 .037,2.444.733,4.456 2.162,6.11 1.447,1.541 3.591,2.632 6.43,3.571 2.782.921 7.745,1.598 10.246,2.105 2.387.414 2.838.451 4.324.827 1.446.376 3.421,1.053 4.473,1.598 1.016.508 1.297.922 1.711,1.448 .376.507.564.996.564,1.541l5.04.058z" fill="#ffcf3b"/>
 <path d="m229.4,140.15c3.064.713 6.129,1.428 9.193,2.123 1.033.244 2.143-.713 2.481-2.162 3.14-13.61 6.278-27.221 9.437-40.85 .32-1.429-.244-2.783-1.277-3.027-3.064-.695-6.129-1.41-9.193-2.105l-.62,2.557c2.368.545 5.113,1.185 7.481,1.729 .809.188 1.223,1.354.94,2.595-2.745,11.938-5.509,23.856-8.253,35.775-.301,1.24-1.186,2.104-1.992,1.936-2.369-.564-5.113-1.185-7.482-1.73l-.72,3.16z" stroke="#000" stroke-miterlimit="10" stroke-width=".036"/>
 <path d="m230.24,139.58c3.063.695 4.549,1.053 7.613,1.748 1.033.244 2.181.057 2.5-1.373 3.14-13.628 6.298-27.239 9.438-40.85 .338-1.429-.32-2.049-1.354-2.294-3.063-.714-4.831-1.108-7.896-1.823l-.264,1.166c2.369.545 5.02,1.165 7.389,1.71 .809.188 1.146,2.05.846,3.31-2.744,11.918-5.489,23.837-8.253,35.756-.282,1.259-1.561,2.858-2.368,2.668-2.389-.545-4.906-1.033-7.295-1.578l-.36,1.55z" fill="#c1c1c1" stroke="#000" stroke-miterlimit="10" stroke-width=".036"/>
 <path transform="matrix(.2248,-.9744,.9744,.2248,62.332,273.06)" d="m199.52 77.352h6.521v39.998h-6.521z"/>
 <path d="m183.79 90.706-1 4.286 38.99 9.008 1-4.29z" fill="#c1c1c1"/>
 <path transform="matrix(.2249,-.9744,.9744,.2249,71.664,268.81)" d="m201.53 69.353h6.521v40.016h-6.521z"/>
 <path d="m185.78,82.716-.98,4.286 38.98,9.005 .99-4.286z" fill="#c1c1c1"/>
 <path d="m186.03,81.682c-1.466-.376-2.707-.847-3.797-1.41-1.09-.602-1.88-.996-2.669-2.124-.846-1.166-1.523-2.05-2.181-4.832-.695-2.914-1.053-8.459-1.805-12.068-.79-3.647-.771-6.562-2.914-9.531-2.237-3.027-6.035-7.05-10.17-8.441-4.174-1.447-10.453-1.711-14.701.075-4.324,1.805-8.704,6.486-10.81,10.716-2.105,4.211-2.293,10.039-1.729,14.362 .545,4.268 2.35,7.934 4.906,11.073 2.463,3.008 5.733,5.188 9.889,7.256 4.174,2.05 9.023,3.723 14.908,5.095 3.102.771 5.979,1.448 8.986,2.181 2.914.715 7.144,1.599 8.628,1.993 1.429.319 1.429.319 0,0l1.467-6.354c-4.55-1.146-9.324-2.35-14.55-3.816-5.302-1.447-12.54-2.857-16.712-4.813-4.174-2.03-6.336-4.229-8.083-7.181-1.843-3.008-2.745-7.163-2.632-10.434 .131-3.328 1.842-6.862 3.459-9.08 1.56-2.256 3.553-3.609 5.903-4.268 2.255-.658 5.414-.602 7.801.169 2.369.733 4.756,2.388 6.354,4.099 1.504,1.636 2.388,3.666 3.008,5.809 .564,2.087.489,4.399.714,6.711 .207,2.257-.094,4.399.546,6.73 .601,2.313 1.804,4.851 3.102,6.899 1.278,1.955 2.444,3.591 4.437,4.906 1.936,1.241 4.305,2.144 7.181,2.632l1.44-6.354z"/>
 <path d="m185.99,82.753c-1.768-.376-3.272-.884-4.513-1.522s-2.124-.921-3.008-2.369c-.997-1.579-1.899-3.534-2.632-6.806-.733-3.346-.997-9.512-1.73-12.99-.846-3.459-1.241-5.526-2.989-7.801-1.786-2.388-4.493-4.813-7.539-6.186-3.158-1.354-7.163-2.425-10.716-1.898s-7.557,2.105-10.264,4.813c-2.764,2.688-5.076,6.881-5.997,10.979-.978,4.061-.771,8.968.545,12.99 1.354,3.948 3.797,7.501 7.538,10.453 3.704,2.857 9.062,4.888 14.626,6.805 5.508,1.899 14.306,3.609 18.348,4.625 3.986.939 5.733,1.335 5.451,1.185l1.09-4.268c-7.031-1.561-13.103-2.951-18.441-4.456-5.358-1.484-9.907-2.575-13.441-4.361-3.572-1.823-5.978-4.117-7.801-6.447-1.899-2.407-2.727-5.265-3.271-7.708-.583-2.481-.583-4.493 0-6.899 .602-2.463 1.654-5.508 3.44-7.539 1.73-2.011 4.249-3.835 6.899-4.455 2.614-.677 6.073-.357 8.629.451 2.481.79 4.568,2.52 6.185,4.174 1.523,1.579 2.407,3.083 3.083,5.451 .621,2.351.451,5.865.733,8.441 .226,2.443-.019,4.061.714,6.373 .714,2.274 2.163,5.395 3.553,7.256 1.241,1.824 2.595,2.651 4.342,3.704 1.786,1.033 3.798,1.748 6.26,2.35l.92-4.345z" fill="#ffcf3b"/>
 <path d="m225.02,90.687c.281-.038.658.075 1.127.338 .451.244.997.64 1.637,1.185l-.715,4.361c-.414.169-.902.264-1.467.357-.602.057-1.26.094-2.049.112 .48-2.105.97-4.229 1.46-6.353z"/>
 <path d="m224.66,91.683c.602.15 1.127.414 1.578.715 .414.301.827.639 1.091,1.09l-.64,2.274c-.469.113-.978.226-1.447.264-.508.019-1.053.037-1.56-.019 .32-1.428.64-2.877.98-4.324z" fill="#ffcf3b"/>
 <path d="m221.54,105.03c1.053.244 2.087.433 3.027.413 .902.02 1.522-.169 2.594-.413 1.053-.301 2.256-.751 3.686-1.354l-2.087-3.215c-.583-.357-1.354-.677-2.313-.959s-2.105-.582-3.44-.827l-1.47,6.356z"/>
 <path d="m221.46,103.94c1.164.301 2.255.471 3.27.508 1.034-.056 1.918-.188 2.802-.395 .827-.226 1.579-.47 2.256-.809l-1.354-2.199c-.752-.207-1.579-.451-2.558-.658-.996-.263-2.124-.489-3.383-.752-.34,1.422-.68,2.852-1.04,4.302z" fill="#ffcf3b"/>
 <path d="m224.45,98.226c0,4.831 3.91,8.741 8.742,8.741 4.813,0 8.723-3.91 8.723-8.741 0-4.813-3.91-8.742-8.723-8.742-4.83-.003-8.74,3.926-8.74,8.739z"/>
 <path d="m226.07,98.3c0,3.985 3.213,7.2 7.199,7.2 3.967,0 7.182-3.215 7.182-7.2 0-3.967-3.215-7.181-7.182-7.181-3.99.001-7.2,3.214-7.2,7.181z" fill="#c1c1c1"/>
 <path d="m229.92,98.338c0,1.898 1.541,3.44 3.439,3.44 1.881,0 3.422-1.542 3.422-3.44 0-1.88-1.541-3.422-3.422-3.422-1.9-.001-3.44,1.54-3.44,3.42z"/>
 <path d="m230.56 98.375c0 1.561 1.26 2.82 2.82 2.82s2.838-1.26 2.838-2.82-1.277-2.819-2.838-2.819-2.82 1.254-2.82 2.814z" fill="#c1c1c1"/>
 <path d="m183.51,90.499-1.15,4.643 .75.189 1.17-4.625z"/>
 <path d="m185.71,82.584-1.15,4.644 .75.188 1.17-4.644z"/>
 <path d="m224.13,91.458-1.15,4.625 .76.206 1.16-4.643z"/>
 <path d="m222.1,99.448-1.16,4.642 .77.19 1.14-4.646z"/>
 <path d="m181.57 99.034-1.47 6.356 38.99 9 1.47-6.37z"/>
 <path d="m181.33,100.07-.98,4.28 38.97,9.01 1-4.31z" fill="#c1c1c1"/>
 <path transform="matrix(.2249,-.9744,.9744,.2249,42.559,282.53)" d="m195.62 94.516h6.521v39.998h-6.521z"/>
 <path d="m179.88 107.87-1 4.29 38.99 9 1-4.29z" fill="#c1c1c1"/>
 <path d="m181.57,99.034c-1.222-.357-2.519-.583-3.816-.527-1.373-.019-2.933.057-4.099.659-1.203.582-2.105,1.767-2.708,2.97-.601,1.147-.827,2.764-.751,3.985 .056,1.204.357,2.256 1.053,3.234 .658.901 1.654,1.654 2.914,2.33 1.203.658 2.726,1.109 4.493,1.504l1.467-6.354c-.602-.037-.978-.15-1.335-.338-.414-.227-.714-.62-.677-.827 .094-.301.563-.451.978-.527 .319-.036.658.019 1.015.245 .49-2.1.98-4.22 1.47-6.346z"/>
 <path d="m182.14,100.22c-.751-.188-1.654-.301-2.575-.489-.94-.188-2.331-.357-3.553-.169-1.203.188-2.669.771-3.478,1.823-.809,1.034-1.486,3.083-1.354,4.512s.714,2.952 2.143,4.042c1.429,1.072 3.497,1.86 6.317,2.406l1.034-4.342c-1.447-.264-2.481-.603-3.158-1.054s-1.053-1.128-.903-1.579 1.034-.996 1.805-1.128c.752-.15 1.429.057 2.481.396l1.24-4.42z" fill="#ffcf3b"/>
 <path d="m220.45,108.02c.263-.057.695.112 1.146.356 .451.245.996.64 1.635,1.185l-.732,4.362c-.376.169-.883.263-1.447.356-.582.057-1.297.113-2.068.096 .48-2.11.97-4.24 1.46-6.36z"/>
 <path d="m220.11,109.02c.601.15 1.128.413 1.579.714 .413.301.826.641 1.09,1.091l-.639,2.274c-.471.132-.979.226-1.447.282-.508.019-1.053.038-1.561-.019 .32-1.44.64-2.89.98-4.33z" fill="#ffcf3b"/>
 <path d="m216.67,121.97c.827.206 1.768.318 2.744.337 .96-.037 2.031-.074 3.141-.337s2.162-.791 3.383-1.373l-2.105-3.233c-.563-.301-1.316-.583-2.256-.846-.958-.282-2.105-.602-3.439-.884l-1.45,6.33z"/>
 <path d="m216.56,120.86c1.129.318 2.238.433 3.254.488 .977-.019 1.936-.169 2.801-.376 .864-.226 1.598-.47 2.273-.808l-1.353-2.2c-.696-.207-1.599-.451-2.557-.658-.978-.264-2.162-.508-3.403-.732-.34,1.43-.67,2.86-1.01,4.29z" fill="#ffcf3b"/>
 <path d="m220.73 115.52c0 4.832 3.91 8.742 8.742 8.742s8.741-3.91 8.741-8.742-3.909-8.74-8.741-8.74-8.74 3.91-8.74 8.74z"/>
 <path d="m222.35 115.6c0 3.966 3.232 7.2 7.199 7.2s7.2-3.234 7.2-7.2-3.233-7.2-7.2-7.2-7.2 3.23-7.2 7.2z" fill="#c1c1c1"/>
 <path d="m226.22 115.63c0 1.899 1.521 3.422 3.42 3.422s3.422-1.522 3.422-3.422-1.521-3.422-3.422-3.422-3.42 1.53-3.42 3.42z"/>
 <path d="m226.86 115.67c0 1.56 1.26 2.819 2.82 2.819s2.818-1.26 2.818-2.819-1.259-2.819-2.818-2.819-2.82 1.26-2.82 2.82z" fill="#c1c1c1"/>
 <path d="m158.5,101.65c0,3.685 2.989,6.673 6.674,6.673s6.674-2.989 6.674-6.673c0-3.667-2.989-6.655-6.674-6.655-3.68-.003-6.67,2.986-6.67,6.655z"/>
 <path d="m160.59,101.74c0,3.008 1.88,4.606 4.888,4.606s5.264-1.674 5.264-4.7c0-3.009-2.463-4.851-5.49-4.851-3.01-.003-4.66,1.915-4.66,4.941z" fill="#fff"/>
 <path d="m181.76,99.974-1.15,4.626 .75.2 1.17-4.64z"/>
 <path d="m180.46,107.78-1.14,4.64 .75.19 1.16-4.65z"/>
 <path d="m217.25,116.31-1.15,4.62 .76.19 1.16-4.62z"/>
 <path d="m219.64,108.75-1.15,4.65 .75.18 1.17-4.64z"/>
 <path transform="matrix(.2249,-.9744,.9744,.2249,32.057,287.13)" d="m193.26 103.41h6.521v40.012h-6.521z"/>
 <path d="m177.53,116.76-1,4.31 38.99,9 .98-4.3z" fill="#c1c1c1"/>
 <path transform="matrix(.2249,-.9744,.9744,.2249,22.492,291.44)" d="m191.17 111.58h6.521v40.015h-6.521z"/>
 <path d="m175.42,124.94-.97,4.28 38.97,9.01 .99-4.29z" fill="#c1c1c1"/>
 <path d="m177.76,115.75c-3.027-.827-6.279-1.636-9.945-2.406-3.666-.79-7.971-1.843-11.825-2.274-3.835-.413-7.745-.959-11.017-.245-3.252.733-5.865,2.313-8.422,4.55-2.538,2.218-5.358,5.076-6.711,8.741-1.354,3.686-2.105,8.009-1.297,13.122 .846,5.114 3.196,12.108 6.223,17.221 3.045,5.094 5.997,8.609 11.825,13.121 5.884,4.531 15.547,10.941 23.01,13.742 7.463,2.781 15.114,4.23 21.375,2.84 6.242-1.449 12.578-6.73 15.791-11.262 3.178-4.549 3.572-10.865 3.234-15.717-.357-4.83-2.295-9.775-5.34-13.027-3.082-3.232-8.271-5.281-12.877-6.242-4.605-.939-9.813-.45-14.494.564-4.663,1.055-9.381,4.25-13.272,5.604-3.892,1.316-7.068,2.404-9.889,2.35-2.82-.096-5.094-1.186-6.88-2.764-1.786-1.598-3.365-4.117-3.723-6.711-.357-2.613-.244-6.787 1.617-8.724 1.898-1.954 6.204-2.781 9.55-2.838 3.365-.076 6.542,1.354 9.832,2.293 3.271.94 6.486,1.692 9.682,2.576l1.466-6.354c-3.892-1.204-7.595-2.125-11.562-3.027-3.948-.922-7.99-1.918-11.674-1.73-3.685.207-7.651.94-10.208,2.99-2.557,2.086-4.512,5.64-5.02,9.323-.489,3.667.245,9.024 2.012,12.54 1.805,3.516 4.549,7.145 8.591,8.348 4.061,1.184 10.132.188 15.547-1.203 5.433-1.449 11.035-6.279 16.694-7.219 5.659-.904 12.991.188 16.919,1.785 3.872,1.617 5.396,4.211 6.241,7.764 .789,3.592.451,9.514-1.391,13.459-1.861,3.912-5.772,8.141-9.626,9.871-3.872,1.711-7.614,1.861-13.367.318-5.771-1.559-14.231-4.586-20.886-9.549-6.654-5-14.945-13.592-18.63-20.078-3.647-6.504-4.079-13.705-3.158-18.555 .94-4.831 5.189-8.346 8.667-10.282 3.478-1.899 8.291-1.467 11.976-1.128s5.884,1.165 9.155,1.937 6.673,1.636 10.339,2.632l1.46-6.33z"/>
 <path d="m178,116.88c-2.669-.677-5.396-1.316-8.403-1.992-3.064-.733-6.128-1.504-9.475-2.105-3.346-.64-7.482-1.467-10.453-1.467-3.026-.057-5.169.433-7.519,1.467-2.444,1.053-4.756,2.782-6.73,4.906-1.993,2.087-3.929,4.605-4.944,7.632-1.128,3.009-1.56,6.58-1.222,10.434 .395,3.835 1.974,8.591 3.497,12.314 1.429,3.609 2.838,6.41 5.17,9.492 2.293,3.064 5.132,6.055 8.516,8.893 3.365,2.857 7.369,5.451 11.505,7.934 4.06,2.426 8.083,4.795 12.783,6.449 4.681,1.578 10.603,2.988 15.152,2.932 4.474-.15 8.291-1.654 11.656-3.572 3.327-1.918 6.373-4.682 8.347-7.857 1.917-3.291 2.97-7.65 3.232-11.336 .207-3.723-.751-7.764-1.785-10.604-1.053-2.857-2.537-4.682-4.455-6.41-2.05-1.805-4.775-3.178-7.369-4.117-2.595-.959-5.151-1.447-8.104-1.467-3.045-.113-6.429.188-9.794,1.053-3.44.885-6.918,2.84-10.283,4.137-3.422,1.223-6.655,2.65-9.625,3.195-2.914.508-5.508.789-7.858-.318-2.481-1.297-5.32-4.27-6.561-6.807s-1.241-5.94-.733-8.177c.432-2.294 1.673-4.192 3.722-5.339 2.087-1.204 5.358-1.749 8.591-1.636 3.159.075 6.9,1.391 10.283,2.218 3.291.827 6.486,1.617 9.588,2.576l.978-4.286c-3.233-.922-6.542-1.823-10.001-2.632-3.572-.884-7.332-2.105-10.771-2.35-3.478-.245-6.899-.038-9.475,1.053-2.538,1.128-4.399,3.252-5.659,5.433-1.335,2.087-1.937,4.512-1.955,7.2-.038,2.669.564,6.073 1.955,8.911 1.391,2.781 3.741,6.203 6.317,7.801 2.5,1.486 5.357,1.578 8.647,1.373 3.271-.264 7.257-1.373 10.867-2.594 3.553-1.297 7.125-3.76 10.282-4.852 3.083-1.127 5.132-1.711 8.253-1.748 3.159-.037 7.237.545 10.283,1.467 2.896.809 5.472,1.691 7.22,3.742 1.691,2.104 2.688,5.168 2.914,8.477 .131,3.215.262,6.975-1.861,10.697-2.2,3.684-6.692,9.4-10.941,11.279-4.342,1.748-9.25.789-14.494-.488-5.264-1.316-11.769-4.174-16.675-7.125-4.963-3.01-9.344-7.482-12.558-10.527-3.214-3.121-4.38-4.605-6.392-7.727-2.049-3.16-4.549-7.127-5.677-10.887-1.147-3.815-1.692-8.233-1.128-11.58 .508-3.403 2.274-6.185 4.286-8.422 1.993-2.275 4.55-3.816 7.445-4.7 2.839-.864 6.241-.639 9.494-.338 3.233.227 6.26.996 9.794,1.805 3.459.771 7.125,1.73 10.998,2.876 .35-1.39.72-2.82 1.1-4.24z" fill="#ffcf3b"/>
 <path d="m216.69,124.84c.074-.188.45-.076 1.127.338 .658.432 1.579,1.053 2.839,2.068l-1.917,3.478c-.395.188-.884.281-1.467.357-.639.056-1.373.019-2.199-.038 .53-2.07 1.07-4.14 1.62-6.21z"/>
 <path d="m216.33,125.73c.488.095.921.338 1.578.732 .602.377 1.241.903 1.993,1.58l-1.542,1.767c-.469.132-.977.226-1.447.282-.508.019-1.053.037-1.561-.02 .32-1.45.64-2.89.98-4.34z" fill="#ffcf3b"/>
 <path d="m212.85,139.19c.846.244 1.768.338 2.764.357 1.016-.02 1.992-.113 3.141-.357 1.108-.264 2.162-.789 3.383-1.373l-2.105-3.215c-.564-.301-1.316-.583-2.256-.847-.959-.318-2.105-.62-3.44-.901l-1.47,6.34z"/>
 <path d="m212.76,138.1c1.128.302 2.236.49 3.252.49 .979-.057 1.937-.188 2.802-.396 .864-.225 1.599-.488 2.274-.789l-1.354-2.199c-.695-.244-1.598-.471-2.557-.677-.979-.264-2.162-.508-3.403-.733-.33,1.43-.67,2.86-1.01,4.31z" fill="#ffcf3b"/>
 <path d="m217.38 132.98c0 4.832 3.91 8.742 8.741 8.742s8.742-3.91 8.742-8.742c0-4.813-3.911-8.723-8.742-8.723s-8.74 3.91-8.74 8.72z"/>
 <path d="m219 133.06c0 3.986 3.233 7.2 7.2 7.2 3.985 0 7.2-3.213 7.2-7.2 0-3.967-3.215-7.182-7.2-7.182-3.97 0-7.2 3.21-7.2 7.18z" fill="#c1c1c1"/>
 <path d="m222.87 133.12c0 1.88 1.523 3.421 3.422 3.421s3.441-1.541 3.441-3.421c0-1.898-1.543-3.44-3.441-3.44s-3.42 1.54-3.42 3.44z"/>
 <path d="m223.51 133.14c0 1.561 1.26 2.82 2.818 2.82s2.82-1.26 2.82-2.82-1.26-2.819-2.82-2.819-2.82 1.26-2.82 2.82z" fill="#c1c1c1"/>
 <path d="m177.49,116.44-1.15,4.63 .76.2 1.16-4.64z"/>
 <path d="m175.33,124.66-1.17,4.64 .78.19 1.14-4.65z"/>
 <path d="m213.32,133.47-1.16,4.63 .77.2 1.15-4.64z"/>
 <path d="m215.97,125.45-1.16,4.64 .77.19 1.15-4.63z"/>
 <path d="m240.83,99.448 9.418,2.181c.789.319 1.992.45 3.684.319 1.674-.169 3.949-1.091 6.242-1.166 2.273-.112 4.906.075 7.086.715 2.088.658 4.475,1.673 5.34,3.196 .715,1.541.15,4.398-.602,5.732-.77,1.222-1.992,1.824-3.891,1.73-2.012-.095-5.301-1.146-7.84-2.219-2.613-1.165-5.603-3.327-7.369-4.305-1.768-.959-2.819-1.448-3.158-1.392l-9.418-2.162 .51-2.642z" stroke="#000" stroke-miterlimit="10" stroke-width=".036"/>
 <path d="m241.26,100.33 8.986,2.068c1.259.281 2.65.451 4.322.357 1.637-.113 3.479-.752 5.527-.827 1.993-.15 4.55-.076 6.506.45 1.973.564 4.211,1.674 5.111,2.896 .771,1.186.434,3.083-.299,4.099-.791.94-2.559,1.447-4.211,1.523-1.73,0-3.572-.564-5.81-1.468-2.274-.958-5.508-3.252-7.388-4.191-1.861-.958-3.14-1.561-3.76-1.654l-9.23-2.144c.07-.37.14-.74.24-1.12z" fill="#c1c1c1" stroke="#000" stroke-miterlimit="10" stroke-width=".036"/>
 <path d="m236.92,116.4 9.419,2.181c.789.32 1.992.452 3.684.32 1.674-.17 3.949-1.091 6.242-1.166 2.236-.112 4.963.076 7.087.715 2.104.657 4.437,1.673 5.321,3.195 .752,1.542.168,4.399-.584,5.733-.771,1.223-1.992,1.823-3.891,1.73-2.012-.094-5.301-1.147-7.84-2.219-2.613-1.165-5.602-3.327-7.369-4.305-1.768-.959-2.801-1.447-3.178-1.392l-9.398-2.161c.17-.86.34-1.74.51-2.63z" stroke="#000" stroke-miterlimit="10" stroke-width=".036"/>
 <path d="m237.35,117.29 8.986,2.068c1.26.282 2.65.451 4.322.357 1.637-.112 3.479-.752 5.527-.827 1.992-.15 4.55-.075 6.505.451 1.974.564 4.21,1.673 5.114,2.896 .77,1.184.432,3.082-.301,4.098-.791.94-2.557,1.448-4.211,1.522-1.73,0-3.572-.563-5.81-1.466-2.274-.959-5.509-3.253-7.388-4.192-1.861-.959-3.14-1.561-3.76-1.654l-9.23-2.143c.07-.37.14-.75.24-1.12z" fill="#c1c1c1" stroke="#000" stroke-miterlimit="10" stroke-width=".036"/>
 <path d="m233.93,133.83 9.418,2.161c.828.358 2.012.471 3.704.339 1.692-.15 3.91-1.146 6.223-1.186 2.237-.131 4.944.114 7.105.733 2.067.62 4.493,1.654 5.319,3.177 .715,1.504.152,4.438-.602,5.754-.732,1.24-1.973,1.785-3.872,1.709-2.03-.131-5.301-1.109-7.858-2.199-2.631-1.166-5.564-3.328-7.35-4.305-1.768-.959-2.801-1.447-3.178-1.391l-9.418-2.181c.17-.85.34-1.71.51-2.6z" stroke="#000" stroke-miterlimit="10" stroke-width=".036"/>
 <path d="m234.38,134.72 8.967,2.067c1.241.301 2.688.414 4.343.338 1.654-.112 3.44-.771 5.509-.808 1.992-.094 4.549-.113 6.504.451 1.955.545 4.249,1.673 5.133,2.876 .752,1.164.451,3.119-.32,4.117-.809.939-2.519,1.447-4.191,1.521-1.691-.018-3.609-.582-5.828-1.484-2.274-.959-5.508-3.254-7.389-4.193-1.879-.977-3.101-1.522-3.74-1.634l-9.25-2.144c.08-.38.17-.76.27-1.13z" fill="#c1c1c1" stroke="#000" stroke-miterlimit="10" stroke-width=".036"/>
 <path d="m228.18 72.903c0 4.38 3.553 7.933 7.952 7.933 4.38 0 7.933-3.553 7.933-7.933 0-4.399-3.553-7.952-7.933-7.952-4.4 0-7.95 3.552-7.95 7.952z"/>
 <path d="m229.64,72.959c0,3.628 2.934,6.561 6.543,6.561 3.628,0 6.542-2.933 6.542-6.561 0-3.61-2.914-6.543-6.542-6.543-3.61.001-6.54,2.934-6.54,6.543z" fill="#c1c1c1"/>
 <path d="m233.16 72.997c0 1.729 1.392 3.121 3.12 3.121s3.121-1.392 3.121-3.121c0-1.711-1.391-3.102-3.121-3.102s-3.12 1.391-3.12 3.102z"/>
 <path d="m233.74,73.035c0,1.409 1.146,2.557 2.557,2.557 1.428,0 2.576-1.147 2.576-2.557 0-1.429-1.147-2.576-2.576-2.576-1.41-.001-2.56,1.147-2.56,2.576z" fill="#c1c1c1"/>
</svg>
