<?xml version="1.0" encoding="UTF-8"?>
<svg enable-background="new 0 0 533.268 164.968" viewBox="0 0 533.268 164.968" xmlns="http://www.w3.org/2000/svg">
 <path d="m118.65 81.398c2.981 0 5.4 2.096 5.4 4.68s-2.419 4.68-5.4 4.68-5.4-2.097-5.4-4.68 2.419-4.68 5.4-4.68" fill="#fff" fill-rule="evenodd"/>
 <path d="m142.614,122.362c-7.812-.145-13.788-2.196-18.216-6.013-4.464-4.031-7.308-10.548-8.1-17.172-.936-6.768.756-16.632 3.132-22.392 2.34-5.796 6.084-8.856 10.944-11.7 4.752-2.88 10.044-4.572 17.424-5.472 7.416-1.008 15.912-1.224 26.316-.504l-2.628-8.1c-11.772-1.224-21.78-1.008-30.708.792-8.892,1.62-16.452,4.644-22.392,9.648-6.084,5.004-11.196,12.924-13.536,20.556-2.304,7.668-2.52,17.244-.252,24.984 2.16,7.632 5.508,15.731 13.536,20.556 8.028,4.644 19.296,7.164 34.344,7.56-3.276-4.247-6.552-8.495-9.864-12.743z" fill-rule="evenodd" stroke="#000" stroke-miterlimit="10" stroke-width=".036"/>
 <path d="m144.954,123.91c-6.3.684-11.628-.181-16.416-2.592-4.86-2.412-9.54-6.408-11.952-11.988-2.376-5.977-3.672-15.156-2.34-22.393 1.26-7.2 4.176-15.228 9.864-20.052 5.544-4.86 15.66-7.344 23.688-8.82 7.992-1.62 16.02-1.8 24.228-.54l-2.088-5.472c-9.72-.792-18.612-.36-26.82,1.296-8.244,1.62-16.452,3.24-22.392,8.352-6.084,5.112-11.196,14.112-13.536,21.852-2.268,7.668-2.448,16.309-.252,23.437 2.016,7.02 5.112,13.644 12.744,18.216 7.632,4.355 18.432,7.092 32.796,8.063-2.484-3.095-5.004-6.227-7.524-9.359z" fill="#ffd700" fill-rule="evenodd" stroke="#000" stroke-miterlimit="10" stroke-width=".036"/>
 <path d="m5.742,39.85h9.9l2.34,3.888c4.32-.036 7.92,0 10.944.252 2.844.18 5.04.252 7.02,1.044 1.944.72 3.6,1.8 4.968,3.384 13.284-.936 21.816-.504 26.28,1.296 4.248,1.692 4.104,7.596-.288,9.396-4.572,1.764-13.104,2.196-26.28,1.296-1.368,1.548-3.024,2.628-4.968,3.384-1.98.72-4.176.792-7.02,1.044-3.024.216-6.624.252-10.944.252l-2.34,3.888h-9.864c-3.672-4.716-5.544-9.432-5.472-14.292 .108-4.896 1.836-9.792 5.724-14.832z" fill-rule="evenodd" stroke="#000" stroke-miterlimit="10" stroke-width=".036"/>
 <path d="m6.786,41.65c-3.24,4.572-4.932,8.82-4.932,13.284-.036,4.392 1.476,8.46 4.68,12.744h7.308l2.592-3.888c-1.62-3.636-2.448-6.84-2.34-9.9 .036-3.06.9-5.832 2.592-8.316l-2.34-3.924h-7.56z" fill="#c0c0c0" fill-rule="evenodd" stroke="#000" stroke-miterlimit="10" stroke-width=".036"/>
 <path d="m20.07,45.574c-1.872,2.052-2.916,4.608-3.132,7.524-.288,2.952.288,6.156 1.584,9.9 2.592.18 5.58.144 9.108-.504s7.416-1.692 11.952-3.132c-1.188-2.592-1.656-4.68-1.548-6.264 .072-1.584.72-2.808 2.088-3.384-3.132-1.62-6.3-2.7-9.648-3.384-3.384-.72-6.804-.972-10.404-.756z" fill="#c0c0c0" fill-rule="evenodd" stroke="#000" stroke-miterlimit="10" stroke-width=".036"/>
 <path d="m41.67,50.506c-1.26,1.44-1.764,2.88-1.8,4.176 .036,1.26.54,2.52 1.8,3.636l27.072-.252-2.844-7.056c-5.616-.792-10.26-1.224-14.328-1.296-4.14-.072-7.308.144-9.9.792z" fill="#c0c0c0" fill-rule="evenodd" stroke="#000" stroke-miterlimit="10" stroke-width=".036"/>
 <path d="m270.34 106.99h100.08v11.987h-100.08v-11.987z" fill-rule="evenodd" stroke="#000" stroke-miterlimit="10" stroke-width=".036"/>
 <path d="m272.18 108.29h98.893v9.359h-98.893v-9.359z" fill="#ffd600" fill-rule="evenodd" stroke="#000" stroke-miterlimit="10" stroke-width=".036"/>
 <path d="m270.34 125.49h100.08v11.988h-100.08v-11.988z" fill-rule="evenodd" stroke="#000" stroke-miterlimit="10" stroke-width=".036"/>
 <path d="m271.89 126.83h99.433v9.359h-99.433v-9.359z" fill="#fff" fill-rule="evenodd" stroke="#000" stroke-miterlimit="10" stroke-width=".036"/>
 <path d="m378.594,107.062c1.944-.323 3.816-.252 5.76.217 1.908.396 3.924,1.188 5.616,2.376 1.584,1.115 2.916,2.628 3.996,4.535 .936,1.837 1.908,4.213 2.088,6.732 .108,2.376-.396,5.832-1.116,8.028-.684,2.16-1.764,3.672-3.239,5.076-1.692,1.224-4.032,2.159-6.48,2.808-2.52.54-5.292.792-8.46.756l.972-12.24c2.124.072 3.853-.036 5.185-.323 1.296-.324 2.088-.828 2.52-1.513 .36-.792.252-2.483-.324-3.132-.611-.828-1.979-1.116-3.275-1.296-1.332-.216-2.844-.18-4.536.108 .428-4.032.861-8.064 1.293-12.132z" fill-rule="evenodd" stroke="#000" stroke-miterlimit="10" stroke-width=".036"/>
 <path d="m379.025,107.71c3.097-.18 5.725.252 8.028,1.296 2.232.9 4.068,2.484 5.508,4.752 1.332,2.304 2.664,5.256 2.593,8.568-.217,3.096-.793,7.775-3.673,10.296-2.951,2.448-7.523,3.96-13.859,4.536l.756-11.053c2.124.433 3.852.396 5.328-.107 1.476-.612 2.735-1.764 3.24-2.916 .287-1.26.468-3.061-.973-3.888-1.512-.864-4.032-1.225-7.704-1.08 .252-3.456.504-6.912.756-10.404z" fill="#ffd600" fill-rule="evenodd" stroke="#000" stroke-miterlimit="10" stroke-width=".036"/>
 <path d="m379.35,106.414c.937.684 1.477,1.836 1.765,3.456 .216,1.584-.108,4.355-.433,6.084-.396,1.691-1.188,2.735-2.088,3.672h-10.404c0,0 1.872-3.24 2.232-6.516s-.756-6.589-.756-6.589l9.684-.107z" fill-rule="evenodd" stroke="#000" stroke-miterlimit="10" stroke-width=".036"/>
 <path d="m378.594,107.062c.792,1.009 1.332,2.269 1.477,3.78 .071,1.404-.253,3.708-.576,5.112-.36,1.332-.864,2.304-1.513,2.916h-8.424c1.152-2.052 1.836-3.996 2.052-5.977 .217-2.088-.071-3.852-.72-5.832l7.704.001z" fill="#c0c0c0" fill-rule="evenodd" stroke="#000" stroke-miterlimit="10" stroke-width=".036"/>
 <path d="m379.35,124.918c.937.648 1.477,1.944 1.765,3.492 .216,1.62-.108,4.284-.433,6.048-.396,1.584-1.188,2.808-2.088,3.672h-10.404c0,0 1.872-3.204 2.232-6.479 .36-3.276-.756-6.624-.756-6.624l9.684-.109z" fill-rule="evenodd" stroke="#000" stroke-miterlimit="10" stroke-width=".036"/>
 <path d="m378.594,125.566c.792,1.079 1.332,2.304 1.477,3.815 .071,1.404-.253,3.744-.576,5.076-.36,1.332-.864,2.304-1.513,2.916h-8.424c1.152-2.016 1.836-3.996 2.052-5.94 .217-2.016-.071-3.924-.72-5.867h7.704z" fill="#c0c0c0" fill-rule="evenodd" stroke="#000" stroke-miterlimit="10" stroke-width=".036"/>
 <path d="m289.89 83.786c6.101 0 11.052 4.951 11.052 11.052s-4.951 11.052-11.052 11.052-11.052-4.951-11.052-11.052 4.951-11.052 11.052-11.052" fill-rule="evenodd" stroke="#000" stroke-miterlimit="10" stroke-width=".036"/>
 <path d="m289.89 85.454c5.167 0 9.36 4.258 9.36 9.504s-4.193 9.504-9.36 9.504-9.359-4.258-9.359-9.504 4.192-9.504 9.359-9.504" fill="#fff" fill-rule="evenodd" stroke="#000" stroke-miterlimit="10" stroke-width=".036"/>
 <path d="m289.06 104.4h59.364v1.548h-59.364v-1.548z" fill-rule="evenodd" stroke="#000" stroke-miterlimit="10" stroke-width=".036"/>
 <path d="m335.43 102.06h11.196v5.437h-11.196v-5.437z" fill-rule="evenodd" stroke="#000" stroke-miterlimit="10" stroke-width=".036"/>
 <path d="m336.73 103.07h8.856v3.672h-8.856v-3.672z" fill="#ffd600" fill-rule="evenodd" stroke="#000" stroke-miterlimit="10" stroke-width=".036"/>
 <path d="m339.64 98.638h2.736v3.564h-2.736v-3.564z" fill-rule="evenodd" stroke="#000" stroke-miterlimit="10" stroke-width=".036"/>
 <path d="m337.34 97.594h7.524v1.584h-7.524v-1.584z" fill-rule="evenodd" stroke="#000" stroke-miterlimit="10" stroke-width=".036"/>
 <path d="m386.334,136.33 2.016,2.376c-.792.576-1.332,1.152-1.62,1.584-.396.432-.504.828-.468,1.188 .72.612 1.368,1.08 2.088,1.549 .648.468 1.368.936 2.017,1.115 .611.036.936-.216 1.367-.756 1.261.072 2.845-.216 4.608-1.008 1.764-.72 4.176-1.872 6.12-3.744 1.944-2.124 3.563-4.788 5.292-8.424 1.656-.288 2.34-.828 2.592-1.476 .108-.648-.432-1.549-1.764-2.557 .504-2.592.18-5.076-.828-7.884-1.152-2.808-4.788-8.064-5.472-8.676-.648-.612.863,2.771 1.476,4.859 .504,2.017 1.296,4.788 1.548,6.948 .145,2.017.036,3.672-.468,5.112l-9.252-1.729-1.08,3.925 8.784,1.655c-.288,2.196-1.044,4.032-2.124,5.509-1.116,1.476-2.557,2.447-4.464,3.203 .144-.468.18-.972-.181-1.367-.396-.54-1.26-1.045-1.764-1.225-.576-.18-1.116-.107-1.62.216l-2.483-2.412c-.36.253-.828.433-1.549.828-.719.327-1.691.723-2.771,1.191z" fill-rule="evenodd" stroke="#000" stroke-miterlimit="10" stroke-width=".036"/>
 <path d="m393.03,137.626c-.721.288-2.017.792-2.916,1.368-1.009.54-2.521,1.151-2.593,1.836-.216.647 1.188,1.548 1.836,2.016 .504.396.721.864 1.765.288 1.116-.828 3.888-3.492 4.571-4.5 .433-1.008-1.151-1.368-1.548-1.476-.503-.18-.503.071-1.115.468z" fill="#ffd600" fill-rule="evenodd" stroke="#000" stroke-miterlimit="10" stroke-width=".036"/>
 <path d="m396.126,139.822c.504.216 1.26.107 2.412-.721 1.151-.863 3.275-2.556 4.284-3.96 .899-1.476 1.224-2.952 1.115-4.571l2.376-.072c-.504,2.34-1.439,4.464-2.952,6.228-1.512,1.836-4.319,3.276-5.939,4.464-1.8,1.009-3.168,1.513-4.392,1.656 1.008-1.008 2.052-2.016 3.096-3.024z" fill="#ffd600" fill-rule="evenodd" stroke="#000" stroke-miterlimit="10" stroke-width=".036"/>
 <path d="m406.41,127.178c1.013,0 1.836.564 1.836,1.26s-.823,1.261-1.836,1.261-1.836-.564-1.836-1.261 .822-1.26 1.836-1.26" fill="#fff" fill-rule="evenodd" stroke="#000" stroke-miterlimit="10" stroke-width=".036"/>
 <path d="m406.134,126.466c.252-1.188.252-2.7 0-4.68-.36-2.052-1.8-6.769-1.548-7.057 .216-.287 2.412,3.492 2.988,5.509 .468,1.979.575,3.888.18,6.12l-1.62.108z" fill="#ffd600" fill-rule="evenodd" stroke="#000" stroke-miterlimit="10" stroke-width=".036"/>
 <path d="m397.422,125.998 6.768,1.368c-.359.432-.575.828-.647,1.188-.181.324-.036.756 0,1.008-.036.145-.036.145 0,0l-7.416-1.079c.468-.288.756-.576 1.008-1.009 .178-.396.323-.936.287-1.476z" fill="#fff" fill-rule="evenodd" stroke="#000" stroke-miterlimit="10" stroke-width=".036"/>
 <path d="m387.63,136.726c.108-.18.54-.396 1.008-.647 .54-.324 1.116-.54 2.017-.937l1.367,1.477-2.844,1.368c-.504-.397-1.008-.829-1.548-1.261z" fill="#ffd600" fill-rule="evenodd" stroke="#000" stroke-miterlimit="10" stroke-width=".036"/>
 <path d="m303.06 141.48h52.345v1.549h-52.345v-1.549z" fill-rule="evenodd" stroke="#000" stroke-miterlimit="10" stroke-width=".036"/>
 <path d="m345.87 136.62h6.336v8.964h-6.336v-8.964z" fill-rule="evenodd" stroke="#000" stroke-miterlimit="10" stroke-width=".036"/>
 <path d="m347.27 137.41h3.564v7.704h-3.564v-7.704z" fill="#ffd600" fill-rule="evenodd" stroke="#000" stroke-miterlimit="10" stroke-width=".036"/>
 <path d="m302.02 139.17h3.097v6.696h-3.097v-6.696z" fill-rule="evenodd" stroke="#000" stroke-miterlimit="10" stroke-width=".036"/>
 <path d="m306.52 139.28h2.736v6.66h-2.736v-6.66z" fill-rule="evenodd" stroke="#000" stroke-miterlimit="10" stroke-width=".036"/>
 <path d="m337.01 136.62h6.336v8.964h-6.336v-8.964z" fill-rule="evenodd" stroke="#000" stroke-miterlimit="10" stroke-width=".036"/>
 <path d="m338.42 137.41h3.563v7.704h-3.563v-7.704z" fill="#ffd600" fill-rule="evenodd" stroke="#000" stroke-miterlimit="10" stroke-width=".036"/>
 <path d="m212.598,18.358v5.256l4.572.396v12.06c-1.476-.036-2.808.252-3.996.576-1.296.324-2.268.828-3.312,1.512v5.976l.828.9c-.036,2.196-.036,12.384 0,30.996-.036,18.72-.036,44.892 0,80.028l-1.404.504v6.084c.252.505 1.152,1.009 2.412,1.368 1.188.36 3.6.721 5.292.937 1.656.071 3.24.144 4.752-.072 2.196-.216 4.068-.576 5.328-.936 1.224-.36 2.124-.864 2.412-1.368v-6.084l-1.44-.504c-.036-35.137-.036-61.309 0-80.028-.036-18.612-.036-28.8 0-30.996l.828-.9v-5.976c-1.08-.684-2.052-1.188-3.312-1.512s-2.592-.612-3.996-.576v-11.88l4.572-.576v-5.256c-1.476-.432-2.952-.684-4.572-.756-1.8-.108-3.564,0-5.148.18-1.548.143-2.772.359-3.816.647z" fill-rule="evenodd" stroke="#000" stroke-miterlimit="10" stroke-width=".036"/>
 <path d="m209.79,157.246v5.04c.72.576 1.908.972 3.564,1.332 1.548.252 3.888.468 6.048.504 2.052-.036 4.68-.396 6.336-.648 1.584-.396 2.556-.684 3.06-1.26v-5.147c-1.224.323-2.628.575-4.248.756s-2.916.396-5.4.323c0,0-2.736-.144-5.04-.432-2.34-.252-.36-.144-4.176-.647l-.144.179z" fill="#ffd700" fill-rule="evenodd" stroke="#000" stroke-miterlimit="10" stroke-width=".036"/>
 <path d="m211.59,45.502c-.036,8.928-.036,22.392 0,40.968-.036,18.612-.036,41.473 0,69.696 1.188.288 2.304.54 3.744.756 1.368.145 2.628.252 4.32.324 1.476-.072 3.888-.18 5.148-.324 1.26-.216 2.016-.36 2.412-.576-.036-17.136-.036-34.487 0-53.172-.036-18.647-.036-37.656 0-57.852-2.412.252-4.896.468-7.452.504-2.7.036-5.292-.072-8.172-.324z" fill="#ffd700" fill-rule="evenodd" stroke="#000" stroke-miterlimit="10" stroke-width=".036"/>
 <path d="m210.618,38.446c1.548.288 3.708.468 6.624.396 2.88-.072 6.48-.288 10.8-.648l.108,5.724c-.252.216-1.26.54-3.168.684-2.016.216-5.832.396-8.244.396-2.376-.108-4.464-.612-6.12-1.224v-5.328z" fill="#ffd700" fill-rule="evenodd" stroke="#000" stroke-miterlimit="10" stroke-width=".036"/>
 <path d="m213.102,18.934c.828.108 1.908.324 3.384.36 1.404.108 3.708.036 5.256.072 1.44-.072 2.736-.18 3.744-.324l.072,3.996c-1.944.216-3.78.396-5.904.396-2.088,0-4.248-.18-6.48-.396 0-1.368-.036-2.736-.072-4.104z" fill="#ffd700" fill-rule="evenodd" stroke="#000" stroke-miterlimit="10" stroke-width=".036"/>
 <path d="m217.674,24.118c.54.036 1.044.18 1.656.144 .576.036 1.116-.108 1.764-.144v12.852c-.54.252-1.152.324-1.692.36-.612-.072-1.296-.216-1.908-.432v-12.78h.18z" fill="#ffd700" fill-rule="evenodd" stroke="#000" stroke-miterlimit="10" stroke-width=".036"/>
 <path d="m216.342,36.646c-.936.072-1.8.216-2.592.432s-1.656.36-2.304.72c1.08.216 2.412.432 4.392.504s4.86,0 6.984-.072c1.908-.144 3.456-.288 4.644-.576-.9-.396-1.692-.576-2.664-.828-1.008-.288-1.908-.36-2.988-.504l-.072.9c-.576.252-1.296.468-2.16.504-.936.036-2.016-.072-3.24-.324v-.756z" fill="#ffd700" fill-rule="evenodd" stroke="#000" stroke-miterlimit="10" stroke-width=".036"/>
 <path d="m214.002,18.358c1.8-.36 3.708-.576 5.58-.504 1.944-.036 3.672.216 5.724.612-2.052.324-3.888.648-5.796.576-1.908.036-3.744-.324-5.508-.684z" fill="#ffd700" fill-rule="evenodd" stroke="#000" stroke-miterlimit="10" stroke-width=".036"/>
 <path d="m211.266,39.13h.252v4.32h-.252v-4.32z" fill-rule="evenodd" stroke="#000" stroke-miterlimit="10" stroke-width=".036"/>
 <path d="m213.03,39.49h.252v4.32h-.252v-4.32z" fill-rule="evenodd" stroke="#000" stroke-miterlimit="10" stroke-width=".036"/>
 <path d="m214.506,39.562h.252v4.32h-.252v-4.32z" fill-rule="evenodd" stroke="#000" stroke-miterlimit="10" stroke-width=".036"/>
 <path d="m216.918,39.814h.252v4.32h-.252v-4.32z" fill-rule="evenodd" stroke="#000" stroke-miterlimit="10" stroke-width=".036"/>
 <path d="m219.078,39.814h.252v4.32h-.252v-4.32z" fill-rule="evenodd" stroke="#000" stroke-miterlimit="10" stroke-width=".036"/>
 <path d="m221.31,39.634h.252v4.32h-.252v-4.32z" fill-rule="evenodd" stroke="#000" stroke-miterlimit="10" stroke-width=".036"/>
 <path d="m223.65,39.31h.252v4.32h-.252v-4.32z" fill-rule="evenodd" stroke="#000" stroke-miterlimit="10" stroke-width=".036"/>
 <path d="m225.99,38.986h.252v4.32h-.252v-4.32z" fill-rule="evenodd" stroke="#000" stroke-miterlimit="10" stroke-width=".036"/>
 <path d="m213.606,20.446c.18.252 1.26.468 3.24.504 1.98,0 4.644-.036 8.388-.252v1.584c-.864.18-1.98.288-3.492.324-1.548.036-4.428.072-5.724-.18-1.404-.396-2.16-1.008-2.412-1.98z" fill-rule="evenodd" stroke="#000" stroke-miterlimit="10" stroke-width=".036"/>
 <path d="m219.33,25.774c-.18,1.476-.18,7.2 0,8.712 0,1.26.36.72.504-.648 .18-1.512.288-6.336.324-7.668-.18-1.44-.684-1.8-.828-.396z" fill-rule="evenodd" stroke="#000" stroke-miterlimit="10" stroke-width=".036"/>
 <path d="m221.418,52.774c-.288.324-.396,8.388-.324,14.472 .036,5.868.036,20.16.828,21.096 .684.72 2.88-10.548 3.384-15.624 .36-5.22-.54-14.904-.756-14.472-.288.576-.468,16.416-.828,17.784-.504,1.08-1.404-6.336-1.728-10.296-.36-4.032-.504-13.212-.576-12.96z" fill-rule="evenodd" stroke="#000" stroke-miterlimit="10" stroke-width=".036"/>
 <path d="m210.98 157.71h0.252v4.32h-0.252v-4.32z" fill-rule="evenodd" stroke="#000" stroke-miterlimit="10" stroke-width=".036"/>
 <path d="m213.07 158.36h0.252v4.319h-0.252v-4.319z" fill-rule="evenodd" stroke="#000" stroke-miterlimit="10" stroke-width=".036"/>
 <path d="m215.37,158.866h.252v4.319h-.252v-4.319z" fill-rule="evenodd" stroke="#000" stroke-miterlimit="10" stroke-width=".036"/>
 <path d="m217.78 159.05h0.252v4.32h-0.252v-4.32z" fill-rule="evenodd" stroke="#000" stroke-miterlimit="10" stroke-width=".036"/>
 <path d="m220.55 159.12h0.216v4.319h-0.216v-4.319z" fill-rule="evenodd" stroke="#000" stroke-miterlimit="10" stroke-width=".036"/>
 <path d="m223.18 159.05h0.252v4.32h-0.252v-4.32z" fill-rule="evenodd" stroke="#000" stroke-miterlimit="10" stroke-width=".036"/>
 <path d="m225.52 158.72h0.252v4.32h-0.252v-4.32z" fill-rule="evenodd" stroke="#000" stroke-miterlimit="10" stroke-width=".036"/>
 <path d="m227.5 157.97h0.252v4.32h-0.252v-4.32z" fill-rule="evenodd" stroke="#000" stroke-miterlimit="10" stroke-width=".036"/>
 <path d="m236.934,18.358v5.256l4.572.396v12.06c-1.476-.036-2.808.252-3.996.576-1.296.324-2.268.828-3.312,1.512v5.976l.828.9c-.036,2.196-.036,12.384 0,30.996-.036,18.72-.036,44.892 0,80.028l-1.404.504v6.084c.252.505 1.152,1.009 2.412,1.368 1.224.36 3.6.721 5.328.937 1.728.071 3.168.144 4.716-.072 2.196-.216 4.068-.576 5.328-.936 1.224-.36 2.124-.864 2.412-1.368v-6.084l-1.404-.504c-.036-35.137-.036-61.309 0-80.028-.036-18.612-.036-28.8 0-30.996l.828-.9v-5.976c-1.044-.684-2.16-1.188-3.348-1.512-1.296-.324-2.484-.612-3.96-.576v-11.88l4.536-.576v-5.256c-1.44-.432-2.952-.684-4.536-.756-1.764-.108-3.636,0-5.184.18-1.548.143-2.772.359-3.816.647z" fill-rule="evenodd" stroke="#000" stroke-miterlimit="10" stroke-width=".036"/>
 <path d="m234.126,157.246v5.04c.72.576 1.908.972 3.564,1.332 1.62.252 3.924.468 6.084.504 2.016-.036 4.716-.396 6.3-.648 1.476-.396 2.628-.684 3.06-1.26v-5.147c-1.224.323-2.592.575-4.212.756s-2.952.396-5.4.323c0,0-2.772-.144-5.076-.432-2.304-.252-.324-.144-4.176-.647l-.144.179z" fill="#ffd700" fill-rule="evenodd" stroke="#000" stroke-miterlimit="10" stroke-width=".036"/>
 <path d="m235.962,45.502c-.036,8.928-.036,22.392 0,40.968-.036,18.612-.036,41.473 0,69.696 1.152.288 2.34.54 3.708.756 1.26.145 2.7.252 4.32.324 1.584-.072 3.816-.18 5.184-.324 1.26-.216 2.016-.36 2.412-.576-.036-17.136-.036-34.487 0-53.172-.036-18.647-.036-37.656 0-57.852-2.34.252-4.968.468-7.488.504-2.556.036-5.4-.072-8.136-.324z" fill="#ffd700" fill-rule="evenodd" stroke="#000" stroke-miterlimit="10" stroke-width=".036"/>
 <path d="m234.954,38.446c1.548.288 3.672.468 6.66.396 2.88-.072 6.48-.288 10.8-.648l.072,5.724c-.252.216-1.26.54-3.168.684-2.052.216-5.76.396-8.208.396-2.412-.108-4.464-.612-6.156-1.224v-5.328z" fill="#ffd700" fill-rule="evenodd" stroke="#000" stroke-miterlimit="10" stroke-width=".036"/>
 <path d="m237.438,18.934c.792.108 1.98.324 3.42.36 1.44.108 3.636.036 5.22.072 1.44-.072 2.736-.18 3.744-.324l.072,3.996c-1.944.216-3.78.396-5.904.396-2.088,0-4.248-.18-6.48-.396 0-1.368-.036-2.736-.072-4.104z" fill="#ffd700" fill-rule="evenodd" stroke="#000" stroke-miterlimit="10" stroke-width=".036"/>
 <path d="m242.01,24.118c.54.036 1.044.18 1.656.144 .576.036 1.116-.108 1.764-.144v12.852c-.468.252-1.116.324-1.656.36-.612-.072-1.26-.216-1.944-.432v-12.78h.18z" fill="#ffd700" fill-rule="evenodd" stroke="#000" stroke-miterlimit="10" stroke-width=".036"/>
 <path d="m240.678,36.646c-.864.072-1.764.216-2.556.432s-1.62.36-2.34.72c1.08.216 2.412.432 4.392.504s4.86,0 6.984-.072c1.908-.144 3.456-.288 4.644-.576-.792-.396-1.764-.576-2.628-.828-1.008-.288-1.908-.36-2.988-.504l-.108.9c-.576.252-1.296.468-2.16.504-.936.036-2.016-.072-3.24-.324v-.756z" fill="#ffd700" fill-rule="evenodd" stroke="#000" stroke-miterlimit="10" stroke-width=".036"/>
 <path d="m238.374,18.358c1.836-.36 3.636-.576 5.544-.504 1.944-.036 3.672.216 5.724.612-2.052.324-3.888.648-5.796.576-1.944.036-3.672-.324-5.472-.684z" fill="#ffd700" fill-rule="evenodd" stroke="#000" stroke-miterlimit="10" stroke-width=".036"/>
 <path d="m235.6 39.13h0.252v4.32h-0.252v-4.32z" fill-rule="evenodd" stroke="#000" stroke-miterlimit="10" stroke-width=".036"/>
 <path d="m237.366,39.49h.252v4.32h-.252v-4.32z" fill-rule="evenodd" stroke="#000" stroke-miterlimit="10" stroke-width=".036"/>
 <path d="m238.842,39.562h.252v4.32h-.252v-4.32z" fill-rule="evenodd" stroke="#000" stroke-miterlimit="10" stroke-width=".036"/>
 <path d="m241.254,39.814h.252v4.32h-.252v-4.32z" fill-rule="evenodd" stroke="#000" stroke-miterlimit="10" stroke-width=".036"/>
 <path d="m243.414,39.814h.252v4.32h-.252v-4.32z" fill-rule="evenodd" stroke="#000" stroke-miterlimit="10" stroke-width=".036"/>
 <path d="m245.682,39.634h.252v4.32h-.252v-4.32z" fill-rule="evenodd" stroke="#000" stroke-miterlimit="10" stroke-width=".036"/>
 <path d="m247.986,39.31h.252v4.32h-.252v-4.32z" fill-rule="evenodd" stroke="#000" stroke-miterlimit="10" stroke-width=".036"/>
 <path d="m250.326,38.986h.252v4.32h-.252v-4.32z" fill-rule="evenodd" stroke="#000" stroke-miterlimit="10" stroke-width=".036"/>
 <path d="m237.942,20.446c.18.252 1.26.468 3.24.504 1.98,0 4.644-.036 8.388-.252v1.584c-.864.18-1.98.288-3.492.324-1.548.036-4.428.072-5.724-.18-1.404-.396-2.16-1.008-2.412-1.98z" fill-rule="evenodd" stroke="#000" stroke-miterlimit="10" stroke-width=".036"/>
 <path d="m243.666,25.774c-.18,1.476-.18,7.2 0,8.712 0,1.26.36.72.504-.648 .18-1.512.288-6.336.324-7.668-.18-1.44-.684-1.8-.828-.396z" fill-rule="evenodd" stroke="#000" stroke-miterlimit="10" stroke-width=".036"/>
 <path d="m245.754,52.774c-.288.324-.396,8.388-.324,14.472 .036,5.868.036,20.16.828,21.096 .684.72 2.88-10.548 3.384-15.624 .324-5.22-.432-14.904-.72-14.472-.288.576-.468,16.416-.828,17.784-.504,1.08-1.368-6.336-1.764-10.296-.36-4.032-.504-13.212-.576-12.96z" fill-rule="evenodd" stroke="#000" stroke-miterlimit="10" stroke-width=".036"/>
 <path d="m235.31 157.71h0.252v4.32h-0.252v-4.32z" fill-rule="evenodd" stroke="#000" stroke-miterlimit="10" stroke-width=".036"/>
 <path d="m237.4 158.36h0.252v4.319h-0.252v-4.319z" fill-rule="evenodd" stroke="#000" stroke-miterlimit="10" stroke-width=".036"/>
 <path d="m239.74 158.87h0.252v4.319h-0.252v-4.319z" fill-rule="evenodd" stroke="#000" stroke-miterlimit="10" stroke-width=".036"/>
 <path d="m242.15 159.05h0.216v4.32h-0.216v-4.32z" fill-rule="evenodd" stroke="#000" stroke-miterlimit="10" stroke-width=".036"/>
 <path d="m244.89,159.118h.252v4.319h-.252v-4.319z" fill-rule="evenodd" stroke="#000" stroke-miterlimit="10" stroke-width=".036"/>
 <path d="m247.55 159.05h0.252v4.32h-0.252v-4.32z" fill-rule="evenodd" stroke="#000" stroke-miterlimit="10" stroke-width=".036"/>
 <path d="m249.86 158.72h0.252v4.32h-0.252v-4.32z" fill-rule="evenodd" stroke="#000" stroke-miterlimit="10" stroke-width=".036"/>
 <path d="m251.87 157.97h0.252v4.32h-0.252v-4.32z" fill-rule="evenodd" stroke="#000" stroke-miterlimit="10" stroke-width=".036"/>
 <path d="m259.758,18.358v5.256l4.572.396v12.06c-1.476-.036-2.808.252-3.996.576-1.296.324-2.268.828-3.312,1.512v5.976l.828.9c-.036,2.196-.036,12.384 0,30.996-.036,18.72-.036,44.892 0,80.028l-1.404.504v6.084c.252.505 1.152,1.009 2.412,1.368 1.224.36 3.6.721 5.328.937 1.728.071 3.168.144 4.715-.072 2.196-.216 4.068-.576 5.328-.936 1.225-.36 2.124-.864 2.412-1.368v-6.084l-1.403-.504c-.036-35.137-.036-61.309 0-80.028-.036-18.612-.036-28.8 0-30.996l.827-.9v-5.976c-1.044-.684-2.159-1.188-3.348-1.512-1.26-.324-2.592-.612-3.996-.576l.036-11.88 4.536-.576v-5.256c-1.44-.432-2.952-.684-4.536-.756-1.764-.108-3.636,0-5.184.18-1.547.143-2.771.359-3.815.647z" fill-rule="evenodd" stroke="#000" stroke-miterlimit="10" stroke-width=".036"/>
 <path d="m256.95,157.246v5.04c.72.576 1.908.972 3.564,1.332 1.62.252 3.924.468 6.084.504 2.017-.036 4.716-.396 6.3-.648 1.477-.396 2.628-.684 3.061-1.26v-5.147c-1.225.323-2.592.575-4.212.756-1.656.18-2.952.396-5.4.323 0,0-2.772-.144-5.076-.432-2.304-.252-.324-.144-4.176-.647l-.145.179z" fill="#ffd700" fill-rule="evenodd" stroke="#000" stroke-miterlimit="10" stroke-width=".036"/>
 <path d="m258.786,45.502c-.036,8.928-.036,22.392 0,40.968-.036,18.612-.036,41.473 0,69.696 1.152.288 2.34.54 3.708.756 1.26.145 2.7.252 4.32.324 1.583-.072 3.816-.18 5.184-.324 1.26-.216 2.052-.36 2.376-.576-.036-17.136-.036-34.487 0-53.172-.036-18.647-.036-37.656 0-57.852-2.412.252-4.896.468-7.452.504-2.628.036-5.292-.072-8.136-.324z" fill="#ffd700" fill-rule="evenodd" stroke="#000" stroke-miterlimit="10" stroke-width=".036"/>
 <path d="m257.778,38.446c1.44.288 3.744.468 6.624.396 2.988-.072 6.408-.288 10.836-.648l.071,5.724c-.252.216-1.26.54-3.168.684-2.052.216-5.76.396-8.208.396-2.412-.108-4.464-.612-6.156-1.224 .001-1.764.001-3.528.001-5.328z" fill="#ffd700" fill-rule="evenodd" stroke="#000" stroke-miterlimit="10" stroke-width=".036"/>
 <path d="m260.262,18.934c.792.108 1.98.324 3.42.36 1.44.108 3.636.036 5.22.072 1.44-.072 2.736-.18 3.744-.324l.072,3.996c-1.944.216-3.78.396-5.904.396-2.088,0-4.248-.18-6.48-.396 0-1.368-.036-2.736-.072-4.104z" fill="#ffd700" fill-rule="evenodd" stroke="#000" stroke-miterlimit="10" stroke-width=".036"/>
 <path d="m264.834,24.118c.54.036 1.044.18 1.656.144 .576.036 1.116-.108 1.764-.144v12.852c-.468.252-1.116.324-1.656.36-.612-.072-1.26-.216-1.944-.432v-12.78h.18z" fill="#ffd700" fill-rule="evenodd" stroke="#000" stroke-miterlimit="10" stroke-width=".036"/>
 <path d="m263.502,36.646c-.864.072-1.764.216-2.556.432s-1.62.36-2.34.72c1.08.216 2.412.432 4.392.504s4.859,0 6.983-.072c1.908-.144 3.456-.288 4.645-.576-.828-.396-1.656-.576-2.628-.828-.973-.288-1.98-.36-3.024-.504l-.072.9c-.575.252-1.296.468-2.16.504-.936.036-2.016-.072-3.24-.324v-.756z" fill="#ffd700" fill-rule="evenodd" stroke="#000" stroke-miterlimit="10" stroke-width=".036"/>
 <path d="m261.162,18.358c1.8-.36 3.708-.576 5.58-.504 1.944-.036 3.672.216 5.724.612-2.052.324-3.888.648-5.796.576-1.908.036-3.744-.324-5.508-.684z" fill="#ffd700" fill-rule="evenodd" stroke="#000" stroke-miterlimit="10" stroke-width=".036"/>
 <path d="m258.426,39.13h.252v4.32h-.252v-4.32z" fill-rule="evenodd" stroke="#000" stroke-miterlimit="10" stroke-width=".036"/>
 <path d="m260.19,39.49h.252v4.32h-.252v-4.32z" fill-rule="evenodd" stroke="#000" stroke-miterlimit="10" stroke-width=".036"/>
 <path d="m261.666,39.562h.252v4.32h-.252v-4.32z" fill-rule="evenodd" stroke="#000" stroke-miterlimit="10" stroke-width=".036"/>
 <path d="m264.078,39.814h.252v4.32h-.252v-4.32z" fill-rule="evenodd" stroke="#000" stroke-miterlimit="10" stroke-width=".036"/>
 <path d="m266.238,39.814h.252v4.32h-.252v-4.32z" fill-rule="evenodd" stroke="#000" stroke-miterlimit="10" stroke-width=".036"/>
 <path d="m268.506,39.634h.216v4.32h-.216v-4.32z" fill-rule="evenodd" stroke="#000" stroke-miterlimit="10" stroke-width=".036"/>
 <path d="m270.81,39.31h.252v4.32h-.252v-4.32z" fill-rule="evenodd" stroke="#000" stroke-miterlimit="10" stroke-width=".036"/>
 <path d="m273.149,38.986h.252v4.32h-.252v-4.32z" fill-rule="evenodd" stroke="#000" stroke-miterlimit="10" stroke-width=".036"/>
 <path d="m260.766,20.446c.18.252 1.26.468 3.24.504 1.98,0 4.644-.036 8.388-.252v1.584c-.863.18-1.979.288-3.492.324-1.547.036-4.428.072-5.724-.18-1.404-.396-2.16-1.008-2.412-1.98z" fill-rule="evenodd" stroke="#000" stroke-miterlimit="10" stroke-width=".036"/>
 <path d="m266.49,25.774c-.18,1.476-.18,7.2 0,8.712 0,1.26.36.72.504-.648 .18-1.512.288-6.336.324-7.668-.18-1.44-.684-1.8-.828-.396z" fill-rule="evenodd" stroke="#000" stroke-miterlimit="10" stroke-width=".036"/>
 <path d="m268.578,52.774c-.288.324-.396,8.388-.324,14.472 .036,5.868.036,20.16.828,21.096 .684.72 2.88-10.548 3.384-15.624 .324-5.22-.432-14.904-.72-14.472-.288.576-.469,16.416-.828,17.784-.504,1.08-1.368-6.336-1.764-10.296-.36-4.032-.505-13.212-.576-12.96z" fill-rule="evenodd" stroke="#000" stroke-miterlimit="10" stroke-width=".036"/>
 <path d="m258.14 157.71h0.252v4.32h-0.252v-4.32z" fill-rule="evenodd" stroke="#000" stroke-miterlimit="10" stroke-width=".036"/>
 <path d="m260.23 158.36h0.252v4.319h-0.252v-4.319z" fill-rule="evenodd" stroke="#000" stroke-miterlimit="10" stroke-width=".036"/>
 <path d="m262.57 158.87h0.216v4.319h-0.216v-4.319z" fill-rule="evenodd" stroke="#000" stroke-miterlimit="10" stroke-width=".036"/>
 <path d="m264.94 159.05h0.252v4.32h-0.252v-4.32z" fill-rule="evenodd" stroke="#000" stroke-miterlimit="10" stroke-width=".036"/>
 <path d="m267.71 159.12h0.252v4.319h-0.252v-4.319z" fill-rule="evenodd" stroke="#000" stroke-miterlimit="10" stroke-width=".036"/>
 <path d="m270.38 159.05h0.216v4.32h-0.216v-4.32z" fill-rule="evenodd" stroke="#000" stroke-miterlimit="10" stroke-width=".036"/>
 <path d="m272.68 158.72h0.252v4.32h-0.252v-4.32z" fill-rule="evenodd" stroke="#000" stroke-miterlimit="10" stroke-width=".036"/>
 <path d="m274.7 157.97h0.252v4.32h-0.252v-4.32z" fill-rule="evenodd" stroke="#000" stroke-miterlimit="10" stroke-width=".036"/>
 <path d="m252.162,97.126c-.792.288-1.26.864-1.8,1.584-.576.648-1.332,1.584-1.152,2.808 .144,1.188.756,2.628 1.98,4.465 .54-.576 1.152-1.116 1.98-1.332 .756-.288 1.692-.576 2.808-.324 1.116.107 2.304.647 3.708,1.332 1.116-1.477 1.512-2.916 1.332-4.32-.252-1.476-1.08-2.88-2.628-4.355-.252,1.188-.756,1.907-1.512,2.304-.756.359-2.52.072-3.204-.181-.792-.397-1.296-1.009-1.512-1.981z" fill-rule="evenodd" stroke="#000" stroke-miterlimit="10" stroke-width=".036"/>
 <path d="m251.694,98.458c-.504.504-.936.936-1.152,1.584-.396.504-.54,1.08-.432,1.872 .144.792.432,1.656 1.152,2.736 1.296-.864 2.7-1.225 4.068-1.225 1.44,0 2.664.36 4.212,1.225 .504-.864.72-1.801.648-2.809-.144-1.08-.504-2.16-1.224-3.384-1.296,1.368-2.376,2.052-3.636,2.052-1.296.001-2.376-.683-3.636-2.051z" fill="#ffd600" fill-rule="evenodd" stroke="#000" stroke-miterlimit="10" stroke-width=".036"/>
 <path d="m228.366,97.594c-.756.216-1.368.864-1.836,1.548-.576.648-1.332,1.584-1.152,2.809 .144,1.188.756,2.628 1.98,4.464 .54-.576 1.152-1.116 1.98-1.332 .756-.288 1.692-.576 2.808-.324 1.116.108 2.268.648 3.744,1.332 1.044-1.404 1.476-2.88 1.296-4.284-.252-1.439-1.08-2.952-2.628-4.392-.18,1.188-.72,1.908-1.476,2.304-.9.324-2.448.145-3.24-.144-.792-.397-1.332-1.009-1.476-1.981z" fill-rule="evenodd" stroke="#000" stroke-miterlimit="10" stroke-width=".036"/>
 <path d="m227.862,98.89c-.504.504-.936.937-1.152,1.584-.396.576-.54,1.08-.432,1.908 .108.756.504,1.656 1.188,2.7 1.332-.864 2.628-1.224 4.032-1.224 1.44,0 2.664.359 4.212,1.224 .504-.864.72-1.8.648-2.808-.144-1.08-.504-2.16-1.224-3.385-1.296,1.332-2.376,2.124-3.636,2.088-1.296.037-2.376-.755-3.636-2.087z" fill="#ffd600" fill-rule="evenodd" stroke="#000" stroke-miterlimit="10" stroke-width=".036"/>
 <path d="m251.442,145.114c-.792.216-1.26.863-1.8,1.548-.576.647-1.332,1.584-1.152,2.808 .144,1.188.756,2.628 1.98,4.464 .54-.611 1.152-1.044 1.98-1.296 .756-.359 1.692-.576 2.808-.359 1.116.144 2.304.54 3.708,1.332 1.116-1.404 1.512-2.881 1.332-4.284-.216-1.44-1.152-2.952-2.664-4.393-.18,1.188-.72,1.908-1.476,2.305-.756.323-2.52.144-3.204-.145-.792-.396-1.296-1.008-1.512-1.98z" fill-rule="evenodd" stroke="#000" stroke-miterlimit="10" stroke-width=".036"/>
 <path d="m250.974,146.41c-.54.504-.936.936-1.188,1.584-.252.576-.612,1.08-.396,1.908 .108.792.54,1.655 1.152,2.735 1.296-.828 2.7-1.296 4.068-1.26 1.44-.036 2.664.432 4.212,1.26 .504-.863.72-1.8.648-2.808-.144-1.116-.504-2.124-1.224-3.42-1.296,1.332-2.376,2.124-3.636,2.088-1.296.037-2.376-.755-3.636-2.087z" fill="#ffd600" fill-rule="evenodd" stroke="#000" stroke-miterlimit="10" stroke-width=".036"/>
 <path d="m228.006,144.826c-.756.288-1.368.863-1.836,1.584-.576.647-1.332,1.584-1.152,2.808 .144,1.188.756,2.628 1.98,4.464 .54-.576 1.152-1.115 1.98-1.332 .756-.288 1.692-.575 2.808-.323 1.116.144 2.268.575 3.744,1.296 1.044-1.404 1.476-2.88 1.296-4.284-.252-1.44-1.08-2.952-2.628-4.393-.18,1.152-.72,1.98-1.476,2.341-.9.359-2.448.071-3.24-.181-.792-.396-1.332-1.008-1.476-1.98z" fill-rule="evenodd" stroke="#000" stroke-miterlimit="10" stroke-width=".036"/>
 <path d="m227.502,146.158c-.504.396-.936,1.008-1.152,1.548-.396.576-.54,1.08-.432,1.908 .108.792.504,1.655 1.188,2.735 1.332-.828 2.628-1.296 4.032-1.26 1.44-.036 2.664.432 4.212,1.26 .504-.863.72-1.8.648-2.808-.144-1.08-.504-2.16-1.224-3.384-1.296,1.368-2.376,2.052-3.636,2.052-1.296.001-2.376-.683-3.636-2.051z" fill="#ffd600" fill-rule="evenodd" stroke="#000" stroke-miterlimit="10" stroke-width=".036"/>
 <path d="m251.514,121.894c-.828.324-1.584.937-2.124,1.836-.684.828-1.512,1.801-1.368,3.313 .108,1.404.936,3.168 2.34,5.292 .648-.72 1.332-1.296 2.34-1.584 .864-.36 2.016-.576 3.312-.36 1.224.108 2.736.756 4.392,1.548 1.26-1.728 1.836-3.42 1.584-5.075-.252-1.765-1.296-3.492-3.132-5.185-.288,1.332-.828,2.34-1.764,2.736-1.008.36-2.88.252-3.816-.18-.972-.433-1.512-1.261-1.764-2.341z" fill-rule="evenodd" stroke="#000" stroke-miterlimit="10" stroke-width=".036"/>
 <path d="m250.938,123.442c-.576.54-1.08,1.151-1.368,1.836-.432.684-.54,1.26-.468,2.268 .108.937.612,1.908 1.368,3.204 1.584-.937 3.132-1.512 4.788-1.44 1.692-.071 3.168.504 4.968,1.44 .576-1.08.936-2.052.792-3.313-.18-1.26-.576-2.592-1.476-3.995-1.512,1.655-2.808,2.376-4.284,2.447-1.476-.071-2.916-.791-4.32-2.447z" fill="#ffd600" fill-rule="evenodd" stroke="#000" stroke-miterlimit="10" stroke-width=".036"/>
 <path d="m153.594,49.498-1.08,7.884c38.916,1.728 71.316,2.952 99.288,4.068 27.792.972 40.68.864 66.42,2.052 25.668,1.08 63.648,2.88 86.292,4.572 22.393,1.584 34.057,2.988 47.628,5.328 13.464,2.304 24.732,5.112 32.832,8.424 7.884,3.204 11.376,6.768 14.76,10.691 3.276,3.816 2.881,7.885 5.328,12.204 2.521,4.248 5.796,13.068 9.433,12.996 3.456-.468 8.567-8.352 11.447-14.508 2.664-6.156 4.104-14.436 5.292-21.636 1.261-7.272 1.801-14.22 2.017-21.384 .324-7.884.216-15.408-.252-22.932s-.756-15.768-2.521-21.888c-1.836-6.12-5.472-12.42-8.172-14.508-2.7-2.016-5.436-.216-7.884,2.304s-4.752,9.216-6.552,12.708c-1.765,3.456-1.044,4.788-4.068,7.884-3.06,3.132-4.392,7.668-14.004,10.692-9.72,3.06-21.384,5.544-43.524,7.416-22.283,1.8-59.724,2.7-88.668,3.528-28.872.864-49.104.864-83.34,1.548-34.38.685-73.872,1.513-120.672,2.557z" fill-rule="evenodd" stroke="#000" stroke-miterlimit="10" stroke-width=".036"/>
 <path d="m155.07,51.01-.504,4.32c24.588,1.404 46.26,2.556 66.42,3.312 20.016.612 33.228.72 52.956,1.296 19.692.504 42.372,1.26 64.152,2.268 21.672.828 45.72,2.016 64.908,3.564 18.936,1.548 33.372,2.988 48.312,5.868 14.868,2.772 30.744,6.696 39.996,10.944 8.964,4.176 10.477,9.252 13.968,14.256 3.385,4.968 4.536,12.276 6.66,15.264 1.944,2.809 3.349,3.78 5.616,1.801 2.232-2.196 5.652-7.74 7.884-14.004 2.124-6.337 3.78-16.561 4.824-23.185 .937-6.624 1.26-11.952.972-16.272 .324-4.32.36-9.756.253-16.308-.217-6.696.252-16.488-1.225-23.148-1.656-6.804-5.472-14.076-7.956-16.812-2.556-2.808-4.176-2.916-6.804.504-2.592,3.42-4.608,14.4-8.964,19.872-4.5,5.292-7.813,9.036-18,12.204-10.548,2.952-24.876,4.752-43.524,6.372-18.756,1.656-40.932,2.664-67.212,3.564-26.244.72-51.624.54-88.92,1.26-37.548.72-81.36,1.692-133.812,3.06z" fill="#ffd700" fill-rule="evenodd" stroke="#000" stroke-miterlimit="10" stroke-width=".036"/>
 <path d="m411.065,52.81c7.416-.36 18.757-.144 29.557-1.296 10.691-1.332 21.96-4.104 34.092-6.372 12.096-2.412 30.815-10.332 37.692-7.38 6.623,3.06.575,18.9 2.268,25.452 1.584,6.408 7.884,9.576 7.38,12.996-.576,3.348-2.844,7.812-10.692,6.876-8.063-1.188-37.079-12.312-36.899-13.248 .252-.828 32.147,8.892 38.196,7.92 5.832-1.296-2.053-8.64-2.557-14.544-.576-5.94 4.068-17.676-.504-20.34-4.716-2.7-15.048,2.808-27.252,4.572-12.42,1.728-31.392,4.428-45.828,5.616-14.544.972-35.64.756-39.96.756-4.32-.072 7.128-.684 14.507-1.008z" fill-rule="evenodd" stroke="#000" stroke-miterlimit="10" stroke-width=".036"/>
 <path d="m291.689,24.334-.684,2.268c-1.764.396-3.528,1.296-5.436,2.7-2.053,1.404-4.969,3.204-5.977,5.544-1.08,2.268-1.008,5.436.216,7.848 1.188,2.304 2.484,4.392 7.345,5.868 4.932,1.368 11.916,2.268 21.636,2.556 .288-1.08.828-2.016 1.764-2.664 .9-.756 2.052-1.26 3.601-1.512l.18-1.584c-2.916,0-6.408.036-10.332.108-4.104-.036-9.864.648-13.393.108-3.491-.648-5.939-1.908-7.344-3.492-1.548-1.584-1.764-4.176-1.476-5.832 .18-1.764 1.151-2.88 3.06-4.464 1.908-1.656 4.645-3.384 8.353-5.184 .18-.936.216-1.584.107-2.088-.216-.576-.611-.864-.899-.864-.252,0-.54.18-.721.684z" fill-rule="evenodd" stroke="#000" stroke-miterlimit="10" stroke-width=".036"/>
 <path d="m162.05 106.99h39.816v11.987h-39.816v-11.987z" fill-rule="evenodd" stroke="#000" stroke-miterlimit="10" stroke-width=".036"/>
 <path d="m162.85 108.29h37.728v9.359h-37.728v-9.359z" fill="#ffd600" fill-rule="evenodd" stroke="#000" stroke-miterlimit="10" stroke-width=".036"/>
 <path d="m200.106,106.414c-.72.684-1.152,1.836-1.296,3.456-.18,1.584-.072,4.355.324,6.084 .252,1.691.756,2.735 1.512,3.672h6.3l1.404-.756c1.764-.145 3.168-.433 4.212-.864 1.044-.504 1.404-1.152 2.052-1.944 .54-.972 1.404-1.979 1.332-3.168-.216-1.332-.9-2.951-2.196-3.888-1.404-.972-3.132-1.548-5.616-1.728l-1.512-.864h-6.516z" fill-rule="evenodd" stroke="#000" stroke-miterlimit="10" stroke-width=".036"/>
 <path d="m200.646,107.062c-.648,1.009-1.008,2.269-1.08,3.78-.108,1.404.036,3.708.432,5.112 .216,1.332.576,2.304 1.08,2.916h6.192c-.864-2.052-1.368-3.996-1.512-5.977-.18-2.088 0-3.852.54-5.832l-5.652.001z" fill="#c0c0c0" fill-rule="evenodd" stroke="#000" stroke-miterlimit="10" stroke-width=".036"/>
 <path d="m207.486,108.034c-.612,1.764-.864,3.492-.756,5.184 .036,1.692.432,3.24 1.188,4.788 1.908-.072 3.456-.504 4.644-1.296 1.188-.9 2.232-2.376 2.304-3.6-.144-1.332-1.008-2.916-2.304-3.78-1.332-.9-2.88-1.332-5.076-1.296z" fill="#ffd600" fill-rule="evenodd" stroke="#000" stroke-miterlimit="10" stroke-width=".036"/>
 <path d="m162.05 125.49h39.816v11.988h-39.816v-11.988z" fill-rule="evenodd" stroke="#000" stroke-miterlimit="10" stroke-width=".036"/>
 <path d="m163.35 126.83h37.224v9.359h-37.224v-9.359z" fill="#ffd600" fill-rule="evenodd" stroke="#000" stroke-miterlimit="10" stroke-width=".036"/>
 <path d="m200.106,124.918c-.72.648-1.152,1.944-1.296,3.492-.18,1.62-.072,4.284.324,6.048 .252,1.584.756,2.808 1.512,3.672h6.3l1.404-.756c1.764-.145 3.168-.432 4.212-.864 1.044-.504 1.404-1.151 2.052-1.943 .54-.864 1.404-2.053 1.332-3.133-.216-1.332-.9-2.951-2.196-3.888-1.404-.972-3.132-1.512-5.616-1.764l-1.512-.864h-6.516z" fill-rule="evenodd" stroke="#000" stroke-miterlimit="10" stroke-width=".036"/>
 <path d="m200.646,125.566c-.648,1.079-1.008,2.304-1.08,3.815-.108,1.404.036,3.744.432,5.076 .216,1.332.576,2.304 1.08,2.916h6.192c-.864-2.016-1.368-3.996-1.512-5.94-.18-2.016 0-3.924.54-5.867h-5.652z" fill="#c0c0c0" fill-rule="evenodd" stroke="#000" stroke-miterlimit="10" stroke-width=".036"/>
 <path d="m207.486,126.538c-.612,1.836-.864,3.528-.756,5.22 .036,1.729.432,3.132 1.188,4.752 1.908-.072 3.456-.504 4.644-1.296 1.188-.936 2.232-2.304 2.304-3.563-.144-1.332-1.008-2.916-2.304-3.78-1.332-.901-2.88-1.297-5.076-1.333z" fill="#ffd600" fill-rule="evenodd" stroke="#000" stroke-miterlimit="10" stroke-width=".036"/>
 <path d="m155.178,107.062c-1.98-.323-3.852-.252-5.76.217-2.016.396-4.032,1.188-5.616,2.376-1.692,1.115-3.024,2.628-3.996,4.535-1.044,1.837-2.016,4.213-2.088,6.732-.18,2.376.288,5.832 1.116,8.028 .576,2.16 1.656,3.672 3.24,5.076 1.584,1.224 3.924,2.159 6.48,2.808 2.484.54 5.256.792 8.46.756l-.972-12.24c-2.232.072-3.924-.036-5.22-.323-1.332-.324-2.16-.828-2.484-1.513-.396-.792-.288-2.483.324-3.132 .54-.828 1.908-1.116 3.276-1.296 1.26-.216 2.772-.18 4.536.108-.432-4.032-.864-8.064-1.296-12.132z" fill-rule="evenodd" stroke="#000" stroke-miterlimit="10" stroke-width=".036"/>
 <path d="m154.746,107.71c-3.132-.18-5.76.252-8.028,1.296-2.34.9-4.176,2.484-5.508,4.752-1.368,2.304-2.844,5.256-2.628,8.568 .072,3.096.792,7.775 3.708,10.296 2.916,2.448 7.488,3.96 13.86,4.536l-.756-11.053c-2.16.433-3.888.396-5.328-.107-1.584-.612-2.844-1.764-3.24-2.916-.396-1.26-.576-3.061.972-3.888 1.476-.864 3.996-1.225 7.704-1.08-.252-3.456-.504-6.912-.756-10.404z" fill="#ffd600" fill-rule="evenodd" stroke="#000" stroke-miterlimit="10" stroke-width=".036"/>
 <path d="m154.422,106.414c-.972.684-1.512,1.836-1.764,3.456-.324,1.584 0,4.355.432,6.084 .36,1.691 1.152,2.735 2.088,3.672h10.404c0,0-1.872-3.24-2.232-6.516-.396-3.276.72-6.589.72-6.589l-9.648-.107z" fill-rule="evenodd" stroke="#000" stroke-miterlimit="10" stroke-width=".036"/>
 <path d="m155.178,107.062c-.828,1.009-1.368,2.269-1.476,3.78-.144,1.404.144,3.708.576,5.112 .324,1.332.864,2.304 1.476,2.916h8.46c-1.188-2.052-1.872-3.996-2.052-5.977-.252-2.088.036-3.852.72-5.832l-7.704.001z" fill="#c0c0c0" fill-rule="evenodd" stroke="#000" stroke-miterlimit="10" stroke-width=".036"/>
 <path d="m154.422,124.918c-.972.648-1.512,1.944-1.764,3.492-.324,1.62 0,4.284.432,6.048 .36,1.584 1.152,2.808 2.088,3.672h10.404c0,0-1.872-3.204-2.232-6.479-.396-3.276.72-6.624.72-6.624l-9.648-.109z" fill-rule="evenodd" stroke="#000" stroke-miterlimit="10" stroke-width=".036"/>
 <path d="m155.178,125.566c-.828,1.079-1.368,2.304-1.476,3.815-.144,1.404.144,3.744.576,5.076 .324,1.332.864,2.304 1.476,2.916h8.46c-1.188-2.016-1.872-3.996-2.052-5.94-.252-2.016.036-3.924.72-5.867h-7.704z" fill="#c0c0c0" fill-rule="evenodd" stroke="#000" stroke-miterlimit="10" stroke-width=".036"/>
 <path d="m225.486,107.062c-2.304-.323-4.284-.252-6.48.217-2.16.396-4.536,1.188-6.3,2.376-1.908,1.115-3.42,2.628-4.536,4.535-1.152,1.837-2.196,4.213-2.304,6.732-.216,2.376.324,5.832 1.224,8.028 .72,2.16 1.8,3.672 3.636,5.076 1.764,1.224 4.428,2.159 7.308,2.808 2.772.54 5.94.792 9.504.756l-1.08-12.24c-2.52.072-4.428-.036-5.868-.323-1.44-.324-2.412-.828-2.772-1.513-.504-.792-.252-2.483.36-3.132 .648-.828 2.088-1.116 3.636-1.296 1.476-.216 3.132-.18 5.112.108-.468-4.032-.936-8.064-1.44-12.132z" fill-rule="evenodd" stroke="#000" stroke-miterlimit="10" stroke-width=".036"/>
 <path d="m224.982,107.71c-3.492-.18-6.444.252-9,1.296-2.592.9-4.716,2.484-6.228,4.752-1.656,2.304-3.096,5.256-2.916,8.568 .216,3.096.756,7.775 4.14,10.296 3.276,2.448 8.424,3.96 15.588,4.536l-.864-11.053c-2.376.433-4.356.396-5.94-.107-1.62-.612-3.348-1.764-3.672-2.916-.504-1.26-.504-3.061 1.116-3.888 1.62-.864 4.5-1.225 8.64-1.08-.288-3.456-.576-6.912-.864-10.404z" fill="#ffd600" fill-rule="evenodd" stroke="#000" stroke-miterlimit="10" stroke-width=".036"/>
 <path d="m225.954,106.414c-.828.684-1.26,1.836-1.44,3.456-.216,1.584 0,4.355.36,6.084 .396,1.691.828,2.735 1.692,3.672h7.056l1.584-.756c2.052-.145 3.456-.433 4.752-.864 1.188-.504 1.584-1.152 2.304-1.944 .648-.972 1.512-1.979 1.476-3.168-.252-1.332-.936-2.951-2.448-3.888-1.512-.972-3.564-1.548-6.3-1.728l-1.728-.864h-7.308z" fill-rule="evenodd" stroke="#000" stroke-miterlimit="10" stroke-width=".036"/>
 <path d="m226.566,107.062c-.756,1.009-1.116,2.269-1.224,3.78-.108,1.404.108,3.708.504,5.112 .288,1.332.648,2.304 1.224,2.916h6.912c-1.008-2.052-1.476-3.996-1.692-5.977-.144-2.088-.036-3.852.612-5.832l-6.336.001z" fill="#c0c0c0" fill-rule="evenodd" stroke="#000" stroke-miterlimit="10" stroke-width=".036"/>
 <path d="m234.234,108.034c-.612,1.764-.936,3.492-.828,5.184s.504,3.24 1.332,4.788c2.196-.072 3.888-.504 5.22-1.296 1.26-.9 2.484-2.376 2.556-3.6-.18-1.332-1.08-2.916-2.556-3.78-1.404-.9-3.312-1.332-5.724-1.296z" fill="#ffd600" fill-rule="evenodd" stroke="#000" stroke-miterlimit="10" stroke-width=".036"/>
 <path d="m225.954,124.918c-.828.648-1.26,1.944-1.44,3.492-.216,1.62 0,4.284.36,6.048 .396,1.584.828,2.808 1.692,3.672h7.056l1.584-.756c2.052-.145 3.456-.432 4.752-.864 1.188-.504 1.584-1.151 2.304-1.943 .648-.864 1.512-2.053 1.476-3.133-.252-1.332-.936-2.951-2.448-3.888-1.512-.972-3.564-1.512-6.3-1.764l-1.728-.864h-7.308z" fill-rule="evenodd" stroke="#000" stroke-miterlimit="10" stroke-width=".036"/>
 <path d="m226.566,125.566c-.756,1.079-1.116,2.304-1.224,3.815-.108,1.404.108,3.744.504,5.076 .288,1.332.648,2.304 1.224,2.916h6.912c-1.008-2.016-1.476-3.996-1.692-5.94-.144-2.016-.036-3.924.612-5.867h-6.336z" fill="#c0c0c0" fill-rule="evenodd" stroke="#000" stroke-miterlimit="10" stroke-width=".036"/>
 <path d="m234.234,126.538c-.612,1.836-.936,3.528-.828,5.22 .108,1.729.504,3.132 1.332,4.752 2.196-.072 3.888-.504 5.22-1.296 1.26-.936 2.484-2.304 2.556-3.563-.18-1.332-1.08-2.916-2.556-3.78-1.404-.901-3.312-1.297-5.724-1.333z" fill="#ffd600" fill-rule="evenodd" stroke="#000" stroke-miterlimit="10" stroke-width=".036"/>
 <path d="m62.406 48.418h334.8v11.988h-334.8v-11.988z" fill-rule="evenodd" stroke="#000" stroke-miterlimit="10" stroke-width=".036"/>
 <path d="m64.926 49.714h330.59v9.36h-330.59v-9.36z" fill="#ffd700" fill-rule="evenodd" stroke="#000" stroke-miterlimit="10" stroke-width=".036"/>
 <path d="m274.63 122.11h121.28v11.987h-121.28v-11.987z" fill-rule="evenodd" stroke="#000" stroke-miterlimit="10" stroke-width=".036"/>
 <path d="m276.71 123.44h120.78v9.359h-120.78v-9.359z" fill="#ffd600" fill-rule="evenodd" stroke="#000" stroke-miterlimit="10" stroke-width=".036"/>
 <path d="m279.27,121.282c.685.684 1.116,1.836 1.296,3.456 .072,1.584-.035,4.355-.323,6.084-.324,1.691-.828,2.735-1.513,3.672h-6.3l-1.404-.756c-1.871-.145-3.096-.433-4.211-.864-1.08-.504-1.584-1.152-2.088-1.944-.684-.899-1.44-1.943-1.296-3.132 .108-1.332.828-2.916 2.16-3.924 1.332-.972 3.168-1.548 5.652-1.729l1.512-.863h6.515z" fill-rule="evenodd" stroke="#000" stroke-miterlimit="10" stroke-width=".036"/>
 <path d="m278.729,121.93c.612,1.008.973,2.269 1.08,3.78 0,1.404-.144,3.708-.432,5.112-.216,1.332-.72,2.304-1.116,2.916h-6.156c.792-2.017 1.296-3.996 1.513-5.94 .107-2.016-.072-3.924-.54-5.868h5.651z" fill="#c0c0c0" fill-rule="evenodd" stroke="#000" stroke-miterlimit="10" stroke-width=".036"/>
 <path d="m271.89,122.902c.54,1.836.792,3.527.756,5.22-.107,1.728-.504,3.132-1.188,4.752-1.944-.072-3.492-.504-4.644-1.296-1.26-.937-2.304-2.304-2.304-3.564 .036-1.296.936-2.987 2.304-3.815 1.295-.901 2.808-1.333 5.076-1.297z" fill="#ffd600" fill-rule="evenodd" stroke="#000" stroke-miterlimit="10" stroke-width=".036"/>
 <path d="m404.802,48.526c1.944-.36 4.752-.252 8.28.468 3.636.648 8.64.828 12.924,3.456 4.104,2.52 8.748,5.256 11.556,11.7 2.736,6.408 4.284,18 4.356,26.604-.108,8.568-2.088,17.784-4.824,24.336-2.771,6.336-5.976,10.656-11.7,13.932-5.832,3.133-13.392,4.788-22.968,4.969l-1.979-11.845c7.199.864 13.067-.035 17.747-2.556 4.608-2.664 7.956-7.668 10.045-12.78 1.907-5.256 2.231-11.483 1.943-17.855-.359-6.408-1.656-15.516-3.888-19.98-2.412-4.572-6.048-5.58-10.08-7.056s-8.784-2.124-14.112-1.8c.9-3.853 1.799-7.705 2.7-11.593z" fill-rule="evenodd" stroke="#000" stroke-miterlimit="10" stroke-width=".036"/>
 <path d="m405.702,49.138c3.924.144 7.452.648 10.979,1.512 3.456.756 6.336.936 9.756,3.456 3.313,2.412 7.92,4.968 10.368,11.556 2.412,6.588 4.176,19.044 3.888,27.792-.432,8.676-3.312,17.784-6.3,23.868-3.06,5.939-6.731,8.964-11.844,11.699-5.292,2.593-11.664,3.996-19.404,4.068l-1.188-9.756c3.06.252 5.868.252 8.567-.145 2.629-.359 4.752-.936 7.345-2.268 2.483-1.476 5.508-3.492 7.668-6.444 2.195-3.06 3.672-6.768 4.823-11.411 .864-4.717 1.116-11.053.9-16.236-.396-5.292-1.296-10.944-2.556-14.868-1.332-3.996-2.34-6.192-5.112-8.388-2.952-2.196-8.532-3.852-11.88-4.536-3.384-.792-5.904-.792-7.956,0 .65-3.275 1.298-6.587 1.946-9.899z" fill="#ffd600" fill-rule="evenodd" stroke="#000" stroke-miterlimit="10" stroke-width=".036"/>
 <path d="m404.946,47.842c1.044.684 1.619,1.836 1.871,3.456 .217,1.584-.071,4.356-.468,6.084-.468,1.692-1.151,2.736-2.195,3.672h-10.98c0,0 1.98-3.24 2.376-6.48 .396-3.312-.792-6.624-.792-6.624l10.188-.108z" fill-rule="evenodd" stroke="#000" stroke-miterlimit="10" stroke-width=".036"/>
 <path d="m404.154,48.49c.936,1.008 1.367,2.268 1.584,3.78 .071,1.404-.288,3.708-.648,5.112-.432,1.332-.9,2.304-1.548,2.916h-8.928c1.26-2.052 1.943-3.996 2.195-5.976 .216-2.088 0-3.852-.792-5.832h8.137z" fill="#c0c0c0" fill-rule="evenodd" stroke="#000" stroke-miterlimit="10" stroke-width=".036"/>
 <path d="m404.946,121.498c1.044.684 1.619,1.836 1.871,3.456 .217,1.584-.071,4.355-.468,6.084-.468,1.691-1.151,2.736-2.195,3.672h-10.98c0,0 1.98-3.204 2.376-6.48 .396-3.275-.792-6.624-.792-6.624l10.188-.108z" fill-rule="evenodd" stroke="#000" stroke-miterlimit="10" stroke-width=".036"/>
 <path d="m404.154,122.146c.936,1.08 1.367,2.305 1.584,3.816 .071,1.404-.288,3.744-.648,5.076-.432,1.332-.9,2.304-1.548,2.916h-8.928c1.26-2.017 1.943-3.996 2.195-5.94 .216-2.016 0-3.924-.792-5.868h8.137z" fill="#c0c0c0" fill-rule="evenodd" stroke="#000" stroke-miterlimit="10" stroke-width=".036"/>
 <path d="m381.55 59.506h7.2v11.268h-7.2v-11.268z" fill-rule="evenodd" stroke="#000" stroke-miterlimit="10" stroke-width=".036"/>
 <path d="m381.55 111.78h7.2v11.268h-7.2v-11.268z" fill-rule="evenodd" stroke="#000" stroke-miterlimit="10" stroke-width=".036"/>
 <path d="m382.73 70.45h4.212v42.228h-4.212v-42.228z" fill-rule="evenodd" stroke="#000" stroke-miterlimit="10" stroke-width=".036"/>
 <path d="m433.817,120.346c.612.685 1.261,1.225 2.089,1.62 .72.396 1.619.504 2.556.612 .864.864.756,2.016-.468,3.312-1.225,1.261-3.42,2.809-6.732,4.5 .108-.792-.144-1.296-.612-1.655-.54-.396-1.296-.54-2.411-.433l-.9-.468-5.688,2.844 .576,1.08c-.252.216-.396.612-.576,1.188-.252.504-.504,1.476-.323,2.088 .107.54.468,1.08 1.224,1.224 .648,0 1.692-.252 2.988-.899 2.195.863 4.896.504 7.956-1.225 3.168-1.836 7.092-4.932 10.367-9.144 3.061-4.356 6.408-11.845 7.956-16.092 1.297-4.32 1.08-8.856.757-9.145-.324-.324-.757,4.356-2.557,7.524-1.872,3.132-4.68,6.731-8.424,11.088-.54-.612-1.332-1.008-2.232-1.332-.972-.324-2.123-.576-3.455-.612-.686,1.297-1.37,2.593-2.091,3.925z" fill-rule="evenodd" stroke="#000" stroke-miterlimit="10" stroke-width=".036"/>
 <path d="m440.406,118.366c-1.045-.324-1.944-.576-2.7-.756-.792-.217-1.44-.36-1.944-.433l-1.224,2.232c.252.756.756,1.26 1.512,1.656 .612.396 2.16.972 2.844.611 .684-.538 1.188-1.51 1.512-3.31z" fill="#ffd600" fill-rule="evenodd" stroke="#000" stroke-miterlimit="10" stroke-width=".036"/>
 <path d="m451.206,106.81c-1.98,3.564-3.78,6.517-5.4,8.856-1.8,2.268-3.348,3.276-4.355,4.968-1.009,1.44-.252,2.988-1.332,4.5-1.225,1.584-3.853,3.888-5.4,4.968-1.656,1.009-2.88,1.404-4.068,1.188l-3.924,3.168c.648.324 1.908.072 3.636-.612 1.801-.792 4.141-1.584 6.732-3.744 2.448-2.304 5.4-5.363 7.884-9.323 2.375-3.925 4.355-8.533 6.227-13.969z" fill="#ffd600" fill-rule="evenodd" stroke="#000" stroke-miterlimit="10" stroke-width=".036"/>
 <path d="m427.193,129.49c-1.115.252-2.88,1.224-3.743,2.088-.792.792-1.332,2.268-1.225,2.88 0,.54.036,1.008 1.368.432 1.26-.863 5.256-3.563 6.3-4.5 .973-.972-.252-.432-.611-.611-.505-.289-1.152-.577-2.089-.289z" fill="#ffd600" fill-rule="evenodd" stroke="#000" stroke-miterlimit="10" stroke-width=".036"/>
 <path d="m383.094,60.154-.396,9.18 1.296.252v43.2l-1.296.144v8.929h5.111l-.396-9.072-1.296.144 .252-43.2 1.439-.144 .145-9.18-4.859-.253z" fill="#ffd600" fill-rule="evenodd" stroke="#000" stroke-miterlimit="10" stroke-width=".036"/>
 <path d="m227.106,51.874c15.804,0 11.412-.108 28.08.36 16.74.324 59.148.972 70.992,1.8 11.484.792 16.021,2.736-1.8,2.916-18.18,0-78.516-2.196-105.192-2.556-26.568-.396-31.068,0-53.352.36-22.644.252-79.236,1.8-80.352,1.44-.684-.54 51.444-3.204 75.312-3.96 23.796-.72 50.292-.468 66.312-.36z" fill-rule="evenodd" stroke="#000" stroke-miterlimit="10" stroke-width=".036"/>
 <path d="m325.458,128.626c3.852-.396 44.496-.396 49.032,0 4.248.252-14.473,2.124-22.717,2.16-8.315-.036-30.095-1.908-26.315-2.16z" fill-rule="evenodd" stroke="#000" stroke-miterlimit="10" stroke-width=".036"/>
 <path d="m302.418,113.866c3.888-.396 44.424-.396 48.996,0 4.248.252-14.473,2.124-22.716,2.16-8.352-.036-30.024-1.908-26.28-2.16z" fill-rule="evenodd" stroke="#000" stroke-miterlimit="10" stroke-width=".036"/>
 <path d="m168.318,114.478c2.16-.252 24.192-.252 26.784,0 2.304.108-7.992,1.152-12.42,1.188-4.536-.036-16.452-1.08-14.364-1.188z" fill-rule="evenodd" stroke="#000" stroke-miterlimit="10" stroke-width=".036"/>
 <path d="m166.878,133.594c2.16-.252 24.192-.252 26.784,0 2.304.108-7.992,1.152-12.42,1.188-4.536-.036-16.452-1.08-14.364-1.188z" fill-rule="evenodd" stroke="#000" stroke-miterlimit="10" stroke-width=".036"/>
</svg>
