<?xml version="1.0" encoding="UTF-8"?>
<svg viewBox="0 0 500 500" xmlns="http://www.w3.org/2000/svg">
 <g transform="rotate(-45 254.73 234.73)">
  <g fill-rule="evenodd">
   <path d="m17.77 284.7c4.769 0 8.64 3.887 8.64 8.676s-3.871 8.678-8.64 8.678c-4.77 0-8.64-3.889-8.64-8.678s3.87-8.676 8.64-8.676" fill="#fff"/>
   <g stroke="#000" stroke-miterlimit="10" stroke-width=".036">
    <path d="m151.36 148.91l-5.868-3.168c-2.052 2.376-4.752 3.708-8.244 4.14-3.456 0.36-5.148-0.324-12.564-1.764-7.632-1.656-21.636-5.796-32.436-6.984-10.943-1.224-21.923-1.908-31.968 0.468-10.008 2.304-19.692 6.444-27.504 13.824-7.991 7.452-14.867 21.132-19.367 30.348-4.5 8.964-6.336 16.596-7.308 23.868-1.044 7.308-0.577 13.644 1.259 19.548-2.232 1.728-3.348 3.816-3.348 6.66-0.072 2.771 1.044 6.012 3.204 9.865-0.972 6.695 0.252 14.578 3.816 24.336 3.6 9.756 9.684 24.119 17.136 33.371 7.272 9.035 16.344 16.633 26.388 20.988 9.972 4.211 22.572 5.436 33.228 4.932 10.584-0.61096 21.708-5.291 30.06-7.813 8.208-2.52 13.752-6.191 19.548-6.984 5.76-0.86298 10.692-0.17999 14.94 2.053l5.256-3.313c-1.944-1.908-2.952-4.139-3.024-6.84-0.216-2.844-0.072006-6.119 2.52-9.395 2.592-3.35 6.696-7.236 12.888-10.01 6.156-2.844 17.064-5.146 23.688-6.336 6.48-1.223 11.088-1.115 14.94-0.50397 3.672 0.43399 5.76 0.86499 7.632 3.816 1.836 2.953 3.096 7.668 3.636 14.148l6.552 3.348c2.232-2.053 4.86-3.492 7.884-4.463 2.88-1.045 4.932-1.656 10.188-1.262 5.22 0.50403 13.463 3.168 21.276 3.816 7.775 0.396 17.496 0.72101 24.984-0.97098 7.416-1.908 13.32-4.572 19.223-9.504 5.725-5.041 11.449-11.484 15.084-19.729 3.529-8.172 5.725-17.785 6.445-28.98l115.74-8.424c3.959-0.612 8.1-1.188 12.563-1.584 4.43-0.50401 9.145-0.828 14.148-1.116 0.21701 0.90001 1.008 1.476 2.52 1.584 1.441 0.108 3.457-0.252 6.193-0.936-0.57602 2.556-0.14502 4.176 1.295 5.255 1.441 0.938 5.438 1.477 7.129 0.793 1.584-0.756 2.34-2.412 2.412-5.112 2.412 0 4.104-0.46799 5.076-1.26 0.936-0.936 1.043-1.98 0.46701-3.672 2.377 1.188 4.068 0.97202 5.076-0.79199 1.008-1.8 1.801-7.812 0.97299-9.684-0.936-1.944-3.061-2.484-6.516-1.764 0.035004-1.944-0.396-3.132-1.441-3.96-1.08-0.828-2.664-1.044-4.752-0.79201 0.25198-2.484-0.18002-4.104-1.295-5.256-1.225-1.188-3.852-1.656-5.4-1.404-1.619 0.216-3.313 1.62-3.959 2.844-0.68597 1.08-0.793 2.592-0.18198 4.14-1.979-0.57599-3.563-0.68399-4.895-0.17999-1.369 0.396-2.484 1.404-3.205 2.88 0.46899-0.504-2.34-0.828-8.424-0.972-6.191-0.18001-15.371-0.18001-28.115 0l-107.17 0.54c0.43201-4.788-0.43399-10.224-2.881-16.704-2.447-6.588-6.336-15.66-11.664-21.78-5.473-6.12-13.104-11.34-20.375-14.292-7.201-3.024-14.725-3.816-22.861-3.492-8.424 0.252-19.764 3.744-26.387 5.076-6.444 1.224-8.64 2.484-12.42 2.232-3.96-0.468-7.668-1.908-11.124-4.608l-6.192 3.96c1.836 3.636 2.232 6.768 1.044 9.684-1.26 2.808-3.276 5.724-8.136 7.344-4.968 1.548-13.572 2.232-20.808 1.908-7.344-0.468-16.308-1.908-22.572-4.608-6.372-2.88-12.42-7.56-14.796-12.096-2.34-4.605-2.124-9.645 0.79201-15.261z"/>
    <path d="m326.07 211.55c0.25201-3.24-0.324-7.164-1.584-11.916-1.369-4.896-2.27-10.692-6.193-16.56-4.031-6.012-10.836-14.148-17.496-18.432-6.803-4.176-15.623-6.084-22.572-6.84-7.092-0.828-12.996 0.648-19.223 1.908-6.409 1.152-12.924 4.14-18.145 4.932-5.22 0.576-9.504 0-12.708-0.612-3.276-0.648-5.4-1.512-6.516-2.88l-2.376 1.116c1.152 2.916 1.476 5.436 1.116 7.956-0.396 2.376-0.972 4.644-3.672 6.66-2.952 2.052-7.128 4.608-13.5 5.58-6.552 0.828-16.812 0.89999-24.804-0.324-8.028-1.332-17.172-4.104-22.572-7.488-5.364-3.492-8.316-9.036-9.54-13.032-1.368-4.032-0.68401-7.632 1.764-10.944l-1.908-1.44c-0.144 2.268-2.772 3.384-8.28 3.348-5.58-0.144-16.56-2.34-24.48-3.816-7.848-1.548-14.904-4.356-22.716-5.112-8.064-0.86401-16.235-1.584-24.804 0.17999-8.64 1.692-17.388 5.076-26.532 10.152 6.084 4.716 11.016 10.872 14.94 18.468 3.816 7.596 8.604 16.74 8.244 26.856-0.396 10.08-3.996 20.772-10.656 32.904 5.688-3.384 12.204-6.336 20.376-9.396 7.992-3.132 21.276-7.416 27.648-8.568 6.156-1.188 8.244-0.17999 10.152 2.052 1.8 2.196 1.116 6.372 1.44 10.98 0.36 4.5 0.576 11.269 0.648 15.876-0.071999 4.393 1.044 9.107-0.972 10.836-2.16 1.656-5.292 0.61101-11.736-0.50401-6.66-1.225-17.532-4.824-27.18-6.336-9.72-1.621-21.6-2.844-30.204-2.701-8.604 0.18201-15.552 3.061-20.844 3.637-5.292 0.35901-9 0.17999-10.98-0.936-1.476 2.699-1.008 7.523 1.116 14.615 2.124 7.057 6.696 19.297 11.772 27.828 5.004 8.461 10.404 16.74 18.288 22.896 7.884 6.047 19.224 11.195 28.764 13.355 9.396 1.943 18.612 0.46899 27.648-1.115 9-1.693 19.728-6.301 25.92-8.424 6.012-2.197 6.444-3.637 10.188-4.465 3.672-0.86298 8.748-0.828 11.772-0.46899 2.844 0.254 4.644 1.045 5.4 2.232l2.52-1.619c-2.052-1.26-3.06-3.168-3.024-5.869-0.108-2.879-0.071991-6.516 3.024-10.332 2.952-3.887 7.524-8.783 15.264-11.916 7.848-3.168 23.148-5.902 31.176-6.695 7.884-0.89999 12.24-1.477 16.128 1.764 3.78 3.277 5.904 8.928 6.516 17.496l2.52 2.053c2.412-3.061 5.724-4.824 10.332-5.58 4.572-0.72101 10.332 0.504 16.848 1.295 6.373 0.72101 14.58 2.594 21.312 2.846 6.553 0.143 12.096 0.28702 18.432-1.908 6.373-2.377 13.861-6.012 19.549-11.736 5.58-5.939 10.691-15.66 13.535-22.752 2.771-7.02 3.492-13.285 2.701-19.08l-113.51 10.188c1.008-2.809 1.512-6.264 1.908-10.512 0.28799-4.393 0.46799-9.684 0-14.76-0.576-5.004-1.584-10.044-3.168-15.12 37.62 0.036011 75.277 0.108 112.93 0.18001z" fill="#a16121"/>
    <path d="m154.25 215.26c1.44-0.612 2.988-0.936 4.5-0.828 1.476-0.035995 3.636-0.57599 4.68 1.296 0.972 1.908 1.008 5.868 1.368 9.648 0.36 3.6 0.72 7.524 0.648 12.204-0.216 4.715-0.324 13.355-1.836 15.623-1.62 2.018-4.104 0.93802-7.596-3.24l0.18-4.104c0.972 0.324 1.656 0.10901 2.196-0.936 0.36-1.152 0.576-1.943 0.648-5.148 0.144-3.313 0.28801-11.339 0-13.967-0.468-2.628-1.332-2.988-2.592-1.368-0.252-1.98-0.504-3.672-0.89999-5.22-0.39601-1.62-0.82901-2.808-1.296-3.96z"/>
    <path d="m130.63 279.73l3.204 2.484c2.232-1.477 3.96-1.836 5.58-1.08 1.512 0.646 3.744 3.744 3.636 5.398-0.252 1.621-2.52 4.213-4.572 4.465-2.088 0.14502-5.904-1.367-7.704-3.564-1.944-2.34-4.644-6.695-3.384-10.008 1.26-3.564 5.652-7.775 11.088-10.115s14.724-2.773 21.204-3.385c6.408-0.57599 12.492-0.035004 16.884-0.324 4.212-0.43201 6.804-1.152 8.604-2.16 1.764-1.008 2.556-2.375 2.232-3.959l-2.232-1.656c-2.196 0.35901-3.708 0.17999-4.536-0.68399-0.93599-0.97301-1.656-3.529-0.756-4.465 0.936-1.043 3.744-1.98 5.796-1.152 1.908 0.793 4.932 3.457 5.472 6.193 0.43199 2.734-0.324 7.271-2.808 9.863-2.628 2.375-7.344 4.031-12.348 4.969-5.112 0.75601-11.664 0.143-17.712 0.504-6.192 0.28699-13.752 0.646-18.396 2.051-4.68 1.442-7.631 3.6-9.252 6.625z"/>
    <path d="m128.79 184.26l3.204-2.484c2.232 1.404 3.96 1.764 5.58 1.08 1.512-0.756 3.744-3.852 3.636-5.4-0.252-1.728-2.52-4.284-4.572-4.464-2.088-0.252-5.904 1.26-7.704 3.564-1.944 2.232-4.644 6.588-3.384 10.008 1.26 3.456 5.652 7.704 11.088 10.116 5.436 2.232 14.724 2.664 21.204 3.384 6.408 0.46799 12.492-0.072006 16.884 0.32399 4.212 0.36 6.804 1.08 8.604 2.16 1.764 0.972 2.556 2.304 2.232 3.996l-2.232 1.656c-2.196-0.46799-3.708-0.252-4.536 0.64801-0.936 0.86398-1.656 3.456-0.756 4.464 0.936 0.97202 3.744 1.872 5.796 1.152 1.908-0.89999 4.932-3.564 5.472-6.192 0.43199-2.808-0.324-7.344-2.808-9.864-2.628-2.484-7.344-4.14-12.348-4.968-5.112-0.828-11.664-0.252-17.712-0.504-6.192-0.39601-13.752-0.756-18.396-2.052-4.68-1.476-7.631-3.636-9.252-6.624z"/>
    <path d="m102.66 220.73l59.724-4.68 281.48-1.98-0.217 2.232-281.27 1.476-59.724 4.428v-1.476z"/>
    <path d="m103.2 220.95l58.464-4.464 40.428-0.216 241.2-1.836-0.072 1.476-74.16 0.252-207.32 1.26-58.752 4.428 0.215-0.9z" fill="#fff"/>
    <path d="m102.23 250.79l59.976 1.08 281.74-22.211-0.145-1.692-281.74 22.177-59.76-0.504-0.071 1.15z"/>
    <path d="m102.55 250.47l58.896 1.043 40.32-3.168 241.78-18.972-0.145-1.044-75.238 6.156-206.71 16.092-58.68-0.576-0.216 0.469z" fill="#fff"/>
    <path d="m103.2 239.49l59.976 1.08 279.68-15.192-0.072-1.656-279.76 15.12-59.76-0.504-0.072 1.152z"/>
    <path d="m103.56 239.12l58.896 1.08 279.97-15.119-0.145-0.936-279.86 15.084-58.68-0.576-0.18 0.467z" fill="#fff"/>
    <path d="m103.67 230.41l59.76-0.684 279.5-9.144 0.035-1.584-279.68 9.036-59.652 1.26 0.037 1.116z"/>
    <g fill="#fff">
     <path d="m103.99 230.16l58.68-0.792 279.83-9.18v-0.86401l-279.83 9.108-58.644 1.08-0.036 0.648z"/>
     <path d="m106.87 219.36c-0.576 0.036011-1.296 0.036011-2.16 0.144-0.936 0.108-2.016 0.18001-3.24 0.36-0.468-0.396-0.972-0.54001-1.368-0.43201-0.468 0.072006-0.9 0.46802-1.152 0.90001-0.28799 0.36-0.864 0.756-0.612 1.332 0.108 0.468 0.576 1.008 1.404 1.62-0.468-0.036011-1.008-0.36002-1.332-0.68402-0.468-0.504-1.044-1.044-1.044-1.62-0.10799-0.648 0.612-1.368 1.044-1.764 0.43201-0.50401 0.9-0.576 1.548-0.612 0.504-0.072006 1.224 0.28799 1.872 0.68401 1.656 0 3.348 0.03598 5.04 0.071991z"/>
     <path d="m107.01 227.71c-0.576 0-1.296 0.108-2.16 0.18001-0.936 0.108-2.016 0.18001-3.24 0.36-0.504-0.43201-0.9-0.54001-1.332-0.46799-0.432 0.10799-0.972 0.35998-1.188 0.89999-0.288 0.35998-0.86401 0.756-0.612 1.332 0.10799 0.46799 0.576 1.008 1.404 1.62-0.468-0.071991-1.008-0.28799-1.332-0.64801-0.468-0.396-1.08-1.116-1.008-1.62-0.071999-0.612 0.54-1.44 1.008-1.8 0.396-0.43201 0.972-0.576 1.584-0.576 0.54-0.035995 1.152 0.18001 1.836 0.648 1.656 0 3.348 0.036011 5.04 0.071991z"/>
     <path d="m106.36 237.15c-0.504-0.071991-1.26-0.036987-2.124-0.036987-0.936 0-1.98 0.036987-3.276 0.10899-0.468-0.43401-0.89999-0.61299-1.296-0.541-0.504 0.036987-0.972 0.396-1.26 0.793-0.324 0.287-0.936 0.756-0.71999 1.26 0.071999 0.504 0.504 1.043 1.296 1.764-0.504-0.18001-0.936-0.39601-1.296-0.79302-0.432-0.53899-1.008-1.15-0.9-1.691 0-0.68402 0.72-1.295 1.188-1.691 0.396-0.324 0.972-0.612 1.584-0.46899 0.54 0.107 1.188 0.25198 1.8 0.828 1.657 0.14398 3.312 0.289 5.004 0.46799z"/>
     <path d="m105.61 248.88c-0.504-0.18201-1.26-0.14499-2.124-0.289-0.936-0.14499-1.98-0.25198-3.276-0.324-0.432-0.53899-0.792-0.64798-1.224-0.71899-0.468-0.036987-1.008 0.215-1.332 0.61101-0.36 0.252-0.972 0.648-0.864 1.188 0.071999 0.46899 0.288 1.152 1.044 1.908-0.468-0.17999-0.9-0.539-1.152-0.936-0.36-0.57599-0.864-1.225-0.684-1.801 0.108-0.648 0.792-1.26 1.368-1.547 0.432-0.252 1.08-0.46899 1.656-0.252 0.468 0.18001 1.152 0.395 1.656 1.043 1.62 0.36 3.277 0.72099 4.932 1.118z"/>
    </g>
    <path d="m436.41 211.91l-0.109-12.348c-0.71899-0.43199-0.89798-0.89999-0.936-1.26 0.072021-0.36 0.289-0.756 1.045-1.044 0.215-0.936-0.071991-1.548-0.46899-1.98-0.57602-0.504-1.584-0.108-2.447-0.612-1.008-0.576-2.305-1.548-2.773-2.772-0.57602-1.368-0.86301-3.276 0.10901-5.148 1.008-2.016 3.744-5.04 5.832-6.156 1.979-1.188 3.779-1.152 5.795-0.46799 1.836 0.71999 4.393 2.556 5.58 4.536 1.08 1.764 1.764 4.716 1.08 6.516-0.86301 1.764-4.68 3.132-5.615 4.104-0.90002 0.828-0.90002 1.296 0.14298 1.26 0.25201 0.18001 0.36102 0.54001 0.324 0.936-0.107 0.36-0.324 0.864-0.79098 1.512l0.107 12.096c-2.268 0.252-4.572 0.54001-6.875 0.828z"/>
    <path d="m455.49 211.33v-14.22c0.61099-0.648 0.86301-1.224 0.61099-1.728-0.289-0.576-1.08-1.08-2.232-1.512 1.045-1.476 1.691-3.168 2.088-5.364 0.289-2.16-0.504-6.156 0-7.56 0.43198-1.62 1.656-1.476 2.701-1.512 0.936-0.18001 2.412-0.072006 2.916 1.152 0.215 1.26-0.86502 3.816-0.61301 6.156 0.289 2.196 1.152 4.572 2.592 7.128-0.646 0.324-1.043 0.75601-1.188 1.152s-0.107 0.864 0.25201 1.404v14.652l-6.299 0.576-0.828-0.324z"/>
    <path d="m446.31 230.16v14.221c0.64801 0.61101 0.793 1.188 0.57599 1.727-0.32398 0.541-1.008 1.045-2.195 1.512 1.045 1.441 1.691 3.133 2.088 5.365 0.28702 2.051-0.504 6.047 0 7.559 0.324 1.514 1.764 1.369 2.664 1.514 0.936 0.072021 2.412-0.036987 2.916-1.152 0.324-1.369-0.936-3.924-0.57602-6.156 0.289-2.232 1.188-4.607 2.557-7.129-0.61301-0.35899-1.045-0.791-1.152-1.15-0.17999-0.43399-0.107-0.89999 0.21701-1.404v-14.655l-6.266-0.612-0.829 0.36z"/>
    <path d="m461.9 228.22l-0.107 12.349c-0.71899 0.395-0.90002 0.86299-0.936 1.26 0.071991 0.396 0.28699 0.75601 1.043 1.08 0.21701 0.90001-0.070007 1.512-0.46701 1.98-0.57599 0.43201-1.584-0.071991-2.449 0.574-1.008 0.46899-2.303 1.441-2.771 2.773-0.57599 1.26-0.86301 3.203 0.10901 5.148 1.008 1.906 3.742 4.932 5.832 6.154 1.979 1.117 3.779 1.045 5.795 0.46899 1.908-0.828 4.428-2.664 5.615-4.535 1.152-1.873 1.693-4.789 1.045-6.518-0.75598-1.799-4.752-3.203-5.58-4.066-0.97299-0.938-0.936-1.369 0.107-1.297 0.324-0.21698 0.396-0.57599 0.36099-0.93599-0.071991-0.43199-0.396-0.93599-0.828-1.512l0.107-12.097c-2.266-0.25-4.571-0.53801-6.876-0.826z"/>
   </g>
  </g>
 </g>
</svg>
